M48
INCH,TZ
T1C0.016
T2C0.031
T3C0.032
T4C0.040
T5C0.125
%
G90
G05
T1
X38550Y-26275
X38745Y-32870
X39100Y-26375
X40275Y-26375
X40575Y-24801
X40600Y-40075
X41325Y-40575
X41400Y-26375
X41575Y-32400
X41650Y-34550
X41920Y-36320
X42225Y-40050
X42310Y-34680
X42310Y-34350
X42600Y-26375
X42950Y-40575
X43800Y-26375
X43825Y-24525
X43850Y-40050
X44300Y-25992
X44575Y-40550
X44600Y-36325
X45475Y-40050
X45675Y-34343
X46200Y-40550
X46300Y-26375
X47100Y-40025
X47208Y-35375
X47250Y-35050
X47253Y-34428
X47253Y-34122
X47253Y-34747
X47800Y-40550
X47850Y-36700
X48222Y-29528
X48230Y-32830
X48575Y-27100
X48700Y-29750
X49177Y-41840
X49350Y-33225
X49800Y-33225
X49925Y-28750
X50200Y-33225
X50300Y-35725
X50317Y-41848
X50425Y-29192
X50425Y-36850
X50575Y-33225
X50720Y-27390
X50900Y-28250
X51275Y-36250
X51325Y-32950
X51381Y-41848
X51590Y-32650
X52200Y-29100
X52200Y-34620
X52481Y-41849
X52625Y-36875
X52725Y-34625
X52960Y-32230
X52970Y-29280
X53180Y-27100
X53581Y-41849
X53750Y-29525
X53750Y-31025
X54275Y-32655
X54275Y-32950
X54475Y-27650
X54681Y-41849
X54825Y-35725
X55150Y-31000
X55300Y-34900
X55500Y-28250
X55650Y-30300
X55675Y-34100
X55781Y-41849
X55800Y-35200
X56250Y-28075
X56874Y-33125
X56875Y-31775
X56881Y-41849
X57519Y-29279
X57800Y-36050
X57823Y-26244
X58260Y-29402
X58415Y-25795
X58950Y-27675
X61425Y-27300
X63125Y-25925
X63625Y-25700
X63710Y-30180
X64975Y-25875
X64975Y-29375
T2
X40175Y-38545
X40175Y-39332
X40550Y-28725
X40550Y-29512
X40995Y-38545
X40995Y-39332
X41675Y-28725
X41675Y-29512
X41820Y-38545
X41820Y-39332
X42620Y-38545
X42620Y-39332
X42875Y-28725
X42875Y-29512
X43440Y-38551
X43440Y-39339
X43625Y-32769
X43625Y-33556
X43625Y-34344
X43625Y-35131
X44075Y-28725
X44075Y-29512
X44240Y-38558
X44240Y-39345
X45055Y-38551
X45055Y-39339
X45100Y-30450
X45100Y-31237
X45100Y-32025
X45275Y-28725
X45275Y-29512
X45855Y-38555
X45855Y-39342
X46475Y-28725
X46475Y-29512
X46650Y-38545
X46650Y-39332
X46850Y-30463
X46850Y-31250
X46850Y-32037
X47450Y-38551
X47450Y-39339
X48600Y-30463
X48600Y-31250
X48600Y-32037
X48875Y-39956
X48875Y-40744
X49425Y-38400
X49425Y-39187
X49975Y-39950
X49975Y-40737
X50250Y-30463
X50250Y-31250
X50250Y-32037
X50525Y-38400
X50525Y-39187
X51075Y-39950
X51075Y-40737
X51625Y-38400
X51625Y-39187
X52175Y-39950
X52175Y-40737
X52725Y-38400
X52725Y-39187
X53275Y-39963
X53275Y-40750
X53850Y-38400
X53850Y-39187
X54375Y-39975
X54375Y-40762
X54925Y-38400
X54925Y-39187
X55475Y-39981
X55475Y-40769
X56050Y-38400
X56050Y-39187
X56575Y-39981
X56575Y-40769
X57150Y-38400
X57150Y-39187
T3
X37060Y-24030
X37060Y-25030
X37060Y-43030
X37060Y-44030
X38060Y-24030
X38060Y-25030
X38060Y-43030
X38060Y-44030
X39060Y-24030
X39060Y-25030
X39060Y-43030
X39060Y-44030
X40060Y-24030
X40060Y-25030
X40060Y-43030
X40060Y-44030
X41060Y-24030
X41060Y-25030
X41060Y-43030
X41060Y-44030
X42060Y-24030
X42060Y-25030
X42060Y-43030
X42060Y-44030
X43060Y-24030
X43060Y-25030
X43060Y-43030
X43060Y-44030
X44060Y-24030
X44060Y-25030
X44060Y-43030
X44060Y-44030
X45060Y-24030
X45060Y-25030
X45060Y-43030
X45060Y-44030
X46060Y-24030
X46060Y-25030
X46060Y-43030
X46060Y-44030
X47060Y-24030
X47060Y-25030
X47060Y-43030
X47060Y-44030
X48060Y-24030
X48060Y-25030
X48060Y-43030
X48060Y-44030
X49060Y-24030
X49060Y-25030
X49060Y-43030
X49060Y-44030
X50060Y-24030
X50060Y-25030
X50060Y-43030
X50060Y-44030
X51060Y-24030
X51060Y-25030
X51060Y-43030
X51060Y-44030
X52060Y-24030
X52060Y-25030
X52060Y-43030
X52060Y-44030
X53060Y-24030
X53060Y-25030
X53060Y-43030
X53060Y-44030
X54060Y-24030
X54060Y-25030
X54060Y-43030
X54060Y-44030
X55060Y-24030
X55060Y-25030
X55060Y-43030
X55060Y-44030
X56060Y-24030
X56060Y-25030
X56060Y-43030
X56060Y-44030
X57060Y-24030
X57060Y-25030
X57060Y-43030
X57060Y-44030
X58060Y-24030
X58060Y-25030
X58060Y-43030
X58060Y-44030
X59060Y-25030
X59060Y-44030
T4
X34480Y-27495
X34485Y-28495
X34485Y-29495
X34485Y-30495
X34485Y-31495
X34485Y-32495
X34485Y-33495
X34485Y-34495
X34485Y-35495
X34485Y-36495
X34485Y-37495
X34485Y-38495
X34485Y-39495
X34485Y-40495
X35480Y-27495
X35485Y-28495
X35485Y-29495
X35485Y-30495
X35485Y-31495
X35485Y-32495
X35485Y-33495
X35485Y-34495
X35485Y-35495
X35485Y-36495
X35485Y-37495
X35485Y-38495
X35485Y-39495
X35485Y-40495
X36485Y-28495
X36485Y-29495
X36485Y-30495
X36485Y-31495
X36485Y-32495
X36485Y-33495
X36485Y-34495
X36485Y-35495
X36485Y-36495
X36485Y-37495
X36485Y-38495
X36485Y-39495
X36485Y-40495
X59060Y-24030
X59060Y-43030
T5
X35060Y-25780
X35060Y-42280
X61060Y-24530
X61060Y-43530
T0
M30
