%TF.GenerationSoftware,KiCad,Pcbnew,0.201603091917+6614~43~ubuntu14.04.1-product*%
%TF.CreationDate,2016-03-10T23:19:23+01:00*%
%TF.ProjectId,cvra-cape,637672612D636170652E6B696361645F,A*%
%TF.FileFunction,Soldermask,Top*%
%FSLAX46Y46*%
G04 Gerber Fmt 4.6, Leading zero omitted, Abs format (unit mm)*
G04 Created by KiCad (PCBNEW 0.201603091917+6614~43~ubuntu14.04.1-product) date Thu 10 Mar 2016 23:19:23 CET*
%MOMM*%
G01*
G04 APERTURE LIST*
%ADD10C,0.100000*%
%ADD11C,1.900000*%
%ADD12R,1.900000X1.900000*%
%ADD13R,2.127200X2.432000*%
%ADD14O,2.127200X2.432000*%
%ADD15R,2.000000X1.200000*%
%ADD16R,3.400000X2.500000*%
%ADD17R,1.200000X2.000000*%
%ADD18R,2.500000X3.400000*%
%ADD19R,0.800000X1.500000*%
%ADD20R,1.920000X1.000000*%
%ADD21R,1.000000X1.920000*%
%ADD22R,0.850000X1.850000*%
%ADD23R,1.800000X2.200000*%
%ADD24R,1.500000X2.300000*%
%ADD25R,1.100000X0.650000*%
%ADD26C,4.972000*%
%ADD27R,2.051000X2.051000*%
%ADD28C,1.700480*%
%ADD29R,1.060000X0.700000*%
%ADD30R,1.300000X1.300000*%
%ADD31R,2.432000X2.432000*%
%ADD32O,2.432000X2.432000*%
%ADD33R,1.400000X1.100000*%
%ADD34R,1.100000X1.400000*%
G04 APERTURE END LIST*
D10*
D11*
X127635000Y-77375000D03*
D12*
X127635000Y-81375000D03*
D11*
X127635000Y-79375000D03*
X123444000Y-77375000D03*
D12*
X123444000Y-81375000D03*
D11*
X123444000Y-79375000D03*
X118999000Y-77375000D03*
D12*
X118999000Y-81375000D03*
D11*
X118999000Y-79375000D03*
X114554000Y-77343000D03*
D12*
X114554000Y-81343000D03*
D11*
X114554000Y-79343000D03*
D13*
X92671900Y-72377300D03*
D14*
X90131900Y-72377300D03*
X87591900Y-72377300D03*
D13*
X92671900Y-74917300D03*
D14*
X90131900Y-74917300D03*
X87591900Y-74917300D03*
D13*
X92671900Y-77457300D03*
D14*
X90131900Y-77457300D03*
X87591900Y-77457300D03*
D13*
X92671900Y-79997300D03*
D14*
X90131900Y-79997300D03*
X87591900Y-79997300D03*
D13*
X92671900Y-82537300D03*
D14*
X90131900Y-82537300D03*
X87591900Y-82537300D03*
D13*
X92671900Y-85077300D03*
D14*
X90131900Y-85077300D03*
X87591900Y-85077300D03*
D13*
X92671900Y-87617300D03*
D14*
X90131900Y-87617300D03*
X87591900Y-87617300D03*
D13*
X92671900Y-90157300D03*
D14*
X90131900Y-90157300D03*
X87591900Y-90157300D03*
D13*
X92671900Y-92697300D03*
D14*
X90131900Y-92697300D03*
X87591900Y-92697300D03*
D13*
X92671900Y-95237300D03*
D14*
X90131900Y-95237300D03*
X87591900Y-95237300D03*
D13*
X92671900Y-97777300D03*
D14*
X90131900Y-97777300D03*
X87591900Y-97777300D03*
D13*
X92671900Y-100317300D03*
D14*
X90131900Y-100317300D03*
X87591900Y-100317300D03*
D13*
X92671900Y-102857300D03*
D14*
X90131900Y-102857300D03*
X87591900Y-102857300D03*
D11*
X110807500Y-89233000D03*
X110807500Y-87233000D03*
D12*
X110807500Y-83233000D03*
D11*
X110807500Y-85233000D03*
D15*
X164295500Y-68292500D03*
X164295500Y-69542500D03*
X164295500Y-70792500D03*
X164295500Y-72042500D03*
D16*
X167195500Y-74592500D03*
X167195500Y-65742500D03*
D17*
X135836500Y-71734000D03*
X137086500Y-71734000D03*
X138336500Y-71734000D03*
X139586500Y-71734000D03*
D18*
X142136500Y-68834000D03*
X133286500Y-68834000D03*
D17*
X124319500Y-71734000D03*
X125569500Y-71734000D03*
X126819500Y-71734000D03*
X128069500Y-71734000D03*
D18*
X130619500Y-68834000D03*
X121769500Y-68834000D03*
D17*
X144234700Y-90724400D03*
X142984700Y-90724400D03*
X141734700Y-90724400D03*
X140484700Y-90724400D03*
D18*
X137934700Y-93624400D03*
X146784700Y-93624400D03*
D17*
X132741200Y-90724400D03*
X131491200Y-90724400D03*
X130241200Y-90724400D03*
X128991200Y-90724400D03*
D18*
X126441200Y-93624400D03*
X135291200Y-93624400D03*
D17*
X147266500Y-71734000D03*
X148516500Y-71734000D03*
X149766500Y-71734000D03*
X151016500Y-71734000D03*
D18*
X153566500Y-68834000D03*
X144716500Y-68834000D03*
D19*
X108111000Y-83446500D03*
X107461000Y-83446500D03*
X106811000Y-83446500D03*
X106161000Y-83446500D03*
X105511000Y-83446500D03*
X104861000Y-83446500D03*
X104211000Y-83446500D03*
X103561000Y-83446500D03*
X102911000Y-83446500D03*
X102261000Y-83446500D03*
X101611000Y-83446500D03*
X100961000Y-83446500D03*
X100311000Y-83446500D03*
X99661000Y-83446500D03*
X99661000Y-89146500D03*
X100311000Y-89146500D03*
X100961000Y-89146500D03*
X101611000Y-89146500D03*
X102261000Y-89146500D03*
X102911000Y-89146500D03*
X103561000Y-89146500D03*
X104211000Y-89146500D03*
X104861000Y-89146500D03*
X105511000Y-89146500D03*
X106161000Y-89146500D03*
X106811000Y-89146500D03*
X107461000Y-89146500D03*
X108111000Y-89146500D03*
D20*
X132588000Y-78803500D03*
X132588000Y-77533500D03*
X132588000Y-76263500D03*
X132588000Y-74993500D03*
X138088000Y-74993500D03*
X138088000Y-76263500D03*
X138088000Y-77533500D03*
X138088000Y-78803500D03*
X133934200Y-86766400D03*
X133934200Y-85496400D03*
X133934200Y-84226400D03*
X133934200Y-82956400D03*
X139434200Y-82956400D03*
X139434200Y-84226400D03*
X139434200Y-85496400D03*
X139434200Y-86766400D03*
D21*
X157797500Y-67334500D03*
X159067500Y-67334500D03*
X160337500Y-67334500D03*
X161607500Y-67334500D03*
X161607500Y-72834500D03*
X160337500Y-72834500D03*
X159067500Y-72834500D03*
X157797500Y-72834500D03*
D22*
X123920800Y-85191600D03*
X123270800Y-85191600D03*
X122620800Y-85191600D03*
X121970800Y-85191600D03*
X121320800Y-85191600D03*
X120670800Y-85191600D03*
X120020800Y-85191600D03*
X119370800Y-85191600D03*
X118720800Y-85191600D03*
X118070800Y-85191600D03*
X118070800Y-91091600D03*
X118720800Y-91091600D03*
X119370800Y-91091600D03*
X120020800Y-91091600D03*
X120670800Y-91091600D03*
X121320800Y-91091600D03*
X121970800Y-91091600D03*
X122620800Y-91091600D03*
X123270800Y-91091600D03*
X123920800Y-91091600D03*
D23*
X113614200Y-90277400D03*
X113614200Y-85877400D03*
X116014200Y-85877400D03*
X116014200Y-90277400D03*
D24*
X159669800Y-75692000D03*
X157169800Y-75692000D03*
D25*
X145097500Y-74549000D03*
X145097500Y-74999000D03*
X145097500Y-75449000D03*
X142297500Y-75899000D03*
X142297500Y-75449000D03*
X142297500Y-74999000D03*
X142297500Y-74549000D03*
X145097500Y-75899000D03*
D26*
X89052400Y-65481200D03*
X155092400Y-62306200D03*
X155092400Y-110566200D03*
X89052400Y-107391200D03*
D27*
X150012400Y-61036200D03*
D28*
X150012400Y-63576200D03*
X147472400Y-61036200D03*
X147472400Y-63576200D03*
X144932400Y-61036200D03*
X144932400Y-63576200D03*
X142392400Y-61036200D03*
X142392400Y-63576200D03*
X139852400Y-61036200D03*
X139852400Y-63576200D03*
X137312400Y-61036200D03*
X137312400Y-63576200D03*
X134772400Y-61036200D03*
X134772400Y-63576200D03*
X132232400Y-61036200D03*
X132232400Y-63576200D03*
X129692400Y-61036200D03*
X129692400Y-63576200D03*
X127152400Y-61036200D03*
X127152400Y-63576200D03*
X124612400Y-61036200D03*
X124612400Y-63576200D03*
X122072400Y-61036200D03*
X122072400Y-63576200D03*
X119532400Y-61036200D03*
X119532400Y-63576200D03*
X116992400Y-61036200D03*
X116992400Y-63576200D03*
X114452400Y-61036200D03*
X114452400Y-63576200D03*
X111912400Y-61036200D03*
X111912400Y-63576200D03*
X109372400Y-61036200D03*
X109372400Y-63576200D03*
X106832400Y-61036200D03*
X106832400Y-63576200D03*
X104292400Y-61036200D03*
X104292400Y-63576200D03*
X101752400Y-61036200D03*
X101752400Y-63576200D03*
X99212400Y-61036200D03*
X99212400Y-63576200D03*
X96672400Y-61036200D03*
X96672400Y-63576200D03*
X94132400Y-61036200D03*
X94132400Y-63576200D03*
D27*
X150012400Y-109296200D03*
D28*
X150012400Y-111836200D03*
X147472400Y-109296200D03*
X147472400Y-111836200D03*
X144932400Y-109296200D03*
X144932400Y-111836200D03*
X142392400Y-109296200D03*
X142392400Y-111836200D03*
X139852400Y-109296200D03*
X139852400Y-111836200D03*
X137312400Y-109296200D03*
X137312400Y-111836200D03*
X134772400Y-109296200D03*
X134772400Y-111836200D03*
X132232400Y-109296200D03*
X132232400Y-111836200D03*
X129692400Y-109296200D03*
X129692400Y-111836200D03*
X127152400Y-109296200D03*
X127152400Y-111836200D03*
X124612400Y-109296200D03*
X124612400Y-111836200D03*
X122072400Y-109296200D03*
X122072400Y-111836200D03*
X119532400Y-109296200D03*
X119532400Y-111836200D03*
X116992400Y-109296200D03*
X116992400Y-111836200D03*
X114452400Y-109296200D03*
X114452400Y-111836200D03*
X111912400Y-109296200D03*
X111912400Y-111836200D03*
X109372400Y-109296200D03*
X109372400Y-111836200D03*
X106832400Y-109296200D03*
X106832400Y-111836200D03*
X104292400Y-109296200D03*
X104292400Y-111836200D03*
X101752400Y-109296200D03*
X101752400Y-111836200D03*
X99212400Y-109296200D03*
X99212400Y-111836200D03*
X96672400Y-109296200D03*
X96672400Y-111836200D03*
X94132400Y-109296200D03*
X94132400Y-111836200D03*
D29*
X104025700Y-103065100D03*
X104025700Y-102415100D03*
X104025700Y-101765100D03*
X102185700Y-101765100D03*
X102185700Y-102415100D03*
X102185700Y-103065100D03*
X108153200Y-103024700D03*
X108153200Y-102374700D03*
X108153200Y-101724700D03*
X106313200Y-101724700D03*
X106313200Y-102374700D03*
X106313200Y-103024700D03*
X112318800Y-103024700D03*
X112318800Y-102374700D03*
X112318800Y-101724700D03*
X110478800Y-101724700D03*
X110478800Y-102374700D03*
X110478800Y-103024700D03*
X116432100Y-103014300D03*
X116432100Y-102364300D03*
X116432100Y-101714300D03*
X114592100Y-101714300D03*
X114592100Y-102364300D03*
X114592100Y-103014300D03*
X120521500Y-102997000D03*
X120521500Y-102347000D03*
X120521500Y-101697000D03*
X118681500Y-101697000D03*
X118681500Y-102347000D03*
X118681500Y-102997000D03*
D30*
X153549200Y-75742800D03*
X151149200Y-75742800D03*
D31*
X90119200Y-69837300D03*
D32*
X87579200Y-69837300D03*
D33*
X153543000Y-72186800D03*
X153543000Y-73586800D03*
D34*
X143062500Y-79502000D03*
X144462500Y-79502000D03*
D33*
X102044500Y-96202500D03*
X102044500Y-94802500D03*
X104140000Y-96205500D03*
X104140000Y-94805500D03*
X103974900Y-105628900D03*
X103974900Y-104228900D03*
X102247700Y-105625900D03*
X102247700Y-104225900D03*
X106235500Y-96202500D03*
X106235500Y-94802500D03*
X108267500Y-96202500D03*
X108267500Y-94802500D03*
X108153200Y-105625900D03*
X108153200Y-104225900D03*
X106375200Y-105625900D03*
X106375200Y-104225900D03*
X110299500Y-96202500D03*
X110299500Y-94802500D03*
X112395000Y-96205500D03*
X112395000Y-94805500D03*
X112217200Y-105603500D03*
X112217200Y-104203500D03*
X110540800Y-105603500D03*
X110540800Y-104203500D03*
X114427000Y-96202500D03*
X114427000Y-94802500D03*
X116459000Y-96180100D03*
X116459000Y-94780100D03*
X116484400Y-105552700D03*
X116484400Y-104152700D03*
X114554000Y-105552700D03*
X114554000Y-104152700D03*
X104521000Y-91184500D03*
X104521000Y-92584500D03*
X118491000Y-96139000D03*
X118491000Y-94739000D03*
X120523000Y-96139000D03*
X120523000Y-94739000D03*
X120396000Y-105549700D03*
X120396000Y-104149700D03*
X118745000Y-105540000D03*
X118745000Y-104140000D03*
X116586000Y-79946500D03*
X116586000Y-81346500D03*
X121031000Y-79943500D03*
X121031000Y-81343500D03*
X125476000Y-79943500D03*
X125476000Y-81343500D03*
X129921000Y-79945000D03*
X129921000Y-81345000D03*
D34*
X115633500Y-69532500D03*
X114233500Y-69532500D03*
X114235000Y-70993000D03*
X115635000Y-70993000D03*
X112652000Y-69532500D03*
X111252000Y-69532500D03*
X111249000Y-70993000D03*
X112649000Y-70993000D03*
X125539500Y-106934000D03*
X124139500Y-106934000D03*
X127638000Y-105473500D03*
X126238000Y-105473500D03*
X128335000Y-106934000D03*
X126935000Y-106934000D03*
X130432000Y-105473500D03*
X129032000Y-105473500D03*
X131130500Y-106934000D03*
X129730500Y-106934000D03*
X133226000Y-105473500D03*
X131826000Y-105473500D03*
X118745000Y-69532500D03*
X117345000Y-69532500D03*
X117345000Y-70993000D03*
X118745000Y-70993000D03*
X106556000Y-69532500D03*
X105156000Y-69532500D03*
X105153000Y-70993000D03*
X106553000Y-70993000D03*
X133924500Y-106934000D03*
X132524500Y-106934000D03*
X136018500Y-105473500D03*
X134618500Y-105473500D03*
X136718500Y-106934000D03*
X135318500Y-106934000D03*
X138814000Y-105473500D03*
X137414000Y-105473500D03*
X139512500Y-106934000D03*
X138112500Y-106934000D03*
X141608000Y-105473500D03*
X140208000Y-105473500D03*
X109601000Y-69532500D03*
X108201000Y-69532500D03*
X108201000Y-70993000D03*
X109601000Y-70993000D03*
X103695500Y-69532500D03*
X102295500Y-69532500D03*
X102295500Y-70993000D03*
X103695500Y-70993000D03*
X142305000Y-106934000D03*
X140905000Y-106934000D03*
X144402000Y-105473500D03*
X143002000Y-105473500D03*
X145100500Y-106934000D03*
X143700500Y-106934000D03*
X147196000Y-105473500D03*
X145796000Y-105473500D03*
X137301200Y-89115900D03*
X135901200Y-89115900D03*
X131189500Y-72453500D03*
X132589500Y-72453500D03*
X99314000Y-69532500D03*
X100714000Y-69532500D03*
X100714000Y-70993000D03*
X99314000Y-70993000D03*
X123828000Y-94716600D03*
X122428000Y-94716600D03*
D33*
X147129500Y-75312500D03*
X147129500Y-73912500D03*
X148653500Y-75312500D03*
X148653500Y-73912500D03*
D34*
X94550000Y-66738500D03*
X95950000Y-66738500D03*
X160402500Y-64579500D03*
X159002500Y-64579500D03*
X160404000Y-63119000D03*
X159004000Y-63119000D03*
D33*
X116586000Y-77341500D03*
X116586000Y-78741500D03*
X121031000Y-77343000D03*
X121031000Y-78743000D03*
X125476000Y-77341500D03*
X125476000Y-78741500D03*
X129921000Y-77341500D03*
X129921000Y-78741500D03*
D34*
X143065500Y-77851000D03*
X144465500Y-77851000D03*
X144275000Y-72771000D03*
X142875000Y-72771000D03*
X106488000Y-90982800D03*
X107888000Y-90982800D03*
X156410200Y-77774800D03*
X157810200Y-77774800D03*
X160404000Y-77774800D03*
X159004000Y-77774800D03*
X163234600Y-75412600D03*
X161834600Y-75412600D03*
D33*
X156019500Y-68327500D03*
X156019500Y-66927500D03*
D34*
X114236500Y-68072000D03*
X115636500Y-68072000D03*
X111252000Y-68072000D03*
X112652000Y-68072000D03*
X117348000Y-68072000D03*
X118748000Y-68072000D03*
X105153000Y-68072000D03*
X106553000Y-68072000D03*
X108204000Y-68072000D03*
X109604000Y-68072000D03*
X102295500Y-68072000D03*
X103695500Y-68072000D03*
X99314000Y-68072000D03*
X100714000Y-68072000D03*
D33*
X141427200Y-85561400D03*
X141427200Y-84161400D03*
X140081000Y-77662000D03*
X140081000Y-76262000D03*
D34*
X115457200Y-83908900D03*
X114057200Y-83908900D03*
X122428000Y-93256100D03*
X123828000Y-93256100D03*
X114120700Y-92290900D03*
X115520700Y-92290900D03*
D12*
X124142500Y-101489000D03*
D11*
X124142500Y-103489000D03*
D12*
X125539500Y-97536000D03*
D11*
X125539500Y-99536000D03*
D12*
X126936500Y-101473000D03*
D11*
X126936500Y-103473000D03*
D12*
X128333500Y-97536000D03*
D11*
X128333500Y-99536000D03*
D12*
X129730500Y-101473000D03*
D11*
X129730500Y-103473000D03*
D12*
X131127500Y-97536000D03*
D11*
X131127500Y-99536000D03*
D12*
X132524500Y-101473000D03*
D11*
X132524500Y-103473000D03*
D12*
X133921500Y-97536000D03*
D11*
X133921500Y-99536000D03*
D12*
X135318500Y-101505000D03*
D11*
X135318500Y-103505000D03*
D12*
X136779000Y-97536000D03*
D11*
X136779000Y-99536000D03*
D12*
X138112500Y-101536500D03*
D11*
X138112500Y-103536500D03*
D12*
X139509500Y-97536000D03*
D11*
X139509500Y-99536000D03*
D12*
X140906500Y-101552500D03*
D11*
X140906500Y-103552500D03*
D12*
X142367000Y-97536000D03*
D11*
X142367000Y-99536000D03*
D12*
X143700500Y-101552500D03*
D11*
X143700500Y-103552500D03*
D12*
X145161000Y-97536000D03*
D11*
X145161000Y-99536000D03*
D12*
X102044500Y-97904300D03*
D11*
X102044500Y-99904300D03*
D12*
X104127300Y-97904300D03*
D11*
X104127300Y-99904300D03*
D12*
X106222800Y-97904300D03*
D11*
X106222800Y-99904300D03*
D12*
X108254800Y-97904300D03*
D11*
X108254800Y-99904300D03*
D12*
X110337600Y-97920300D03*
D11*
X110337600Y-99920300D03*
D12*
X112369600Y-97936300D03*
D11*
X112369600Y-99936300D03*
D12*
X114439700Y-97920300D03*
D11*
X114439700Y-99920300D03*
D12*
X116471700Y-97929700D03*
D11*
X116471700Y-99929700D03*
D12*
X118491000Y-97904300D03*
D11*
X118491000Y-99904300D03*
D12*
X120523000Y-97920300D03*
D11*
X120523000Y-99920300D03*
D12*
X114998500Y-72961500D03*
D11*
X114998500Y-74961500D03*
D12*
X111950500Y-72961500D03*
D11*
X111950500Y-74961500D03*
D12*
X118046500Y-72961500D03*
D11*
X118046500Y-74961500D03*
D12*
X105854500Y-72961500D03*
D11*
X105854500Y-74961500D03*
D12*
X108902500Y-72961500D03*
D11*
X108902500Y-74961500D03*
D12*
X102997000Y-72961500D03*
D11*
X102997000Y-74961500D03*
M02*
