G04 #@! TF.FileFunction,Copper,L2,Bot,Signal*
%FSLAX46Y46*%
G04 Gerber Fmt 4.6, Leading zero omitted, Abs format (unit mm)*
G04 Created by KiCad (PCBNEW 0.201603200401+6630~43~ubuntu14.04.1-product) date Tue 22 Mar 2016 10:49:07 AM CET*
%MOMM*%
G01*
G04 APERTURE LIST*
%ADD10C,0.100000*%
%ADD11R,2.800000X0.700000*%
%ADD12C,1.500000*%
%ADD13R,1.500000X1.500000*%
%ADD14R,1.727200X2.032000*%
%ADD15O,1.727200X2.032000*%
%ADD16C,4.572000*%
%ADD17R,1.651000X1.651000*%
%ADD18C,1.300480*%
%ADD19R,2.032000X2.032000*%
%ADD20O,2.032000X2.032000*%
%ADD21C,0.600000*%
%ADD22C,0.200000*%
%ADD23C,0.500000*%
G04 APERTURE END LIST*
D10*
D11*
X164566000Y-70727000D03*
X164566000Y-69227000D03*
D12*
X127635000Y-77375000D03*
D13*
X127635000Y-81375000D03*
D12*
X127635000Y-79375000D03*
X123444000Y-77375000D03*
D13*
X123444000Y-81375000D03*
D12*
X123444000Y-79375000D03*
X118999000Y-77375000D03*
D13*
X118999000Y-81375000D03*
D12*
X118999000Y-79375000D03*
X114554000Y-77343000D03*
D13*
X114554000Y-81343000D03*
D12*
X114554000Y-79343000D03*
D14*
X92671900Y-72377300D03*
D15*
X90131900Y-72377300D03*
X87591900Y-72377300D03*
D14*
X92671900Y-74917300D03*
D15*
X90131900Y-74917300D03*
X87591900Y-74917300D03*
D14*
X92671900Y-77457300D03*
D15*
X90131900Y-77457300D03*
X87591900Y-77457300D03*
D14*
X92671900Y-79997300D03*
D15*
X90131900Y-79997300D03*
X87591900Y-79997300D03*
D14*
X92671900Y-82537300D03*
D15*
X90131900Y-82537300D03*
X87591900Y-82537300D03*
D14*
X92671900Y-85077300D03*
D15*
X90131900Y-85077300D03*
X87591900Y-85077300D03*
D14*
X92671900Y-87617300D03*
D15*
X90131900Y-87617300D03*
X87591900Y-87617300D03*
D14*
X92671900Y-90157300D03*
D15*
X90131900Y-90157300D03*
X87591900Y-90157300D03*
D14*
X92671900Y-92697300D03*
D15*
X90131900Y-92697300D03*
X87591900Y-92697300D03*
D14*
X92671900Y-95237300D03*
D15*
X90131900Y-95237300D03*
X87591900Y-95237300D03*
D14*
X92671900Y-97777300D03*
D15*
X90131900Y-97777300D03*
X87591900Y-97777300D03*
D14*
X92671900Y-100317300D03*
D15*
X90131900Y-100317300D03*
X87591900Y-100317300D03*
D14*
X92671900Y-102857300D03*
D15*
X90131900Y-102857300D03*
X87591900Y-102857300D03*
D12*
X110807500Y-89233000D03*
X110807500Y-87233000D03*
D13*
X110807500Y-83233000D03*
D12*
X110807500Y-85233000D03*
D16*
X89052400Y-65481200D03*
X155092400Y-62306200D03*
X155092400Y-110566200D03*
X89052400Y-107391200D03*
D17*
X150012400Y-61036200D03*
D18*
X150012400Y-63576200D03*
X147472400Y-61036200D03*
X147472400Y-63576200D03*
X144932400Y-61036200D03*
X144932400Y-63576200D03*
X142392400Y-61036200D03*
X142392400Y-63576200D03*
X139852400Y-61036200D03*
X139852400Y-63576200D03*
X137312400Y-61036200D03*
X137312400Y-63576200D03*
X134772400Y-61036200D03*
X134772400Y-63576200D03*
X132232400Y-61036200D03*
X132232400Y-63576200D03*
X129692400Y-61036200D03*
X129692400Y-63576200D03*
X127152400Y-61036200D03*
X127152400Y-63576200D03*
X124612400Y-61036200D03*
X124612400Y-63576200D03*
X122072400Y-61036200D03*
X122072400Y-63576200D03*
X119532400Y-61036200D03*
X119532400Y-63576200D03*
X116992400Y-61036200D03*
X116992400Y-63576200D03*
X114452400Y-61036200D03*
X114452400Y-63576200D03*
X111912400Y-61036200D03*
X111912400Y-63576200D03*
X109372400Y-61036200D03*
X109372400Y-63576200D03*
X106832400Y-61036200D03*
X106832400Y-63576200D03*
X104292400Y-61036200D03*
X104292400Y-63576200D03*
X101752400Y-61036200D03*
X101752400Y-63576200D03*
X99212400Y-61036200D03*
X99212400Y-63576200D03*
X96672400Y-61036200D03*
X96672400Y-63576200D03*
X94132400Y-61036200D03*
X94132400Y-63576200D03*
D17*
X150012400Y-109296200D03*
D18*
X150012400Y-111836200D03*
X147472400Y-109296200D03*
X147472400Y-111836200D03*
X144932400Y-109296200D03*
X144932400Y-111836200D03*
X142392400Y-109296200D03*
X142392400Y-111836200D03*
X139852400Y-109296200D03*
X139852400Y-111836200D03*
X137312400Y-109296200D03*
X137312400Y-111836200D03*
X134772400Y-109296200D03*
X134772400Y-111836200D03*
X132232400Y-109296200D03*
X132232400Y-111836200D03*
X129692400Y-109296200D03*
X129692400Y-111836200D03*
X127152400Y-109296200D03*
X127152400Y-111836200D03*
X124612400Y-109296200D03*
X124612400Y-111836200D03*
X122072400Y-109296200D03*
X122072400Y-111836200D03*
X119532400Y-109296200D03*
X119532400Y-111836200D03*
X116992400Y-109296200D03*
X116992400Y-111836200D03*
X114452400Y-109296200D03*
X114452400Y-111836200D03*
X111912400Y-109296200D03*
X111912400Y-111836200D03*
X109372400Y-109296200D03*
X109372400Y-111836200D03*
X106832400Y-109296200D03*
X106832400Y-111836200D03*
X104292400Y-109296200D03*
X104292400Y-111836200D03*
X101752400Y-109296200D03*
X101752400Y-111836200D03*
X99212400Y-109296200D03*
X99212400Y-111836200D03*
X96672400Y-109296200D03*
X96672400Y-111836200D03*
X94132400Y-109296200D03*
X94132400Y-111836200D03*
D19*
X90119200Y-69837300D03*
D20*
X87579200Y-69837300D03*
D13*
X124142500Y-101489000D03*
D12*
X124142500Y-103489000D03*
D13*
X125539500Y-97536000D03*
D12*
X125539500Y-99536000D03*
D13*
X126936500Y-101473000D03*
D12*
X126936500Y-103473000D03*
D13*
X128333500Y-97536000D03*
D12*
X128333500Y-99536000D03*
D13*
X129730500Y-101473000D03*
D12*
X129730500Y-103473000D03*
D13*
X131127500Y-97536000D03*
D12*
X131127500Y-99536000D03*
D13*
X132524500Y-101473000D03*
D12*
X132524500Y-103473000D03*
D13*
X133921500Y-97536000D03*
D12*
X133921500Y-99536000D03*
D13*
X135318500Y-101505000D03*
D12*
X135318500Y-103505000D03*
D13*
X136779000Y-97536000D03*
D12*
X136779000Y-99536000D03*
D13*
X138112500Y-101536500D03*
D12*
X138112500Y-103536500D03*
D13*
X139509500Y-97536000D03*
D12*
X139509500Y-99536000D03*
D13*
X140906500Y-101552500D03*
D12*
X140906500Y-103552500D03*
D13*
X142367000Y-97536000D03*
D12*
X142367000Y-99536000D03*
D13*
X143700500Y-101552500D03*
D12*
X143700500Y-103552500D03*
D13*
X145161000Y-97536000D03*
D12*
X145161000Y-99536000D03*
D13*
X102044500Y-97904300D03*
D12*
X102044500Y-99904300D03*
D13*
X104127300Y-97904300D03*
D12*
X104127300Y-99904300D03*
D13*
X106222800Y-97904300D03*
D12*
X106222800Y-99904300D03*
D13*
X108254800Y-97904300D03*
D12*
X108254800Y-99904300D03*
D13*
X110337600Y-97920300D03*
D12*
X110337600Y-99920300D03*
D13*
X112369600Y-97936300D03*
D12*
X112369600Y-99936300D03*
D13*
X114439700Y-97920300D03*
D12*
X114439700Y-99920300D03*
D13*
X116471700Y-97929700D03*
D12*
X116471700Y-99929700D03*
D13*
X118491000Y-97904300D03*
D12*
X118491000Y-99904300D03*
D13*
X120523000Y-97920300D03*
D12*
X120523000Y-99920300D03*
D13*
X114998500Y-72961500D03*
D12*
X114998500Y-74961500D03*
D13*
X111950500Y-72961500D03*
D12*
X111950500Y-74961500D03*
D13*
X118046500Y-72961500D03*
D12*
X118046500Y-74961500D03*
D13*
X105854500Y-72961500D03*
D12*
X105854500Y-74961500D03*
D13*
X108902500Y-72961500D03*
D12*
X108902500Y-74961500D03*
D13*
X102997000Y-72961500D03*
D12*
X102997000Y-74961500D03*
D21*
X161823400Y-76657200D03*
X98412300Y-83489800D03*
X106476800Y-92252800D03*
X135077200Y-68834000D03*
X116014500Y-87232380D03*
X121539000Y-93218000D03*
X146812000Y-91567000D03*
X117602000Y-66992500D03*
X112522000Y-66018510D03*
X108204000Y-66992500D03*
X105156000Y-66992500D03*
X102298500Y-66992500D03*
X105600500Y-82296000D03*
X113284000Y-92265500D03*
X138366500Y-70231000D03*
X141732000Y-89408000D03*
X156019500Y-69342000D03*
X149733000Y-70294500D03*
X141414500Y-86614000D03*
X133667500Y-93662500D03*
X128079500Y-93599000D03*
X130238500Y-92075000D03*
X121412000Y-102997000D03*
X127804020Y-106294338D03*
X123380500Y-68834000D03*
X142875000Y-71310500D03*
X165036500Y-65722500D03*
X165036500Y-74612500D03*
X126809500Y-73025000D03*
X140081000Y-78740000D03*
X141683514Y-106296607D03*
X138890743Y-106295764D03*
X136096743Y-106295764D03*
X133302743Y-106295764D03*
X130508131Y-106293879D03*
X117348000Y-102997000D03*
X113220500Y-102997000D03*
X109093000Y-103060500D03*
X104965500Y-103060500D03*
X103124000Y-101790500D03*
X107251500Y-101727000D03*
X111379000Y-101727000D03*
X115506500Y-101727000D03*
X119634000Y-101663500D03*
X99314000Y-66992504D03*
X111252000Y-66992500D03*
X144478743Y-106295764D03*
X124909594Y-106272655D03*
X122504200Y-83388200D03*
X134518400Y-81864200D03*
X134543800Y-74371200D03*
X132588000Y-73914000D03*
X144460980Y-84137500D03*
X111315500Y-62293500D03*
X97917000Y-66738500D03*
X141351000Y-76962000D03*
X144462500Y-80708500D03*
X107467400Y-88087200D03*
X161607500Y-65278000D03*
X146870590Y-66659886D03*
X148374100Y-65519300D03*
X107467404Y-87249000D03*
X160337500Y-65849500D03*
X128828800Y-69570600D03*
X128079500Y-74146510D03*
X140462000Y-88646000D03*
X127762000Y-90741500D03*
X139255500Y-90741500D03*
X140970000Y-71755000D03*
X129286000Y-71755000D03*
X128460500Y-84391500D03*
X127508000Y-84391500D03*
X126492000Y-84391500D03*
X125349000Y-84391500D03*
X147980299Y-74680631D03*
X146097855Y-74368878D03*
X103060500Y-62993520D03*
X105791000Y-87757000D03*
X123698000Y-75565000D03*
X136525000Y-78803500D03*
X122483577Y-75001423D03*
X136525000Y-74993500D03*
X120022918Y-86669582D03*
X120022486Y-87447859D03*
X120015000Y-89026992D03*
X120022923Y-88257077D03*
X119907958Y-89852500D03*
X133921500Y-87947500D03*
X132588000Y-87934800D03*
X130365490Y-83693000D03*
X137858500Y-83693002D03*
X131038600Y-82931000D03*
X137858500Y-82942987D03*
D22*
X161823400Y-76657200D02*
X161823400Y-71678800D01*
X161823400Y-71678800D02*
X162775200Y-70727000D01*
X162775200Y-70727000D02*
X164566000Y-70727000D01*
X164566000Y-70727000D02*
X163516000Y-70727000D01*
X148145500Y-92773500D02*
X148145500Y-107427249D01*
X148145500Y-107427249D02*
X150018063Y-109299812D01*
X121539000Y-93218000D02*
X120586500Y-92265500D01*
X120586500Y-92265500D02*
X113284000Y-92265500D01*
X128460500Y-106934000D02*
X127820838Y-106294338D01*
X127820838Y-106294338D02*
X127804020Y-106294338D01*
X118046500Y-74961500D02*
X118046500Y-76422500D01*
X118046500Y-76422500D02*
X118999000Y-77375000D01*
X114998500Y-74961500D02*
X114998500Y-76898500D01*
X114998500Y-76898500D02*
X114554000Y-77343000D01*
X111950500Y-74961500D02*
X111950500Y-76022160D01*
X111950500Y-76022160D02*
X111518660Y-76454000D01*
X164566000Y-69227000D02*
X165616000Y-69227000D01*
X123825000Y-112966500D02*
X127889000Y-112966500D01*
X123190000Y-112331500D02*
X123825000Y-112966500D01*
X127889000Y-112966500D02*
X128460500Y-112395000D01*
X128460500Y-112395000D02*
X128460500Y-106934000D01*
X124909594Y-106272655D02*
X123190000Y-107992249D01*
X123190000Y-107992249D02*
X123190000Y-112331500D01*
D23*
X123444000Y-82625000D02*
X122680800Y-83388200D01*
X123444000Y-81375000D02*
X123444000Y-82625000D01*
X122680800Y-83388200D02*
X122504200Y-83388200D01*
X127635000Y-81375000D02*
X123444000Y-81375000D01*
X134518400Y-81864200D02*
X134162800Y-81508600D01*
X134162800Y-81508600D02*
X127762000Y-81508600D01*
X127762000Y-81508600D02*
X127660400Y-81407000D01*
X128161800Y-81375000D02*
X127635000Y-81375000D01*
X134543800Y-74371200D02*
X134086600Y-73914000D01*
X134086600Y-73914000D02*
X132588000Y-73914000D01*
X144462500Y-84135980D02*
X144460980Y-84137500D01*
X144462500Y-80708500D02*
X144462500Y-84135980D01*
X144462500Y-80708500D02*
X144462500Y-80073500D01*
X144462500Y-80073500D02*
X141351000Y-76962000D01*
X97917000Y-66738500D02*
X97917000Y-63042800D01*
X98666300Y-62293500D02*
X111315500Y-62293500D01*
X97917000Y-63042800D02*
X98666300Y-62293500D01*
D22*
X146870590Y-65929406D02*
X146870590Y-66235622D01*
X147830698Y-64969298D02*
X146870590Y-65929406D01*
X161607500Y-65278000D02*
X161298798Y-64969298D01*
X146870590Y-66235622D02*
X146870590Y-66659886D01*
X161298798Y-64969298D02*
X147830698Y-64969298D01*
X120726200Y-90982800D02*
X109938736Y-90982800D01*
X127158063Y-63579812D02*
X121921522Y-68816353D01*
X121921522Y-68816353D02*
X121921522Y-89787478D01*
X107467400Y-88511464D02*
X107467400Y-88087200D01*
X121921522Y-89787478D02*
X120726200Y-90982800D01*
X109938736Y-90982800D02*
X107467400Y-88511464D01*
X148798364Y-65519300D02*
X148374100Y-65519300D01*
X160007300Y-65519300D02*
X148798364Y-65519300D01*
X160337500Y-65849500D02*
X160007300Y-65519300D01*
X127158063Y-61039812D02*
X125984000Y-62213875D01*
X125984000Y-62213875D02*
X125984000Y-63881000D01*
X125984000Y-63881000D02*
X121571511Y-68293489D01*
X121571511Y-68293489D02*
X121571511Y-89502489D01*
X121571511Y-89502489D02*
X120553201Y-90520799D01*
X120553201Y-90520799D02*
X110180399Y-90520799D01*
X110180399Y-90520799D02*
X109448600Y-89789000D01*
X109448600Y-89789000D02*
X109448600Y-89230196D01*
X109448600Y-89230196D02*
X107467404Y-87249000D01*
X129286000Y-71755000D02*
X129286000Y-70027800D01*
X129286000Y-70027800D02*
X128828800Y-69570600D01*
X128079500Y-74146510D02*
X129286000Y-72940010D01*
X129286000Y-72940010D02*
X129286000Y-71755000D01*
X140652500Y-71755000D02*
X140970000Y-71755000D01*
X140462000Y-88646000D02*
X140761999Y-88346001D01*
X140761999Y-88346001D02*
X140761999Y-71864499D01*
X140761999Y-71864499D02*
X140652500Y-71755000D01*
X139255500Y-90741500D02*
X127762000Y-90741500D01*
X128460500Y-84391500D02*
X126936500Y-85915500D01*
X126936500Y-85915500D02*
X126936500Y-99568000D01*
X128333500Y-100965000D02*
X128333500Y-104140000D01*
X126936500Y-99568000D02*
X128333500Y-100965000D01*
X128333500Y-104140000D02*
X127190500Y-105283000D01*
X127190500Y-105283000D02*
X127190500Y-106727375D01*
X127190500Y-106727375D02*
X124618063Y-109299812D01*
X124460000Y-87439500D02*
X124460000Y-99949000D01*
X124460000Y-99949000D02*
X125539500Y-101028500D01*
X127508000Y-84391500D02*
X124460000Y-87439500D01*
X125539500Y-101028500D02*
X125539500Y-106549282D01*
X125539500Y-106549282D02*
X123634500Y-108454282D01*
X123634500Y-108454282D02*
X123634500Y-110856249D01*
X123634500Y-110856249D02*
X124618063Y-111839812D01*
X123921011Y-86962489D02*
X123921011Y-99598989D01*
X123063000Y-107251500D02*
X122047000Y-108267500D01*
X123921011Y-99598989D02*
X123063000Y-100457000D01*
X123063000Y-100457000D02*
X123063000Y-107251500D01*
X122047000Y-108267500D02*
X122047000Y-109268749D01*
X122047000Y-109268749D02*
X122078063Y-109299812D01*
X126492000Y-84391500D02*
X123921011Y-86962489D01*
X122078063Y-111839812D02*
X121031000Y-110792749D01*
X121031000Y-108712000D02*
X122682000Y-107061000D01*
X122682000Y-107061000D02*
X122682000Y-100203000D01*
X121031000Y-110792749D02*
X121031000Y-108712000D01*
X122682000Y-100203000D02*
X123380500Y-99504500D01*
X123380500Y-99504500D02*
X123380500Y-86360000D01*
X123380500Y-86360000D02*
X125349000Y-84391500D01*
X147980299Y-74680631D02*
X147303931Y-75356999D01*
X147303931Y-75356999D02*
X146032499Y-75356999D01*
X146032499Y-75356999D02*
X145415000Y-74739500D01*
X136017000Y-62278749D02*
X134778063Y-61039812D01*
X145415000Y-74739500D02*
X145415000Y-66294000D01*
X136779000Y-65024000D02*
X136017000Y-64262000D01*
X145415000Y-66294000D02*
X144145000Y-65024000D01*
X144145000Y-65024000D02*
X136779000Y-65024000D01*
X136017000Y-64262000D02*
X136017000Y-62278749D01*
X144296506Y-64579500D02*
X146097855Y-66380849D01*
X139382500Y-64579500D02*
X144296506Y-64579500D01*
X137318063Y-61039812D02*
X138557000Y-62278749D01*
X146097855Y-66380849D02*
X146097855Y-74368878D01*
X138557000Y-63754000D02*
X139382500Y-64579500D01*
X138557000Y-62278749D02*
X138557000Y-63754000D01*
X103060500Y-63944500D02*
X103060500Y-62993520D01*
X104457500Y-86423500D02*
X104457500Y-65341500D01*
X104457500Y-65341500D02*
X103060500Y-63944500D01*
X105791000Y-87757000D02*
X104457500Y-86423500D01*
X136525000Y-76454000D02*
X135636000Y-75565000D01*
X135636000Y-75565000D02*
X123698000Y-75565000D01*
X136525000Y-78803500D02*
X136525000Y-76454000D01*
X136092813Y-75001423D02*
X122483577Y-75001423D01*
X136100736Y-74993500D02*
X136092813Y-75001423D01*
X136525000Y-74993500D02*
X136100736Y-74993500D01*
X120022918Y-86669582D02*
X120086418Y-86669582D01*
X120853200Y-64414400D02*
X120853200Y-63004700D01*
X118251751Y-62293500D02*
X116998063Y-61039812D01*
X120086418Y-86669582D02*
X121221500Y-85534500D01*
X120853200Y-63004700D02*
X120142000Y-62293500D01*
X121221500Y-85534500D02*
X121221500Y-64782700D01*
X121221500Y-64782700D02*
X120853200Y-64414400D01*
X120142000Y-62293500D02*
X118251751Y-62293500D01*
X116998063Y-63579812D02*
X116840000Y-63737875D01*
X116840000Y-63737875D02*
X116840000Y-84265373D01*
X116840000Y-84265373D02*
X120022486Y-87447859D01*
X113728500Y-76136500D02*
X113347500Y-76517500D01*
X113728500Y-64833500D02*
X113728500Y-76136500D01*
X113347500Y-76517500D02*
X113347500Y-82359492D01*
X113411000Y-64516000D02*
X113728500Y-64833500D01*
X113411000Y-62103000D02*
X113411000Y-64516000D01*
X114458063Y-61039812D02*
X114458063Y-61055937D01*
X114458063Y-61055937D02*
X113411000Y-62103000D01*
X113347500Y-82359492D02*
X120015000Y-89026992D01*
X114458063Y-63579812D02*
X116205000Y-65326749D01*
X116205000Y-65326749D02*
X116205000Y-84439154D01*
X116205000Y-84439154D02*
X120022923Y-88257077D01*
X112966500Y-64833500D02*
X113220500Y-65087500D01*
X111918063Y-61039812D02*
X112966500Y-62088249D01*
X112839500Y-76263500D02*
X112839500Y-82784042D01*
X112966500Y-62088249D02*
X112966500Y-64833500D01*
X113220500Y-65087500D02*
X113220500Y-75882500D01*
X113220500Y-75882500D02*
X112839500Y-76263500D01*
X112839500Y-82784042D02*
X119907958Y-89852500D01*
X133921500Y-87947500D02*
X138557000Y-87947500D01*
X138557000Y-87947500D02*
X146939000Y-96329500D01*
X146939000Y-96329500D02*
X146939000Y-108775500D01*
X146939000Y-108775500D02*
X147463312Y-109299812D01*
X147463312Y-109299812D02*
X147478063Y-109299812D01*
X134823200Y-90170000D02*
X132588000Y-87934800D01*
X140081000Y-90170000D02*
X134823200Y-90170000D01*
X146367500Y-96456500D02*
X140081000Y-90170000D01*
X146367500Y-110729249D02*
X146367500Y-96456500D01*
X147478063Y-111839812D02*
X146367500Y-110729249D01*
X137858500Y-83693002D02*
X130365492Y-83693002D01*
X130365492Y-83693002D02*
X130365490Y-83693000D01*
X137858500Y-82942987D02*
X131050587Y-82942987D01*
X131050587Y-82942987D02*
X131038600Y-82931000D01*
G36*
X148842495Y-59695263D02*
X148671462Y-59866296D01*
X148578900Y-60089762D01*
X148578900Y-60702064D01*
X148448095Y-60385492D01*
X148124810Y-60061642D01*
X147702201Y-59886160D01*
X147244607Y-59885760D01*
X146821692Y-60060505D01*
X146497842Y-60383790D01*
X146322360Y-60806399D01*
X146321960Y-61263993D01*
X146496705Y-61686908D01*
X146819990Y-62010758D01*
X147242599Y-62186240D01*
X147700193Y-62186640D01*
X148123108Y-62011895D01*
X148446958Y-61688610D01*
X148578900Y-61370857D01*
X148578900Y-61982638D01*
X148671462Y-62206104D01*
X148842495Y-62377137D01*
X149065961Y-62469700D01*
X149384495Y-62469700D01*
X149329084Y-62675095D01*
X150012400Y-63358411D01*
X150695716Y-62675095D01*
X150640305Y-62469700D01*
X150958839Y-62469700D01*
X151182305Y-62377137D01*
X151353338Y-62206104D01*
X151445900Y-61982638D01*
X151445900Y-61342200D01*
X151293900Y-61190200D01*
X150166400Y-61190200D01*
X150166400Y-61210200D01*
X149858400Y-61210200D01*
X149858400Y-61190200D01*
X149838400Y-61190200D01*
X149838400Y-60882200D01*
X149858400Y-60882200D01*
X149858400Y-60862200D01*
X150166400Y-60862200D01*
X150166400Y-60882200D01*
X151293900Y-60882200D01*
X151445900Y-60730200D01*
X151445900Y-60089762D01*
X151353338Y-59866296D01*
X151182305Y-59695263D01*
X151178049Y-59693500D01*
X154120075Y-59693500D01*
X153516319Y-59942967D01*
X152731921Y-60725997D01*
X152306885Y-61749599D01*
X152305917Y-62857938D01*
X152729167Y-63882281D01*
X153215335Y-64369298D01*
X151023290Y-64369298D01*
X150913507Y-64259515D01*
X151133294Y-64200222D01*
X151286774Y-63723774D01*
X151246242Y-63224858D01*
X151133294Y-62952178D01*
X150913505Y-62892884D01*
X150230189Y-63576200D01*
X150244331Y-63590342D01*
X150026542Y-63808131D01*
X150012400Y-63793989D01*
X149998258Y-63808131D01*
X149780469Y-63590342D01*
X149794611Y-63576200D01*
X149111295Y-62892884D01*
X148891506Y-62952178D01*
X148738026Y-63428626D01*
X148778558Y-63927542D01*
X148891506Y-64200222D01*
X149111293Y-64259515D01*
X149001510Y-64369298D01*
X148306024Y-64369298D01*
X148446958Y-64228610D01*
X148622440Y-63806001D01*
X148622840Y-63348407D01*
X148448095Y-62925492D01*
X148124810Y-62601642D01*
X147702201Y-62426160D01*
X147244607Y-62425760D01*
X146821692Y-62600505D01*
X146497842Y-62923790D01*
X146322360Y-63346399D01*
X146321960Y-63803993D01*
X146496705Y-64226908D01*
X146819990Y-64550758D01*
X147230325Y-64721143D01*
X146446326Y-65505142D01*
X146316262Y-65699796D01*
X146307812Y-65742278D01*
X145253585Y-64688051D01*
X145583108Y-64551895D01*
X145906958Y-64228610D01*
X146082440Y-63806001D01*
X146082840Y-63348407D01*
X145908095Y-62925492D01*
X145584810Y-62601642D01*
X145162201Y-62426160D01*
X144704607Y-62425760D01*
X144281692Y-62600505D01*
X143957842Y-62923790D01*
X143782360Y-63346399D01*
X143781960Y-63803993D01*
X143854478Y-63979500D01*
X143470397Y-63979500D01*
X143542440Y-63806001D01*
X143542840Y-63348407D01*
X143368095Y-62925492D01*
X143044810Y-62601642D01*
X142622201Y-62426160D01*
X142164607Y-62425760D01*
X141741692Y-62600505D01*
X141417842Y-62923790D01*
X141242360Y-63346399D01*
X141241960Y-63803993D01*
X141314478Y-63979500D01*
X140930397Y-63979500D01*
X141002440Y-63806001D01*
X141002840Y-63348407D01*
X140828095Y-62925492D01*
X140504810Y-62601642D01*
X140082201Y-62426160D01*
X139624607Y-62425760D01*
X139201692Y-62600505D01*
X139157000Y-62645119D01*
X139157000Y-62278749D01*
X139111328Y-62049139D01*
X138981264Y-61854485D01*
X138442002Y-61315223D01*
X138462440Y-61266001D01*
X138462441Y-61263993D01*
X138701960Y-61263993D01*
X138876705Y-61686908D01*
X139199990Y-62010758D01*
X139622599Y-62186240D01*
X140080193Y-62186640D01*
X140503108Y-62011895D01*
X140826958Y-61688610D01*
X141002440Y-61266001D01*
X141002441Y-61263993D01*
X141241960Y-61263993D01*
X141416705Y-61686908D01*
X141739990Y-62010758D01*
X142162599Y-62186240D01*
X142620193Y-62186640D01*
X143043108Y-62011895D01*
X143366958Y-61688610D01*
X143542440Y-61266001D01*
X143542441Y-61263993D01*
X143781960Y-61263993D01*
X143956705Y-61686908D01*
X144279990Y-62010758D01*
X144702599Y-62186240D01*
X145160193Y-62186640D01*
X145583108Y-62011895D01*
X145906958Y-61688610D01*
X146082440Y-61266001D01*
X146082840Y-60808407D01*
X145908095Y-60385492D01*
X145584810Y-60061642D01*
X145162201Y-59886160D01*
X144704607Y-59885760D01*
X144281692Y-60060505D01*
X143957842Y-60383790D01*
X143782360Y-60806399D01*
X143781960Y-61263993D01*
X143542441Y-61263993D01*
X143542840Y-60808407D01*
X143368095Y-60385492D01*
X143044810Y-60061642D01*
X142622201Y-59886160D01*
X142164607Y-59885760D01*
X141741692Y-60060505D01*
X141417842Y-60383790D01*
X141242360Y-60806399D01*
X141241960Y-61263993D01*
X141002441Y-61263993D01*
X141002840Y-60808407D01*
X140828095Y-60385492D01*
X140504810Y-60061642D01*
X140082201Y-59886160D01*
X139624607Y-59885760D01*
X139201692Y-60060505D01*
X138877842Y-60383790D01*
X138702360Y-60806399D01*
X138701960Y-61263993D01*
X138462441Y-61263993D01*
X138462840Y-60808407D01*
X138288095Y-60385492D01*
X137964810Y-60061642D01*
X137542201Y-59886160D01*
X137084607Y-59885760D01*
X136661692Y-60060505D01*
X136337842Y-60383790D01*
X136162360Y-60806399D01*
X136161960Y-61263993D01*
X136336705Y-61686908D01*
X136659990Y-62010758D01*
X137082599Y-62186240D01*
X137540193Y-62186640D01*
X137594092Y-62164369D01*
X137957000Y-62527277D01*
X137957000Y-62598399D01*
X137542201Y-62426160D01*
X137084607Y-62425760D01*
X136661692Y-62600505D01*
X136617000Y-62645119D01*
X136617000Y-62278749D01*
X136571328Y-62049139D01*
X136441264Y-61854485D01*
X135902002Y-61315223D01*
X135922440Y-61266001D01*
X135922840Y-60808407D01*
X135748095Y-60385492D01*
X135424810Y-60061642D01*
X135002201Y-59886160D01*
X134544607Y-59885760D01*
X134121692Y-60060505D01*
X133797842Y-60383790D01*
X133622360Y-60806399D01*
X133621960Y-61263993D01*
X133796705Y-61686908D01*
X134119990Y-62010758D01*
X134542599Y-62186240D01*
X135000193Y-62186640D01*
X135054092Y-62164369D01*
X135417000Y-62527277D01*
X135417000Y-62598399D01*
X135002201Y-62426160D01*
X134544607Y-62425760D01*
X134121692Y-62600505D01*
X133797842Y-62923790D01*
X133622360Y-63346399D01*
X133621960Y-63803993D01*
X133796705Y-64226908D01*
X134119990Y-64550758D01*
X134542599Y-64726240D01*
X135000193Y-64726640D01*
X135423108Y-64551895D01*
X135471005Y-64504081D01*
X135592736Y-64686264D01*
X136354736Y-65448264D01*
X136549390Y-65578328D01*
X136779000Y-65624000D01*
X143896472Y-65624000D01*
X144815000Y-66542528D01*
X144815000Y-74739500D01*
X144860672Y-74969110D01*
X144990736Y-75163764D01*
X145608235Y-75781263D01*
X145802888Y-75911327D01*
X146032499Y-75956999D01*
X147303931Y-75956999D01*
X147533541Y-75911327D01*
X147728195Y-75781263D01*
X148028784Y-75480674D01*
X148138731Y-75480770D01*
X148432871Y-75359234D01*
X148658111Y-75134386D01*
X148780160Y-74840459D01*
X148780438Y-74522199D01*
X148658902Y-74228059D01*
X148434054Y-74002819D01*
X148140127Y-73880770D01*
X147821867Y-73880492D01*
X147527727Y-74002028D01*
X147302487Y-74226876D01*
X147180438Y-74520803D01*
X147180341Y-74632061D01*
X147055403Y-74756999D01*
X146802921Y-74756999D01*
X146897716Y-74528706D01*
X146897994Y-74210446D01*
X146776458Y-73916306D01*
X146697855Y-73837566D01*
X146697855Y-68756062D01*
X162558000Y-68756062D01*
X162558000Y-68921000D01*
X162710000Y-69073000D01*
X164412000Y-69073000D01*
X164412000Y-68421000D01*
X164720000Y-68421000D01*
X164720000Y-69073000D01*
X166422000Y-69073000D01*
X166574000Y-68921000D01*
X166574000Y-68756062D01*
X166481438Y-68532596D01*
X166310405Y-68361563D01*
X166086939Y-68269000D01*
X164872000Y-68269000D01*
X164720000Y-68421000D01*
X164412000Y-68421000D01*
X164260000Y-68269000D01*
X163045061Y-68269000D01*
X162821595Y-68361563D01*
X162650562Y-68532596D01*
X162558000Y-68756062D01*
X146697855Y-68756062D01*
X146697855Y-67454388D01*
X146710762Y-67459747D01*
X147029022Y-67460025D01*
X147323162Y-67338489D01*
X147548402Y-67113641D01*
X147670451Y-66819714D01*
X147670729Y-66501454D01*
X147549193Y-66207314D01*
X147495249Y-66153275D01*
X147689987Y-65958537D01*
X147695497Y-65971872D01*
X147920345Y-66197112D01*
X148214272Y-66319161D01*
X148532532Y-66319439D01*
X148826672Y-66197903D01*
X148905412Y-66119300D01*
X159583377Y-66119300D01*
X159658897Y-66302072D01*
X159883745Y-66527312D01*
X160177672Y-66649361D01*
X160495932Y-66649639D01*
X160790072Y-66528103D01*
X161015312Y-66303255D01*
X161137361Y-66009328D01*
X161137422Y-65939461D01*
X161153745Y-65955812D01*
X161447672Y-66077861D01*
X161765932Y-66078139D01*
X162060072Y-65956603D01*
X162285312Y-65731755D01*
X162407361Y-65437828D01*
X162407639Y-65119568D01*
X162286103Y-64825428D01*
X162061255Y-64600188D01*
X161767328Y-64478139D01*
X161622758Y-64478013D01*
X161528408Y-64414970D01*
X161298798Y-64369298D01*
X156969140Y-64369298D01*
X157452879Y-63886403D01*
X157877915Y-62862801D01*
X157878883Y-61754462D01*
X157455633Y-60730119D01*
X156672603Y-59945721D01*
X156065186Y-59693500D01*
X163328865Y-59693500D01*
X165591185Y-60143502D01*
X167461076Y-61392924D01*
X168710496Y-63262813D01*
X169160500Y-65525135D01*
X169160500Y-79117500D01*
X149288500Y-79117500D01*
X149068457Y-79161269D01*
X148881914Y-79285914D01*
X148757269Y-79472457D01*
X148713500Y-79692500D01*
X148713500Y-98234500D01*
X148757269Y-98454543D01*
X148881914Y-98641086D01*
X149068457Y-98765731D01*
X149288500Y-98809500D01*
X162175500Y-98809500D01*
X162175500Y-113153500D01*
X156126198Y-113153500D01*
X156668481Y-112929433D01*
X157452879Y-112146403D01*
X157877915Y-111122801D01*
X157878883Y-110014462D01*
X157455633Y-108990119D01*
X156672603Y-108205721D01*
X155649001Y-107780685D01*
X154540662Y-107779717D01*
X153516319Y-108202967D01*
X152731921Y-108985997D01*
X152306885Y-110009599D01*
X152305917Y-111117938D01*
X152729167Y-112142281D01*
X153512197Y-112926679D01*
X154058444Y-113153500D01*
X96132130Y-113153500D01*
X94663410Y-112861353D01*
X94783108Y-112811895D01*
X95106958Y-112488610D01*
X95282440Y-112066001D01*
X95282441Y-112063993D01*
X95521960Y-112063993D01*
X95696705Y-112486908D01*
X96019990Y-112810758D01*
X96442599Y-112986240D01*
X96900193Y-112986640D01*
X97323108Y-112811895D01*
X97646958Y-112488610D01*
X97822440Y-112066001D01*
X97822441Y-112063993D01*
X98061960Y-112063993D01*
X98236705Y-112486908D01*
X98559990Y-112810758D01*
X98982599Y-112986240D01*
X99440193Y-112986640D01*
X99863108Y-112811895D01*
X100186958Y-112488610D01*
X100362440Y-112066001D01*
X100362441Y-112063993D01*
X100601960Y-112063993D01*
X100776705Y-112486908D01*
X101099990Y-112810758D01*
X101522599Y-112986240D01*
X101980193Y-112986640D01*
X102403108Y-112811895D01*
X102726958Y-112488610D01*
X102902440Y-112066001D01*
X102902441Y-112063993D01*
X103141960Y-112063993D01*
X103316705Y-112486908D01*
X103639990Y-112810758D01*
X104062599Y-112986240D01*
X104520193Y-112986640D01*
X104943108Y-112811895D01*
X105266958Y-112488610D01*
X105442440Y-112066001D01*
X105442441Y-112063993D01*
X105681960Y-112063993D01*
X105856705Y-112486908D01*
X106179990Y-112810758D01*
X106602599Y-112986240D01*
X107060193Y-112986640D01*
X107483108Y-112811895D01*
X107806958Y-112488610D01*
X107982440Y-112066001D01*
X107982441Y-112063993D01*
X108221960Y-112063993D01*
X108396705Y-112486908D01*
X108719990Y-112810758D01*
X109142599Y-112986240D01*
X109600193Y-112986640D01*
X110023108Y-112811895D01*
X110346958Y-112488610D01*
X110522440Y-112066001D01*
X110522441Y-112063993D01*
X110761960Y-112063993D01*
X110936705Y-112486908D01*
X111259990Y-112810758D01*
X111682599Y-112986240D01*
X112140193Y-112986640D01*
X112563108Y-112811895D01*
X112886958Y-112488610D01*
X113062440Y-112066001D01*
X113062441Y-112063993D01*
X113301960Y-112063993D01*
X113476705Y-112486908D01*
X113799990Y-112810758D01*
X114222599Y-112986240D01*
X114680193Y-112986640D01*
X115103108Y-112811895D01*
X115426958Y-112488610D01*
X115602440Y-112066001D01*
X115602441Y-112063993D01*
X115841960Y-112063993D01*
X116016705Y-112486908D01*
X116339990Y-112810758D01*
X116762599Y-112986240D01*
X117220193Y-112986640D01*
X117643108Y-112811895D01*
X117966958Y-112488610D01*
X118142440Y-112066001D01*
X118142441Y-112063993D01*
X118381960Y-112063993D01*
X118556705Y-112486908D01*
X118879990Y-112810758D01*
X119302599Y-112986240D01*
X119760193Y-112986640D01*
X120183108Y-112811895D01*
X120506958Y-112488610D01*
X120682440Y-112066001D01*
X120682840Y-111608407D01*
X120508095Y-111185492D01*
X120184810Y-110861642D01*
X119762201Y-110686160D01*
X119304607Y-110685760D01*
X118881692Y-110860505D01*
X118557842Y-111183790D01*
X118382360Y-111606399D01*
X118381960Y-112063993D01*
X118142441Y-112063993D01*
X118142840Y-111608407D01*
X117968095Y-111185492D01*
X117644810Y-110861642D01*
X117222201Y-110686160D01*
X116764607Y-110685760D01*
X116341692Y-110860505D01*
X116017842Y-111183790D01*
X115842360Y-111606399D01*
X115841960Y-112063993D01*
X115602441Y-112063993D01*
X115602840Y-111608407D01*
X115428095Y-111185492D01*
X115104810Y-110861642D01*
X114682201Y-110686160D01*
X114224607Y-110685760D01*
X113801692Y-110860505D01*
X113477842Y-111183790D01*
X113302360Y-111606399D01*
X113301960Y-112063993D01*
X113062441Y-112063993D01*
X113062840Y-111608407D01*
X112888095Y-111185492D01*
X112564810Y-110861642D01*
X112142201Y-110686160D01*
X111684607Y-110685760D01*
X111261692Y-110860505D01*
X110937842Y-111183790D01*
X110762360Y-111606399D01*
X110761960Y-112063993D01*
X110522441Y-112063993D01*
X110522840Y-111608407D01*
X110348095Y-111185492D01*
X110024810Y-110861642D01*
X109602201Y-110686160D01*
X109144607Y-110685760D01*
X108721692Y-110860505D01*
X108397842Y-111183790D01*
X108222360Y-111606399D01*
X108221960Y-112063993D01*
X107982441Y-112063993D01*
X107982840Y-111608407D01*
X107808095Y-111185492D01*
X107484810Y-110861642D01*
X107062201Y-110686160D01*
X106604607Y-110685760D01*
X106181692Y-110860505D01*
X105857842Y-111183790D01*
X105682360Y-111606399D01*
X105681960Y-112063993D01*
X105442441Y-112063993D01*
X105442840Y-111608407D01*
X105268095Y-111185492D01*
X104944810Y-110861642D01*
X104522201Y-110686160D01*
X104064607Y-110685760D01*
X103641692Y-110860505D01*
X103317842Y-111183790D01*
X103142360Y-111606399D01*
X103141960Y-112063993D01*
X102902441Y-112063993D01*
X102902840Y-111608407D01*
X102728095Y-111185492D01*
X102404810Y-110861642D01*
X101982201Y-110686160D01*
X101524607Y-110685760D01*
X101101692Y-110860505D01*
X100777842Y-111183790D01*
X100602360Y-111606399D01*
X100601960Y-112063993D01*
X100362441Y-112063993D01*
X100362840Y-111608407D01*
X100188095Y-111185492D01*
X99864810Y-110861642D01*
X99442201Y-110686160D01*
X98984607Y-110685760D01*
X98561692Y-110860505D01*
X98237842Y-111183790D01*
X98062360Y-111606399D01*
X98061960Y-112063993D01*
X97822441Y-112063993D01*
X97822840Y-111608407D01*
X97648095Y-111185492D01*
X97324810Y-110861642D01*
X96902201Y-110686160D01*
X96444607Y-110685760D01*
X96021692Y-110860505D01*
X95697842Y-111183790D01*
X95522360Y-111606399D01*
X95521960Y-112063993D01*
X95282441Y-112063993D01*
X95282840Y-111608407D01*
X95108095Y-111185492D01*
X94784810Y-110861642D01*
X94362201Y-110686160D01*
X93904607Y-110685760D01*
X93481692Y-110860505D01*
X93157842Y-111183790D01*
X92982360Y-111606399D01*
X92981960Y-112063993D01*
X93156705Y-112486908D01*
X93249803Y-112580169D01*
X91439773Y-112220131D01*
X88194089Y-110051434D01*
X88495799Y-110176715D01*
X89604138Y-110177683D01*
X90628481Y-109754433D01*
X90859323Y-109523993D01*
X92981960Y-109523993D01*
X93156705Y-109946908D01*
X93479990Y-110270758D01*
X93902599Y-110446240D01*
X94360193Y-110446640D01*
X94783108Y-110271895D01*
X95106958Y-109948610D01*
X95282440Y-109526001D01*
X95282441Y-109523993D01*
X95521960Y-109523993D01*
X95696705Y-109946908D01*
X96019990Y-110270758D01*
X96442599Y-110446240D01*
X96900193Y-110446640D01*
X97323108Y-110271895D01*
X97646958Y-109948610D01*
X97822440Y-109526001D01*
X97822441Y-109523993D01*
X98061960Y-109523993D01*
X98236705Y-109946908D01*
X98559990Y-110270758D01*
X98982599Y-110446240D01*
X99440193Y-110446640D01*
X99863108Y-110271895D01*
X100186958Y-109948610D01*
X100362440Y-109526001D01*
X100362441Y-109523993D01*
X100601960Y-109523993D01*
X100776705Y-109946908D01*
X101099990Y-110270758D01*
X101522599Y-110446240D01*
X101980193Y-110446640D01*
X102403108Y-110271895D01*
X102726958Y-109948610D01*
X102902440Y-109526001D01*
X102902441Y-109523993D01*
X103141960Y-109523993D01*
X103316705Y-109946908D01*
X103639990Y-110270758D01*
X104062599Y-110446240D01*
X104520193Y-110446640D01*
X104943108Y-110271895D01*
X105266958Y-109948610D01*
X105442440Y-109526001D01*
X105442441Y-109523993D01*
X105681960Y-109523993D01*
X105856705Y-109946908D01*
X106179990Y-110270758D01*
X106602599Y-110446240D01*
X107060193Y-110446640D01*
X107483108Y-110271895D01*
X107806958Y-109948610D01*
X107982440Y-109526001D01*
X107982441Y-109523993D01*
X108221960Y-109523993D01*
X108396705Y-109946908D01*
X108719990Y-110270758D01*
X109142599Y-110446240D01*
X109600193Y-110446640D01*
X110023108Y-110271895D01*
X110346958Y-109948610D01*
X110522440Y-109526001D01*
X110522441Y-109523993D01*
X110761960Y-109523993D01*
X110936705Y-109946908D01*
X111259990Y-110270758D01*
X111682599Y-110446240D01*
X112140193Y-110446640D01*
X112563108Y-110271895D01*
X112886958Y-109948610D01*
X113062440Y-109526001D01*
X113062441Y-109523993D01*
X113301960Y-109523993D01*
X113476705Y-109946908D01*
X113799990Y-110270758D01*
X114222599Y-110446240D01*
X114680193Y-110446640D01*
X115103108Y-110271895D01*
X115426958Y-109948610D01*
X115602440Y-109526001D01*
X115602441Y-109523993D01*
X115841960Y-109523993D01*
X116016705Y-109946908D01*
X116339990Y-110270758D01*
X116762599Y-110446240D01*
X117220193Y-110446640D01*
X117643108Y-110271895D01*
X117966958Y-109948610D01*
X118142440Y-109526001D01*
X118142441Y-109523993D01*
X118381960Y-109523993D01*
X118556705Y-109946908D01*
X118879990Y-110270758D01*
X119302599Y-110446240D01*
X119760193Y-110446640D01*
X120183108Y-110271895D01*
X120431000Y-110024435D01*
X120431000Y-110792749D01*
X120476672Y-111022359D01*
X120606736Y-111217013D01*
X120944002Y-111554279D01*
X120922360Y-111606399D01*
X120921960Y-112063993D01*
X121096705Y-112486908D01*
X121419990Y-112810758D01*
X121842599Y-112986240D01*
X122300193Y-112986640D01*
X122723108Y-112811895D01*
X123046958Y-112488610D01*
X123222440Y-112066001D01*
X123222840Y-111608407D01*
X123048095Y-111185492D01*
X122724810Y-110861642D01*
X122302201Y-110686160D01*
X121844607Y-110685760D01*
X121793610Y-110706831D01*
X121631000Y-110544221D01*
X121631000Y-110358377D01*
X121842599Y-110446240D01*
X122300193Y-110446640D01*
X122723108Y-110271895D01*
X123034500Y-109961046D01*
X123034500Y-110856249D01*
X123080172Y-111085859D01*
X123210236Y-111280513D01*
X123484002Y-111554279D01*
X123462360Y-111606399D01*
X123461960Y-112063993D01*
X123636705Y-112486908D01*
X123959990Y-112810758D01*
X124382599Y-112986240D01*
X124840193Y-112986640D01*
X125263108Y-112811895D01*
X125586958Y-112488610D01*
X125762440Y-112066001D01*
X125762441Y-112063993D01*
X126001960Y-112063993D01*
X126176705Y-112486908D01*
X126499990Y-112810758D01*
X126922599Y-112986240D01*
X127380193Y-112986640D01*
X127803108Y-112811895D01*
X128126958Y-112488610D01*
X128302440Y-112066001D01*
X128302441Y-112063993D01*
X128541960Y-112063993D01*
X128716705Y-112486908D01*
X129039990Y-112810758D01*
X129462599Y-112986240D01*
X129920193Y-112986640D01*
X130343108Y-112811895D01*
X130666958Y-112488610D01*
X130842440Y-112066001D01*
X130842441Y-112063993D01*
X131081960Y-112063993D01*
X131256705Y-112486908D01*
X131579990Y-112810758D01*
X132002599Y-112986240D01*
X132460193Y-112986640D01*
X132883108Y-112811895D01*
X133206958Y-112488610D01*
X133382440Y-112066001D01*
X133382441Y-112063993D01*
X133621960Y-112063993D01*
X133796705Y-112486908D01*
X134119990Y-112810758D01*
X134542599Y-112986240D01*
X135000193Y-112986640D01*
X135423108Y-112811895D01*
X135746958Y-112488610D01*
X135922440Y-112066001D01*
X135922441Y-112063993D01*
X136161960Y-112063993D01*
X136336705Y-112486908D01*
X136659990Y-112810758D01*
X137082599Y-112986240D01*
X137540193Y-112986640D01*
X137963108Y-112811895D01*
X138286958Y-112488610D01*
X138462440Y-112066001D01*
X138462441Y-112063993D01*
X138701960Y-112063993D01*
X138876705Y-112486908D01*
X139199990Y-112810758D01*
X139622599Y-112986240D01*
X140080193Y-112986640D01*
X140503108Y-112811895D01*
X140826958Y-112488610D01*
X141002440Y-112066001D01*
X141002441Y-112063993D01*
X141241960Y-112063993D01*
X141416705Y-112486908D01*
X141739990Y-112810758D01*
X142162599Y-112986240D01*
X142620193Y-112986640D01*
X143043108Y-112811895D01*
X143366958Y-112488610D01*
X143542440Y-112066001D01*
X143542441Y-112063993D01*
X143781960Y-112063993D01*
X143956705Y-112486908D01*
X144279990Y-112810758D01*
X144702599Y-112986240D01*
X145160193Y-112986640D01*
X145583108Y-112811895D01*
X145906958Y-112488610D01*
X146082440Y-112066001D01*
X146082840Y-111608407D01*
X145908095Y-111185492D01*
X145584810Y-110861642D01*
X145162201Y-110686160D01*
X144704607Y-110685760D01*
X144281692Y-110860505D01*
X143957842Y-111183790D01*
X143782360Y-111606399D01*
X143781960Y-112063993D01*
X143542441Y-112063993D01*
X143542840Y-111608407D01*
X143368095Y-111185492D01*
X143044810Y-110861642D01*
X142622201Y-110686160D01*
X142164607Y-110685760D01*
X141741692Y-110860505D01*
X141417842Y-111183790D01*
X141242360Y-111606399D01*
X141241960Y-112063993D01*
X141002441Y-112063993D01*
X141002840Y-111608407D01*
X140828095Y-111185492D01*
X140504810Y-110861642D01*
X140082201Y-110686160D01*
X139624607Y-110685760D01*
X139201692Y-110860505D01*
X138877842Y-111183790D01*
X138702360Y-111606399D01*
X138701960Y-112063993D01*
X138462441Y-112063993D01*
X138462840Y-111608407D01*
X138288095Y-111185492D01*
X137964810Y-110861642D01*
X137542201Y-110686160D01*
X137084607Y-110685760D01*
X136661692Y-110860505D01*
X136337842Y-111183790D01*
X136162360Y-111606399D01*
X136161960Y-112063993D01*
X135922441Y-112063993D01*
X135922840Y-111608407D01*
X135748095Y-111185492D01*
X135424810Y-110861642D01*
X135002201Y-110686160D01*
X134544607Y-110685760D01*
X134121692Y-110860505D01*
X133797842Y-111183790D01*
X133622360Y-111606399D01*
X133621960Y-112063993D01*
X133382441Y-112063993D01*
X133382840Y-111608407D01*
X133208095Y-111185492D01*
X132884810Y-110861642D01*
X132462201Y-110686160D01*
X132004607Y-110685760D01*
X131581692Y-110860505D01*
X131257842Y-111183790D01*
X131082360Y-111606399D01*
X131081960Y-112063993D01*
X130842441Y-112063993D01*
X130842840Y-111608407D01*
X130668095Y-111185492D01*
X130344810Y-110861642D01*
X129922201Y-110686160D01*
X129464607Y-110685760D01*
X129041692Y-110860505D01*
X128717842Y-111183790D01*
X128542360Y-111606399D01*
X128541960Y-112063993D01*
X128302441Y-112063993D01*
X128302840Y-111608407D01*
X128128095Y-111185492D01*
X127804810Y-110861642D01*
X127382201Y-110686160D01*
X126924607Y-110685760D01*
X126501692Y-110860505D01*
X126177842Y-111183790D01*
X126002360Y-111606399D01*
X126001960Y-112063993D01*
X125762441Y-112063993D01*
X125762840Y-111608407D01*
X125588095Y-111185492D01*
X125264810Y-110861642D01*
X124842201Y-110686160D01*
X124384607Y-110685760D01*
X124333610Y-110706831D01*
X124234500Y-110607721D01*
X124234500Y-110384744D01*
X124382599Y-110446240D01*
X124840193Y-110446640D01*
X125263108Y-110271895D01*
X125586958Y-109948610D01*
X125762440Y-109526001D01*
X125762441Y-109523993D01*
X126001960Y-109523993D01*
X126176705Y-109946908D01*
X126499990Y-110270758D01*
X126922599Y-110446240D01*
X127380193Y-110446640D01*
X127803108Y-110271895D01*
X128126958Y-109948610D01*
X128302440Y-109526001D01*
X128302441Y-109523993D01*
X128541960Y-109523993D01*
X128716705Y-109946908D01*
X129039990Y-110270758D01*
X129462599Y-110446240D01*
X129920193Y-110446640D01*
X130343108Y-110271895D01*
X130666958Y-109948610D01*
X130842440Y-109526001D01*
X130842441Y-109523993D01*
X131081960Y-109523993D01*
X131256705Y-109946908D01*
X131579990Y-110270758D01*
X132002599Y-110446240D01*
X132460193Y-110446640D01*
X132883108Y-110271895D01*
X133206958Y-109948610D01*
X133382440Y-109526001D01*
X133382441Y-109523993D01*
X133621960Y-109523993D01*
X133796705Y-109946908D01*
X134119990Y-110270758D01*
X134542599Y-110446240D01*
X135000193Y-110446640D01*
X135423108Y-110271895D01*
X135746958Y-109948610D01*
X135922440Y-109526001D01*
X135922441Y-109523993D01*
X136161960Y-109523993D01*
X136336705Y-109946908D01*
X136659990Y-110270758D01*
X137082599Y-110446240D01*
X137540193Y-110446640D01*
X137963108Y-110271895D01*
X138286958Y-109948610D01*
X138462440Y-109526001D01*
X138462441Y-109523993D01*
X138701960Y-109523993D01*
X138876705Y-109946908D01*
X139199990Y-110270758D01*
X139622599Y-110446240D01*
X140080193Y-110446640D01*
X140503108Y-110271895D01*
X140826958Y-109948610D01*
X141002440Y-109526001D01*
X141002441Y-109523993D01*
X141241960Y-109523993D01*
X141416705Y-109946908D01*
X141739990Y-110270758D01*
X142162599Y-110446240D01*
X142620193Y-110446640D01*
X143043108Y-110271895D01*
X143366958Y-109948610D01*
X143542440Y-109526001D01*
X143542840Y-109068407D01*
X143368095Y-108645492D01*
X143044810Y-108321642D01*
X142622201Y-108146160D01*
X142164607Y-108145760D01*
X141741692Y-108320505D01*
X141417842Y-108643790D01*
X141242360Y-109066399D01*
X141241960Y-109523993D01*
X141002441Y-109523993D01*
X141002840Y-109068407D01*
X140828095Y-108645492D01*
X140504810Y-108321642D01*
X140082201Y-108146160D01*
X139624607Y-108145760D01*
X139201692Y-108320505D01*
X138877842Y-108643790D01*
X138702360Y-109066399D01*
X138701960Y-109523993D01*
X138462441Y-109523993D01*
X138462840Y-109068407D01*
X138288095Y-108645492D01*
X137964810Y-108321642D01*
X137542201Y-108146160D01*
X137084607Y-108145760D01*
X136661692Y-108320505D01*
X136337842Y-108643790D01*
X136162360Y-109066399D01*
X136161960Y-109523993D01*
X135922441Y-109523993D01*
X135922840Y-109068407D01*
X135748095Y-108645492D01*
X135424810Y-108321642D01*
X135002201Y-108146160D01*
X134544607Y-108145760D01*
X134121692Y-108320505D01*
X133797842Y-108643790D01*
X133622360Y-109066399D01*
X133621960Y-109523993D01*
X133382441Y-109523993D01*
X133382840Y-109068407D01*
X133208095Y-108645492D01*
X132884810Y-108321642D01*
X132462201Y-108146160D01*
X132004607Y-108145760D01*
X131581692Y-108320505D01*
X131257842Y-108643790D01*
X131082360Y-109066399D01*
X131081960Y-109523993D01*
X130842441Y-109523993D01*
X130842840Y-109068407D01*
X130668095Y-108645492D01*
X130344810Y-108321642D01*
X129922201Y-108146160D01*
X129464607Y-108145760D01*
X129041692Y-108320505D01*
X128717842Y-108643790D01*
X128542360Y-109066399D01*
X128541960Y-109523993D01*
X128302441Y-109523993D01*
X128302840Y-109068407D01*
X128128095Y-108645492D01*
X127804810Y-108321642D01*
X127382201Y-108146160D01*
X126924607Y-108145760D01*
X126501692Y-108320505D01*
X126177842Y-108643790D01*
X126002360Y-109066399D01*
X126001960Y-109523993D01*
X125762441Y-109523993D01*
X125762840Y-109068407D01*
X125743881Y-109022522D01*
X127614764Y-107151639D01*
X127744828Y-106956986D01*
X127790500Y-106727375D01*
X127790500Y-105531528D01*
X128757764Y-104564264D01*
X128876397Y-104386717D01*
X129021507Y-104532081D01*
X129480769Y-104722783D01*
X129978050Y-104723217D01*
X130437643Y-104533316D01*
X130789581Y-104181993D01*
X130980283Y-103722731D01*
X130980717Y-103225450D01*
X130790816Y-102765857D01*
X130701675Y-102676560D01*
X130840980Y-102583480D01*
X130951489Y-102418090D01*
X130990295Y-102223000D01*
X130990295Y-100785881D01*
X131264705Y-100786121D01*
X131264705Y-102223000D01*
X131303511Y-102418090D01*
X131414020Y-102583480D01*
X131553142Y-102676437D01*
X131465419Y-102764007D01*
X131274717Y-103223269D01*
X131274283Y-103720550D01*
X131464184Y-104180143D01*
X131815507Y-104532081D01*
X132274769Y-104722783D01*
X132772050Y-104723217D01*
X133231643Y-104533316D01*
X133583581Y-104181993D01*
X133774283Y-103722731D01*
X133774717Y-103225450D01*
X133584816Y-102765857D01*
X133495675Y-102676560D01*
X133634980Y-102583480D01*
X133745489Y-102418090D01*
X133784295Y-102223000D01*
X133784295Y-100785881D01*
X134058705Y-100786121D01*
X134058705Y-102255000D01*
X134097511Y-102450090D01*
X134208020Y-102615480D01*
X134347142Y-102708437D01*
X134259419Y-102796007D01*
X134068717Y-103255269D01*
X134068283Y-103752550D01*
X134258184Y-104212143D01*
X134609507Y-104564081D01*
X135068769Y-104754783D01*
X135566050Y-104755217D01*
X136025643Y-104565316D01*
X136377581Y-104213993D01*
X136568283Y-103754731D01*
X136568717Y-103257450D01*
X136378816Y-102797857D01*
X136289675Y-102708560D01*
X136428980Y-102615480D01*
X136539489Y-102450090D01*
X136578295Y-102255000D01*
X136578295Y-100785826D01*
X136852791Y-100786065D01*
X136852705Y-100786500D01*
X136852705Y-102286500D01*
X136891511Y-102481590D01*
X137002020Y-102646980D01*
X137141142Y-102739937D01*
X137053419Y-102827507D01*
X136862717Y-103286769D01*
X136862283Y-103784050D01*
X137052184Y-104243643D01*
X137403507Y-104595581D01*
X137862769Y-104786283D01*
X138360050Y-104786717D01*
X138819643Y-104596816D01*
X139171581Y-104245493D01*
X139362283Y-103786231D01*
X139362717Y-103288950D01*
X139172816Y-102829357D01*
X139083675Y-102740060D01*
X139222980Y-102646980D01*
X139333489Y-102481590D01*
X139372295Y-102286500D01*
X139372295Y-100786500D01*
X139372172Y-100785881D01*
X139649962Y-100786124D01*
X139646705Y-100802500D01*
X139646705Y-102302500D01*
X139685511Y-102497590D01*
X139796020Y-102662980D01*
X139935142Y-102755937D01*
X139847419Y-102843507D01*
X139656717Y-103302769D01*
X139656283Y-103800050D01*
X139846184Y-104259643D01*
X140197507Y-104611581D01*
X140656769Y-104802283D01*
X141154050Y-104802717D01*
X141613643Y-104612816D01*
X141965581Y-104261493D01*
X142156283Y-103802231D01*
X142156717Y-103304950D01*
X141966816Y-102845357D01*
X141877675Y-102756060D01*
X142016980Y-102662980D01*
X142127489Y-102497590D01*
X142166295Y-102302500D01*
X142166295Y-100802500D01*
X142162978Y-100785823D01*
X142443974Y-100786068D01*
X142440705Y-100802500D01*
X142440705Y-102302500D01*
X142479511Y-102497590D01*
X142590020Y-102662980D01*
X142729142Y-102755937D01*
X142641419Y-102843507D01*
X142450717Y-103302769D01*
X142450283Y-103800050D01*
X142640184Y-104259643D01*
X142991507Y-104611581D01*
X143450769Y-104802283D01*
X143948050Y-104802717D01*
X144407643Y-104612816D01*
X144759581Y-104261493D01*
X144950283Y-103802231D01*
X144950717Y-103304950D01*
X144760816Y-102845357D01*
X144671675Y-102756060D01*
X144810980Y-102662980D01*
X144921489Y-102497590D01*
X144960295Y-102302500D01*
X144960295Y-100802500D01*
X144956978Y-100785823D01*
X145408550Y-100786217D01*
X145767500Y-100637901D01*
X145767500Y-108504651D01*
X145584810Y-108321642D01*
X145162201Y-108146160D01*
X144704607Y-108145760D01*
X144281692Y-108320505D01*
X143957842Y-108643790D01*
X143782360Y-109066399D01*
X143781960Y-109523993D01*
X143956705Y-109946908D01*
X144279990Y-110270758D01*
X144702599Y-110446240D01*
X145160193Y-110446640D01*
X145583108Y-110271895D01*
X145767500Y-110087825D01*
X145767500Y-110729249D01*
X145813172Y-110958859D01*
X145943236Y-111153513D01*
X146344002Y-111554279D01*
X146322360Y-111606399D01*
X146321960Y-112063993D01*
X146496705Y-112486908D01*
X146819990Y-112810758D01*
X147242599Y-112986240D01*
X147700193Y-112986640D01*
X148123108Y-112811895D01*
X148197828Y-112737305D01*
X149329084Y-112737305D01*
X149388378Y-112957094D01*
X149864826Y-113110574D01*
X150363742Y-113070042D01*
X150636422Y-112957094D01*
X150695716Y-112737305D01*
X150012400Y-112053989D01*
X149329084Y-112737305D01*
X148197828Y-112737305D01*
X148446958Y-112488610D01*
X148622440Y-112066001D01*
X148622769Y-111688626D01*
X148738026Y-111688626D01*
X148778558Y-112187542D01*
X148891506Y-112460222D01*
X149111295Y-112519516D01*
X149794611Y-111836200D01*
X150230189Y-111836200D01*
X150913505Y-112519516D01*
X151133294Y-112460222D01*
X151286774Y-111983774D01*
X151246242Y-111484858D01*
X151133294Y-111212178D01*
X150913505Y-111152884D01*
X150230189Y-111836200D01*
X149794611Y-111836200D01*
X149111295Y-111152884D01*
X148891506Y-111212178D01*
X148738026Y-111688626D01*
X148622769Y-111688626D01*
X148622840Y-111608407D01*
X148448095Y-111185492D01*
X148124810Y-110861642D01*
X147702201Y-110686160D01*
X147244607Y-110685760D01*
X147193610Y-110706831D01*
X146967500Y-110480721D01*
X146967500Y-110332009D01*
X147242599Y-110446240D01*
X147700193Y-110446640D01*
X148123108Y-110271895D01*
X148446958Y-109948610D01*
X148578900Y-109630857D01*
X148578900Y-110242638D01*
X148671462Y-110466104D01*
X148842495Y-110637137D01*
X149065961Y-110729700D01*
X149384495Y-110729700D01*
X149329084Y-110935095D01*
X150012400Y-111618411D01*
X150695716Y-110935095D01*
X150640305Y-110729700D01*
X150958839Y-110729700D01*
X151182305Y-110637137D01*
X151353338Y-110466104D01*
X151445900Y-110242638D01*
X151445900Y-109602200D01*
X151293900Y-109450200D01*
X150166400Y-109450200D01*
X150166400Y-109470200D01*
X149858400Y-109470200D01*
X149858400Y-109450200D01*
X149838400Y-109450200D01*
X149838400Y-109142200D01*
X149858400Y-109142200D01*
X149858400Y-108014700D01*
X150166400Y-108014700D01*
X150166400Y-109142200D01*
X151293900Y-109142200D01*
X151445900Y-108990200D01*
X151445900Y-108349762D01*
X151353338Y-108126296D01*
X151182305Y-107955263D01*
X150958839Y-107862700D01*
X150318400Y-107862700D01*
X150166400Y-108014700D01*
X149858400Y-108014700D01*
X149706400Y-107862700D01*
X149065961Y-107862700D01*
X148842495Y-107955263D01*
X148671462Y-108126296D01*
X148578900Y-108349762D01*
X148578900Y-108962064D01*
X148448095Y-108645492D01*
X148124810Y-108321642D01*
X147702201Y-108146160D01*
X147539000Y-108146017D01*
X147539000Y-96329500D01*
X147493328Y-96099890D01*
X147363264Y-95905236D01*
X140821208Y-89363180D01*
X140914572Y-89324603D01*
X141139812Y-89099755D01*
X141261861Y-88805828D01*
X141261991Y-88656930D01*
X141316327Y-88575611D01*
X141361999Y-88346001D01*
X141361999Y-78033659D01*
X143712500Y-80384160D01*
X143712500Y-80428593D01*
X143662639Y-80548672D01*
X143662361Y-80866932D01*
X143712500Y-80988278D01*
X143712500Y-83853933D01*
X143661119Y-83977672D01*
X143660841Y-84295932D01*
X143782377Y-84590072D01*
X144007225Y-84815312D01*
X144301152Y-84937361D01*
X144619412Y-84937639D01*
X144913552Y-84816103D01*
X145138792Y-84591255D01*
X145260841Y-84297328D01*
X145261119Y-83979068D01*
X145212500Y-83861401D01*
X145212500Y-80988407D01*
X145262361Y-80868328D01*
X145262639Y-80550068D01*
X145212500Y-80428722D01*
X145212500Y-80073500D01*
X145155410Y-79786487D01*
X144992830Y-79543170D01*
X142265292Y-76815632D01*
X161023261Y-76815632D01*
X161144797Y-77109772D01*
X161369645Y-77335012D01*
X161663572Y-77457061D01*
X161981832Y-77457339D01*
X162275972Y-77335803D01*
X162501212Y-77110955D01*
X162623261Y-76817028D01*
X162623539Y-76498768D01*
X162502003Y-76204628D01*
X162423400Y-76125888D01*
X162423400Y-71927328D01*
X162870098Y-71480630D01*
X162970910Y-71547989D01*
X163166000Y-71586795D01*
X165966000Y-71586795D01*
X166161090Y-71547989D01*
X166326480Y-71437480D01*
X166436989Y-71272090D01*
X166475795Y-71077000D01*
X166475795Y-70377000D01*
X166436989Y-70181910D01*
X166350449Y-70052393D01*
X166481438Y-69921404D01*
X166574000Y-69697938D01*
X166574000Y-69533000D01*
X166422000Y-69381000D01*
X164720000Y-69381000D01*
X164720000Y-69401000D01*
X164412000Y-69401000D01*
X164412000Y-69381000D01*
X162710000Y-69381000D01*
X162558000Y-69533000D01*
X162558000Y-69697938D01*
X162650562Y-69921404D01*
X162781551Y-70052393D01*
X162725033Y-70136979D01*
X162545589Y-70172672D01*
X162350936Y-70302736D01*
X161399136Y-71254536D01*
X161269072Y-71449190D01*
X161223400Y-71678800D01*
X161223400Y-76125768D01*
X161145588Y-76203445D01*
X161023539Y-76497372D01*
X161023261Y-76815632D01*
X142265292Y-76815632D01*
X142079255Y-76629595D01*
X142029603Y-76509428D01*
X141804755Y-76284188D01*
X141510828Y-76162139D01*
X141361999Y-76162009D01*
X141361999Y-72458631D01*
X141422572Y-72433603D01*
X141647812Y-72208755D01*
X141769861Y-71914828D01*
X141770139Y-71596568D01*
X141648603Y-71302428D01*
X141423755Y-71077188D01*
X141129828Y-70955139D01*
X140811568Y-70954861D01*
X140517428Y-71076397D01*
X140332301Y-71261202D01*
X140228236Y-71330736D01*
X140098172Y-71525390D01*
X140052500Y-71755000D01*
X140098172Y-71984610D01*
X140161999Y-72080134D01*
X140161999Y-87904356D01*
X140009428Y-87967397D01*
X139784188Y-88192245D01*
X139744897Y-88286869D01*
X138981264Y-87523236D01*
X138786610Y-87393172D01*
X138557000Y-87347500D01*
X134452932Y-87347500D01*
X134375255Y-87269688D01*
X134081328Y-87147639D01*
X133763068Y-87147361D01*
X133468928Y-87268897D01*
X133260924Y-87476539D01*
X133041755Y-87256988D01*
X132747828Y-87134939D01*
X132429568Y-87134661D01*
X132135428Y-87256197D01*
X131910188Y-87481045D01*
X131788139Y-87774972D01*
X131787861Y-88093232D01*
X131909397Y-88387372D01*
X132134245Y-88612612D01*
X132428172Y-88734661D01*
X132539430Y-88734758D01*
X133946172Y-90141500D01*
X128293432Y-90141500D01*
X128215755Y-90063688D01*
X127921828Y-89941639D01*
X127603568Y-89941361D01*
X127536500Y-89969073D01*
X127536500Y-86164028D01*
X128508985Y-85191543D01*
X128618932Y-85191639D01*
X128913072Y-85070103D01*
X129138312Y-84845255D01*
X129260361Y-84551328D01*
X129260639Y-84233068D01*
X129139103Y-83938928D01*
X128914255Y-83713688D01*
X128620328Y-83591639D01*
X128302068Y-83591361D01*
X128007928Y-83712897D01*
X127984406Y-83736378D01*
X127961755Y-83713688D01*
X127667828Y-83591639D01*
X127349568Y-83591361D01*
X127055428Y-83712897D01*
X127000100Y-83768128D01*
X126945755Y-83713688D01*
X126651828Y-83591639D01*
X126333568Y-83591361D01*
X126039428Y-83712897D01*
X125920490Y-83831628D01*
X125802755Y-83713688D01*
X125508828Y-83591639D01*
X125190568Y-83591361D01*
X124896428Y-83712897D01*
X124671188Y-83937745D01*
X124549139Y-84231672D01*
X124549042Y-84342930D01*
X122956236Y-85935736D01*
X122826172Y-86130390D01*
X122780500Y-86360000D01*
X122780500Y-99255972D01*
X122257736Y-99778736D01*
X122127672Y-99973390D01*
X122082000Y-100203000D01*
X122082000Y-106812472D01*
X120606736Y-108287736D01*
X120476672Y-108482390D01*
X120454841Y-108592145D01*
X120184810Y-108321642D01*
X119762201Y-108146160D01*
X119304607Y-108145760D01*
X118881692Y-108320505D01*
X118557842Y-108643790D01*
X118382360Y-109066399D01*
X118381960Y-109523993D01*
X118142441Y-109523993D01*
X118142840Y-109068407D01*
X117968095Y-108645492D01*
X117644810Y-108321642D01*
X117222201Y-108146160D01*
X116764607Y-108145760D01*
X116341692Y-108320505D01*
X116017842Y-108643790D01*
X115842360Y-109066399D01*
X115841960Y-109523993D01*
X115602441Y-109523993D01*
X115602840Y-109068407D01*
X115428095Y-108645492D01*
X115104810Y-108321642D01*
X114682201Y-108146160D01*
X114224607Y-108145760D01*
X113801692Y-108320505D01*
X113477842Y-108643790D01*
X113302360Y-109066399D01*
X113301960Y-109523993D01*
X113062441Y-109523993D01*
X113062840Y-109068407D01*
X112888095Y-108645492D01*
X112564810Y-108321642D01*
X112142201Y-108146160D01*
X111684607Y-108145760D01*
X111261692Y-108320505D01*
X110937842Y-108643790D01*
X110762360Y-109066399D01*
X110761960Y-109523993D01*
X110522441Y-109523993D01*
X110522840Y-109068407D01*
X110348095Y-108645492D01*
X110024810Y-108321642D01*
X109602201Y-108146160D01*
X109144607Y-108145760D01*
X108721692Y-108320505D01*
X108397842Y-108643790D01*
X108222360Y-109066399D01*
X108221960Y-109523993D01*
X107982441Y-109523993D01*
X107982840Y-109068407D01*
X107808095Y-108645492D01*
X107484810Y-108321642D01*
X107062201Y-108146160D01*
X106604607Y-108145760D01*
X106181692Y-108320505D01*
X105857842Y-108643790D01*
X105682360Y-109066399D01*
X105681960Y-109523993D01*
X105442441Y-109523993D01*
X105442840Y-109068407D01*
X105268095Y-108645492D01*
X104944810Y-108321642D01*
X104522201Y-108146160D01*
X104064607Y-108145760D01*
X103641692Y-108320505D01*
X103317842Y-108643790D01*
X103142360Y-109066399D01*
X103141960Y-109523993D01*
X102902441Y-109523993D01*
X102902840Y-109068407D01*
X102728095Y-108645492D01*
X102404810Y-108321642D01*
X101982201Y-108146160D01*
X101524607Y-108145760D01*
X101101692Y-108320505D01*
X100777842Y-108643790D01*
X100602360Y-109066399D01*
X100601960Y-109523993D01*
X100362441Y-109523993D01*
X100362840Y-109068407D01*
X100188095Y-108645492D01*
X99864810Y-108321642D01*
X99442201Y-108146160D01*
X98984607Y-108145760D01*
X98561692Y-108320505D01*
X98237842Y-108643790D01*
X98062360Y-109066399D01*
X98061960Y-109523993D01*
X97822441Y-109523993D01*
X97822840Y-109068407D01*
X97648095Y-108645492D01*
X97324810Y-108321642D01*
X96902201Y-108146160D01*
X96444607Y-108145760D01*
X96021692Y-108320505D01*
X95697842Y-108643790D01*
X95522360Y-109066399D01*
X95521960Y-109523993D01*
X95282441Y-109523993D01*
X95282840Y-109068407D01*
X95108095Y-108645492D01*
X94784810Y-108321642D01*
X94362201Y-108146160D01*
X93904607Y-108145760D01*
X93481692Y-108320505D01*
X93157842Y-108643790D01*
X92982360Y-109066399D01*
X92981960Y-109523993D01*
X90859323Y-109523993D01*
X91412879Y-108971403D01*
X91837915Y-107947801D01*
X91838883Y-106839462D01*
X91415633Y-105815119D01*
X90632603Y-105030721D01*
X89609001Y-104605685D01*
X88500662Y-104604717D01*
X87476319Y-105027967D01*
X86691921Y-105810997D01*
X86266885Y-106834599D01*
X86266100Y-107732883D01*
X84883869Y-105664227D01*
X84401954Y-103241476D01*
X86138751Y-103241476D01*
X86338062Y-103779929D01*
X86728259Y-104201122D01*
X87210851Y-104431111D01*
X87437900Y-104320283D01*
X87437900Y-103011300D01*
X86272384Y-103011300D01*
X86138751Y-103241476D01*
X84401954Y-103241476D01*
X83950500Y-100971865D01*
X83950500Y-100701476D01*
X86138751Y-100701476D01*
X86338062Y-101239929D01*
X86659870Y-101587300D01*
X86338062Y-101934671D01*
X86138751Y-102473124D01*
X86272384Y-102703300D01*
X87437900Y-102703300D01*
X87437900Y-100471300D01*
X86272384Y-100471300D01*
X86138751Y-100701476D01*
X83950500Y-100701476D01*
X83950500Y-98161476D01*
X86138751Y-98161476D01*
X86338062Y-98699929D01*
X86659870Y-99047300D01*
X86338062Y-99394671D01*
X86138751Y-99933124D01*
X86272384Y-100163300D01*
X87437900Y-100163300D01*
X87437900Y-97931300D01*
X86272384Y-97931300D01*
X86138751Y-98161476D01*
X83950500Y-98161476D01*
X83950500Y-95621476D01*
X86138751Y-95621476D01*
X86338062Y-96159929D01*
X86659870Y-96507300D01*
X86338062Y-96854671D01*
X86138751Y-97393124D01*
X86272384Y-97623300D01*
X87437900Y-97623300D01*
X87437900Y-95391300D01*
X86272384Y-95391300D01*
X86138751Y-95621476D01*
X83950500Y-95621476D01*
X83950500Y-93081476D01*
X86138751Y-93081476D01*
X86338062Y-93619929D01*
X86659870Y-93967300D01*
X86338062Y-94314671D01*
X86138751Y-94853124D01*
X86272384Y-95083300D01*
X87437900Y-95083300D01*
X87437900Y-92851300D01*
X86272384Y-92851300D01*
X86138751Y-93081476D01*
X83950500Y-93081476D01*
X83950500Y-90541476D01*
X86138751Y-90541476D01*
X86338062Y-91079929D01*
X86659870Y-91427300D01*
X86338062Y-91774671D01*
X86138751Y-92313124D01*
X86272384Y-92543300D01*
X87437900Y-92543300D01*
X87437900Y-90311300D01*
X86272384Y-90311300D01*
X86138751Y-90541476D01*
X83950500Y-90541476D01*
X83950500Y-88001476D01*
X86138751Y-88001476D01*
X86338062Y-88539929D01*
X86659870Y-88887300D01*
X86338062Y-89234671D01*
X86138751Y-89773124D01*
X86272384Y-90003300D01*
X87437900Y-90003300D01*
X87437900Y-87771300D01*
X86272384Y-87771300D01*
X86138751Y-88001476D01*
X83950500Y-88001476D01*
X83950500Y-85461476D01*
X86138751Y-85461476D01*
X86338062Y-85999929D01*
X86659870Y-86347300D01*
X86338062Y-86694671D01*
X86138751Y-87233124D01*
X86272384Y-87463300D01*
X87437900Y-87463300D01*
X87437900Y-85231300D01*
X86272384Y-85231300D01*
X86138751Y-85461476D01*
X83950500Y-85461476D01*
X83950500Y-82921476D01*
X86138751Y-82921476D01*
X86338062Y-83459929D01*
X86659870Y-83807300D01*
X86338062Y-84154671D01*
X86138751Y-84693124D01*
X86272384Y-84923300D01*
X87437900Y-84923300D01*
X87437900Y-82691300D01*
X86272384Y-82691300D01*
X86138751Y-82921476D01*
X83950500Y-82921476D01*
X83950500Y-80381476D01*
X86138751Y-80381476D01*
X86338062Y-80919929D01*
X86659870Y-81267300D01*
X86338062Y-81614671D01*
X86138751Y-82153124D01*
X86272384Y-82383300D01*
X87437900Y-82383300D01*
X87437900Y-80151300D01*
X86272384Y-80151300D01*
X86138751Y-80381476D01*
X83950500Y-80381476D01*
X83950500Y-77841476D01*
X86138751Y-77841476D01*
X86338062Y-78379929D01*
X86659870Y-78727300D01*
X86338062Y-79074671D01*
X86138751Y-79613124D01*
X86272384Y-79843300D01*
X87437900Y-79843300D01*
X87437900Y-77611300D01*
X86272384Y-77611300D01*
X86138751Y-77841476D01*
X83950500Y-77841476D01*
X83950500Y-75301476D01*
X86138751Y-75301476D01*
X86338062Y-75839929D01*
X86659870Y-76187300D01*
X86338062Y-76534671D01*
X86138751Y-77073124D01*
X86272384Y-77303300D01*
X87437900Y-77303300D01*
X87437900Y-75071300D01*
X86272384Y-75071300D01*
X86138751Y-75301476D01*
X83950500Y-75301476D01*
X83950500Y-72761476D01*
X86138751Y-72761476D01*
X86338062Y-73299929D01*
X86659870Y-73647300D01*
X86338062Y-73994671D01*
X86138751Y-74533124D01*
X86272384Y-74763300D01*
X87437900Y-74763300D01*
X87437900Y-72531300D01*
X86272384Y-72531300D01*
X86138751Y-72761476D01*
X83950500Y-72761476D01*
X83950500Y-71875135D01*
X84275288Y-70242311D01*
X86006502Y-70242311D01*
X86281208Y-70813327D01*
X86637227Y-71131741D01*
X86338062Y-71454671D01*
X86138751Y-71993124D01*
X86272384Y-72223300D01*
X87437900Y-72223300D01*
X87437900Y-70914317D01*
X87425200Y-70908118D01*
X87425200Y-69991300D01*
X86114507Y-69991300D01*
X86006502Y-70242311D01*
X84275288Y-70242311D01*
X84436411Y-69432289D01*
X86006502Y-69432289D01*
X86114507Y-69683300D01*
X87425200Y-69683300D01*
X87425200Y-68373378D01*
X87733200Y-68373378D01*
X87733200Y-69683300D01*
X87753200Y-69683300D01*
X87753200Y-69991300D01*
X87733200Y-69991300D01*
X87733200Y-71301222D01*
X87745900Y-71306725D01*
X87745900Y-72223300D01*
X87765900Y-72223300D01*
X87765900Y-72531300D01*
X87745900Y-72531300D01*
X87745900Y-74763300D01*
X87765900Y-74763300D01*
X87765900Y-75071300D01*
X87745900Y-75071300D01*
X87745900Y-77303300D01*
X87765900Y-77303300D01*
X87765900Y-77611300D01*
X87745900Y-77611300D01*
X87745900Y-79843300D01*
X87765900Y-79843300D01*
X87765900Y-80151300D01*
X87745900Y-80151300D01*
X87745900Y-82383300D01*
X87765900Y-82383300D01*
X87765900Y-82691300D01*
X87745900Y-82691300D01*
X87745900Y-84923300D01*
X87765900Y-84923300D01*
X87765900Y-85231300D01*
X87745900Y-85231300D01*
X87745900Y-87463300D01*
X87765900Y-87463300D01*
X87765900Y-87771300D01*
X87745900Y-87771300D01*
X87745900Y-90003300D01*
X87765900Y-90003300D01*
X87765900Y-90311300D01*
X87745900Y-90311300D01*
X87745900Y-92543300D01*
X87765900Y-92543300D01*
X87765900Y-92851300D01*
X87745900Y-92851300D01*
X87745900Y-95083300D01*
X87765900Y-95083300D01*
X87765900Y-95391300D01*
X87745900Y-95391300D01*
X87745900Y-97623300D01*
X87765900Y-97623300D01*
X87765900Y-97931300D01*
X87745900Y-97931300D01*
X87745900Y-100163300D01*
X87765900Y-100163300D01*
X87765900Y-100471300D01*
X87745900Y-100471300D01*
X87745900Y-102703300D01*
X87765900Y-102703300D01*
X87765900Y-103011300D01*
X87745900Y-103011300D01*
X87745900Y-104320283D01*
X87972949Y-104431111D01*
X88455541Y-104201122D01*
X88845738Y-103779929D01*
X88907230Y-103613805D01*
X89167689Y-104003611D01*
X89610073Y-104299202D01*
X90131900Y-104403000D01*
X90653727Y-104299202D01*
X91096111Y-104003611D01*
X91298505Y-103700706D01*
X91298505Y-103873300D01*
X91337311Y-104068390D01*
X91447820Y-104233780D01*
X91613210Y-104344289D01*
X91808300Y-104383095D01*
X93535500Y-104383095D01*
X93730590Y-104344289D01*
X93895980Y-104233780D01*
X94006489Y-104068390D01*
X94045295Y-103873300D01*
X94045295Y-101841300D01*
X94006489Y-101646210D01*
X93967127Y-101587300D01*
X94006489Y-101528390D01*
X94045295Y-101333300D01*
X94045295Y-99301300D01*
X94006489Y-99106210D01*
X93967127Y-99047300D01*
X94006489Y-98988390D01*
X94045295Y-98793300D01*
X94045295Y-97154300D01*
X100784705Y-97154300D01*
X100784705Y-98654300D01*
X100823511Y-98849390D01*
X100934020Y-99014780D01*
X101073142Y-99107737D01*
X100985419Y-99195307D01*
X100794717Y-99654569D01*
X100794283Y-100151850D01*
X100984184Y-100611443D01*
X101335507Y-100963381D01*
X101794769Y-101154083D01*
X102292050Y-101154517D01*
X102751643Y-100964616D01*
X103086175Y-100630668D01*
X103418307Y-100963381D01*
X103877569Y-101154083D01*
X104374850Y-101154517D01*
X104834443Y-100964616D01*
X105175337Y-100624318D01*
X105513807Y-100963381D01*
X105973069Y-101154083D01*
X106470350Y-101154517D01*
X106929943Y-100964616D01*
X107239031Y-100656068D01*
X107545807Y-100963381D01*
X108005069Y-101154083D01*
X108502350Y-101154517D01*
X108961943Y-100964616D01*
X109288476Y-100638654D01*
X109628607Y-100979381D01*
X110087869Y-101170083D01*
X110585150Y-101170517D01*
X111044743Y-100980616D01*
X111345831Y-100680054D01*
X111660607Y-100995381D01*
X112119869Y-101186083D01*
X112617150Y-101186517D01*
X113076743Y-100996616D01*
X113412914Y-100661032D01*
X113730707Y-100979381D01*
X114189969Y-101170083D01*
X114687250Y-101170517D01*
X115146843Y-100980616D01*
X115451231Y-100676760D01*
X115762707Y-100988781D01*
X116221969Y-101179483D01*
X116719250Y-101179917D01*
X117178843Y-100990016D01*
X117494270Y-100675140D01*
X117782007Y-100963381D01*
X118241269Y-101154083D01*
X118738550Y-101154517D01*
X119198143Y-100964616D01*
X119499231Y-100664054D01*
X119814007Y-100979381D01*
X120273269Y-101170083D01*
X120770550Y-101170517D01*
X121230143Y-100980616D01*
X121582081Y-100629293D01*
X121772783Y-100170031D01*
X121773217Y-99672750D01*
X121583316Y-99213157D01*
X121494175Y-99123860D01*
X121633480Y-99030780D01*
X121743989Y-98865390D01*
X121782795Y-98670300D01*
X121782795Y-97170300D01*
X121743989Y-96975210D01*
X121633480Y-96809820D01*
X121468090Y-96699311D01*
X121273000Y-96660505D01*
X119773000Y-96660505D01*
X119577910Y-96699311D01*
X119518973Y-96738691D01*
X119436090Y-96683311D01*
X119241000Y-96644505D01*
X117741000Y-96644505D01*
X117545910Y-96683311D01*
X117462343Y-96739148D01*
X117416790Y-96708711D01*
X117221700Y-96669905D01*
X115721700Y-96669905D01*
X115526610Y-96708711D01*
X115462734Y-96751391D01*
X115384790Y-96699311D01*
X115189700Y-96660505D01*
X113689700Y-96660505D01*
X113494610Y-96699311D01*
X113392677Y-96767420D01*
X113314690Y-96715311D01*
X113119600Y-96676505D01*
X111619600Y-96676505D01*
X111424510Y-96715311D01*
X111365573Y-96754691D01*
X111282690Y-96699311D01*
X111087600Y-96660505D01*
X109587600Y-96660505D01*
X109392510Y-96699311D01*
X109308173Y-96755663D01*
X109199890Y-96683311D01*
X109004800Y-96644505D01*
X107504800Y-96644505D01*
X107309710Y-96683311D01*
X107238800Y-96730691D01*
X107167890Y-96683311D01*
X106972800Y-96644505D01*
X105472800Y-96644505D01*
X105277710Y-96683311D01*
X105175050Y-96751906D01*
X105072390Y-96683311D01*
X104877300Y-96644505D01*
X103377300Y-96644505D01*
X103182210Y-96683311D01*
X103085900Y-96747663D01*
X102989590Y-96683311D01*
X102794500Y-96644505D01*
X101294500Y-96644505D01*
X101099410Y-96683311D01*
X100934020Y-96793820D01*
X100823511Y-96959210D01*
X100784705Y-97154300D01*
X94045295Y-97154300D01*
X94045295Y-96761300D01*
X94006489Y-96566210D01*
X93967127Y-96507300D01*
X94006489Y-96448390D01*
X94045295Y-96253300D01*
X94045295Y-94221300D01*
X94006489Y-94026210D01*
X93967127Y-93967300D01*
X94006489Y-93908390D01*
X94045295Y-93713300D01*
X94045295Y-91681300D01*
X94006489Y-91486210D01*
X93967127Y-91427300D01*
X94006489Y-91368390D01*
X94045295Y-91173300D01*
X94045295Y-89141300D01*
X94006489Y-88946210D01*
X93967127Y-88887300D01*
X94006489Y-88828390D01*
X94045295Y-88633300D01*
X94045295Y-86601300D01*
X94006489Y-86406210D01*
X93967127Y-86347300D01*
X94006489Y-86288390D01*
X94045295Y-86093300D01*
X94045295Y-84061300D01*
X94006489Y-83866210D01*
X93967127Y-83807300D01*
X94006489Y-83748390D01*
X94045295Y-83553300D01*
X94045295Y-81521300D01*
X94006489Y-81326210D01*
X93967127Y-81267300D01*
X94006489Y-81208390D01*
X94045295Y-81013300D01*
X94045295Y-78981300D01*
X94006489Y-78786210D01*
X93967127Y-78727300D01*
X94006489Y-78668390D01*
X94045295Y-78473300D01*
X94045295Y-76441300D01*
X94006489Y-76246210D01*
X93967127Y-76187300D01*
X94006489Y-76128390D01*
X94045295Y-75933300D01*
X94045295Y-73901300D01*
X94006489Y-73706210D01*
X93967127Y-73647300D01*
X94006489Y-73588390D01*
X94045295Y-73393300D01*
X94045295Y-71361300D01*
X94006489Y-71166210D01*
X93895980Y-71000820D01*
X93730590Y-70890311D01*
X93535500Y-70851505D01*
X91808300Y-70851505D01*
X91638639Y-70885253D01*
X91644995Y-70853300D01*
X91644995Y-68821300D01*
X91606189Y-68626210D01*
X91495680Y-68460820D01*
X91330290Y-68350311D01*
X91135200Y-68311505D01*
X89103200Y-68311505D01*
X88908110Y-68350311D01*
X88742720Y-68460820D01*
X88632211Y-68626210D01*
X88629516Y-68639758D01*
X88404879Y-68438849D01*
X87984209Y-68264613D01*
X87733200Y-68373378D01*
X87425200Y-68373378D01*
X87174191Y-68264613D01*
X86753521Y-68438849D01*
X86281208Y-68861273D01*
X86006502Y-69432289D01*
X84436411Y-69432289D01*
X84883869Y-67182773D01*
X86266720Y-65113190D01*
X86265917Y-66032938D01*
X86689167Y-67057281D01*
X87472197Y-67841679D01*
X88495799Y-68266715D01*
X89604138Y-68267683D01*
X90628481Y-67844433D01*
X91412879Y-67061403D01*
X91837915Y-66037801D01*
X91838883Y-64929462D01*
X91652056Y-64477305D01*
X93449084Y-64477305D01*
X93508378Y-64697094D01*
X93984826Y-64850574D01*
X94483742Y-64810042D01*
X94756422Y-64697094D01*
X94815716Y-64477305D01*
X94132400Y-63793989D01*
X93449084Y-64477305D01*
X91652056Y-64477305D01*
X91415633Y-63905119D01*
X90939972Y-63428626D01*
X92858026Y-63428626D01*
X92898558Y-63927542D01*
X93011506Y-64200222D01*
X93231295Y-64259516D01*
X93914611Y-63576200D01*
X94350189Y-63576200D01*
X95033505Y-64259516D01*
X95253294Y-64200222D01*
X95406774Y-63723774D01*
X95382797Y-63428626D01*
X95398026Y-63428626D01*
X95438558Y-63927542D01*
X95551506Y-64200222D01*
X95771295Y-64259516D01*
X96454611Y-63576200D01*
X95771295Y-62892884D01*
X95551506Y-62952178D01*
X95398026Y-63428626D01*
X95382797Y-63428626D01*
X95366242Y-63224858D01*
X95253294Y-62952178D01*
X95033505Y-62892884D01*
X94350189Y-63576200D01*
X93914611Y-63576200D01*
X93231295Y-62892884D01*
X93011506Y-62952178D01*
X92858026Y-63428626D01*
X90939972Y-63428626D01*
X90632603Y-63120721D01*
X89609001Y-62695685D01*
X88500662Y-62694717D01*
X88092811Y-62863238D01*
X88374386Y-62675095D01*
X93449084Y-62675095D01*
X94132400Y-63358411D01*
X94815716Y-62675095D01*
X95989084Y-62675095D01*
X96672400Y-63358411D01*
X96686542Y-63344269D01*
X96904331Y-63562058D01*
X96890189Y-63576200D01*
X96904331Y-63590342D01*
X96686542Y-63808131D01*
X96672400Y-63793989D01*
X95989084Y-64477305D01*
X96048378Y-64697094D01*
X96524826Y-64850574D01*
X97023742Y-64810042D01*
X97167000Y-64750702D01*
X97167000Y-66458593D01*
X97117139Y-66578672D01*
X97116861Y-66896932D01*
X97238397Y-67191072D01*
X97463245Y-67416312D01*
X97757172Y-67538361D01*
X98075432Y-67538639D01*
X98369572Y-67417103D01*
X98594812Y-67192255D01*
X98716861Y-66898328D01*
X98717139Y-66580068D01*
X98667000Y-66458722D01*
X98667000Y-64595192D01*
X98982599Y-64726240D01*
X99440193Y-64726640D01*
X99863108Y-64551895D01*
X100186958Y-64228610D01*
X100362440Y-63806001D01*
X100362840Y-63348407D01*
X100236855Y-63043500D01*
X100728134Y-63043500D01*
X100602360Y-63346399D01*
X100601960Y-63803993D01*
X100776705Y-64226908D01*
X101099990Y-64550758D01*
X101522599Y-64726240D01*
X101980193Y-64726640D01*
X102403108Y-64551895D01*
X102616359Y-64339016D01*
X102636236Y-64368764D01*
X103857500Y-65590028D01*
X103857500Y-71723685D01*
X103747000Y-71701705D01*
X102247000Y-71701705D01*
X102051910Y-71740511D01*
X101886520Y-71851020D01*
X101776011Y-72016410D01*
X101737205Y-72211500D01*
X101737205Y-73711500D01*
X101776011Y-73906590D01*
X101886520Y-74071980D01*
X101913282Y-74089861D01*
X101910426Y-74092717D01*
X102023349Y-74205640D01*
X101793262Y-74277288D01*
X101623055Y-74790021D01*
X101662018Y-75328860D01*
X101793262Y-75645712D01*
X102023351Y-75717360D01*
X102779211Y-74961500D01*
X102765069Y-74947358D01*
X102982858Y-74729569D01*
X102997000Y-74743711D01*
X103011142Y-74729569D01*
X103228931Y-74947358D01*
X103214789Y-74961500D01*
X103228931Y-74975642D01*
X103011142Y-75193431D01*
X102997000Y-75179289D01*
X102241140Y-75935149D01*
X102312788Y-76165238D01*
X102825521Y-76335445D01*
X103364360Y-76296482D01*
X103681212Y-76165238D01*
X103752860Y-75935151D01*
X103857500Y-76039791D01*
X103857500Y-86423500D01*
X103903172Y-86653110D01*
X104033236Y-86847764D01*
X104990957Y-87805485D01*
X104990861Y-87915432D01*
X105112397Y-88209572D01*
X105337245Y-88434812D01*
X105631172Y-88556861D01*
X105949432Y-88557139D01*
X106243572Y-88435603D01*
X106468812Y-88210755D01*
X106590861Y-87916828D01*
X106591139Y-87598568D01*
X106469603Y-87304428D01*
X106244755Y-87079188D01*
X105950828Y-86957139D01*
X105839570Y-86957042D01*
X105057500Y-86174972D01*
X105057500Y-75976291D01*
X105098640Y-75935151D01*
X105170288Y-76165238D01*
X105683021Y-76335445D01*
X106221860Y-76296482D01*
X106538712Y-76165238D01*
X106610360Y-75935149D01*
X108146640Y-75935149D01*
X108218288Y-76165238D01*
X108731021Y-76335445D01*
X109269860Y-76296482D01*
X109586712Y-76165238D01*
X109658360Y-75935149D01*
X108902500Y-75179289D01*
X108146640Y-75935149D01*
X106610360Y-75935149D01*
X105854500Y-75179289D01*
X105840358Y-75193431D01*
X105622569Y-74975642D01*
X105636711Y-74961500D01*
X105622569Y-74947358D01*
X105840358Y-74729569D01*
X105854500Y-74743711D01*
X105868642Y-74729569D01*
X106086431Y-74947358D01*
X106072289Y-74961500D01*
X106828149Y-75717360D01*
X107058238Y-75645712D01*
X107228445Y-75132979D01*
X107203646Y-74790021D01*
X107528555Y-74790021D01*
X107567518Y-75328860D01*
X107698762Y-75645712D01*
X107928851Y-75717360D01*
X108684711Y-74961500D01*
X108670569Y-74947358D01*
X108888358Y-74729569D01*
X108902500Y-74743711D01*
X108916642Y-74729569D01*
X109134431Y-74947358D01*
X109120289Y-74961500D01*
X109876149Y-75717360D01*
X110106238Y-75645712D01*
X110276445Y-75132979D01*
X110237482Y-74594140D01*
X110106238Y-74277288D01*
X109876151Y-74205640D01*
X109989074Y-74092717D01*
X109986218Y-74089861D01*
X110012980Y-74071980D01*
X110123489Y-73906590D01*
X110162295Y-73711500D01*
X110162295Y-72211500D01*
X110123489Y-72016410D01*
X110012980Y-71851020D01*
X109847590Y-71740511D01*
X109652500Y-71701705D01*
X108152500Y-71701705D01*
X107957410Y-71740511D01*
X107792020Y-71851020D01*
X107681511Y-72016410D01*
X107642705Y-72211500D01*
X107642705Y-73711500D01*
X107681511Y-73906590D01*
X107792020Y-74071980D01*
X107818782Y-74089861D01*
X107815926Y-74092717D01*
X107928849Y-74205640D01*
X107698762Y-74277288D01*
X107528555Y-74790021D01*
X107203646Y-74790021D01*
X107189482Y-74594140D01*
X107058238Y-74277288D01*
X106828151Y-74205640D01*
X106941074Y-74092717D01*
X106938218Y-74089861D01*
X106964980Y-74071980D01*
X107075489Y-73906590D01*
X107114295Y-73711500D01*
X107114295Y-72211500D01*
X107075489Y-72016410D01*
X106964980Y-71851020D01*
X106799590Y-71740511D01*
X106604500Y-71701705D01*
X105104500Y-71701705D01*
X105057500Y-71711054D01*
X105057500Y-65341500D01*
X105029137Y-65198908D01*
X105011828Y-65111889D01*
X104881764Y-64917236D01*
X104641178Y-64676650D01*
X104943108Y-64551895D01*
X105266958Y-64228610D01*
X105442440Y-63806001D01*
X105442840Y-63348407D01*
X105316855Y-63043500D01*
X105808134Y-63043500D01*
X105682360Y-63346399D01*
X105681960Y-63803993D01*
X105856705Y-64226908D01*
X106179990Y-64550758D01*
X106602599Y-64726240D01*
X107060193Y-64726640D01*
X107483108Y-64551895D01*
X107557828Y-64477305D01*
X108689084Y-64477305D01*
X108748378Y-64697094D01*
X109224826Y-64850574D01*
X109723742Y-64810042D01*
X109996422Y-64697094D01*
X110055716Y-64477305D01*
X109372400Y-63793989D01*
X108689084Y-64477305D01*
X107557828Y-64477305D01*
X107806958Y-64228610D01*
X107982440Y-63806001D01*
X107982840Y-63348407D01*
X107856855Y-63043500D01*
X108222088Y-63043500D01*
X108098026Y-63428626D01*
X108138558Y-63927542D01*
X108251506Y-64200222D01*
X108471295Y-64259516D01*
X109154611Y-63576200D01*
X109140469Y-63562058D01*
X109358258Y-63344269D01*
X109372400Y-63358411D01*
X109386542Y-63344269D01*
X109604331Y-63562058D01*
X109590189Y-63576200D01*
X110273505Y-64259516D01*
X110493294Y-64200222D01*
X110646774Y-63723774D01*
X110606242Y-63224858D01*
X110531121Y-63043500D01*
X110888134Y-63043500D01*
X110762360Y-63346399D01*
X110761960Y-63803993D01*
X110936705Y-64226908D01*
X111259990Y-64550758D01*
X111682599Y-64726240D01*
X112140193Y-64726640D01*
X112366500Y-64633132D01*
X112366500Y-64833500D01*
X112412172Y-65063110D01*
X112542236Y-65257764D01*
X112620500Y-65336028D01*
X112620500Y-71701705D01*
X111200500Y-71701705D01*
X111005410Y-71740511D01*
X110840020Y-71851020D01*
X110729511Y-72016410D01*
X110690705Y-72211500D01*
X110690705Y-73711500D01*
X110729511Y-73906590D01*
X110840020Y-74071980D01*
X110866782Y-74089861D01*
X110863926Y-74092717D01*
X110976849Y-74205640D01*
X110746762Y-74277288D01*
X110576555Y-74790021D01*
X110615518Y-75328860D01*
X110746762Y-75645712D01*
X110976851Y-75717360D01*
X111732711Y-74961500D01*
X111718569Y-74947358D01*
X111936358Y-74729569D01*
X111950500Y-74743711D01*
X111964642Y-74729569D01*
X112182431Y-74947358D01*
X112168289Y-74961500D01*
X112182431Y-74975642D01*
X111964642Y-75193431D01*
X111950500Y-75179289D01*
X111194640Y-75935149D01*
X111266288Y-76165238D01*
X111779021Y-76335445D01*
X112239500Y-76302148D01*
X112239500Y-82784042D01*
X112285172Y-83013652D01*
X112415236Y-83208306D01*
X119107915Y-89900985D01*
X119107898Y-89920799D01*
X111875382Y-89920799D01*
X112057283Y-89482731D01*
X112057717Y-88985450D01*
X111867816Y-88525857D01*
X111575268Y-88232797D01*
X111866581Y-87941993D01*
X112057283Y-87482731D01*
X112057717Y-86985450D01*
X111867816Y-86525857D01*
X111575268Y-86232797D01*
X111866581Y-85941993D01*
X112057283Y-85482731D01*
X112057717Y-84985450D01*
X111867816Y-84525857D01*
X111778675Y-84436560D01*
X111917980Y-84343480D01*
X112028489Y-84178090D01*
X112067295Y-83983000D01*
X112067295Y-82483000D01*
X112028489Y-82287910D01*
X111917980Y-82122520D01*
X111752590Y-82012011D01*
X111557500Y-81973205D01*
X110057500Y-81973205D01*
X109862410Y-82012011D01*
X109697020Y-82122520D01*
X109586511Y-82287910D01*
X109547705Y-82483000D01*
X109547705Y-83983000D01*
X109586511Y-84178090D01*
X109697020Y-84343480D01*
X109836142Y-84436437D01*
X109748419Y-84524007D01*
X109557717Y-84983269D01*
X109557283Y-85480550D01*
X109747184Y-85940143D01*
X110039732Y-86233203D01*
X109748419Y-86524007D01*
X109557717Y-86983269D01*
X109557283Y-87480550D01*
X109747184Y-87940143D01*
X110039732Y-88233203D01*
X109748419Y-88524007D01*
X109702214Y-88635282D01*
X108267447Y-87200515D01*
X108267543Y-87090568D01*
X108146007Y-86796428D01*
X107921159Y-86571188D01*
X107627232Y-86449139D01*
X107308972Y-86448861D01*
X107014832Y-86570397D01*
X106789592Y-86795245D01*
X106667543Y-87089172D01*
X106667265Y-87407432D01*
X106775084Y-87668374D01*
X106667539Y-87927372D01*
X106667261Y-88245632D01*
X106788797Y-88539772D01*
X106893992Y-88645150D01*
X106913072Y-88741074D01*
X107043136Y-88935728D01*
X109514472Y-91407064D01*
X109709126Y-91537128D01*
X109938736Y-91582800D01*
X120726200Y-91582800D01*
X120955810Y-91537128D01*
X121150464Y-91407064D01*
X122345786Y-90211742D01*
X122475850Y-90017088D01*
X122521522Y-89787478D01*
X122521522Y-84188216D01*
X122662632Y-84188339D01*
X122879755Y-84098626D01*
X122967813Y-84081110D01*
X123211130Y-83918530D01*
X123974330Y-83155330D01*
X123985461Y-83138672D01*
X124136910Y-82912013D01*
X124192052Y-82634795D01*
X124194000Y-82634795D01*
X124389090Y-82595989D01*
X124554480Y-82485480D01*
X124664989Y-82320090D01*
X124703795Y-82125000D01*
X126375205Y-82125000D01*
X126414011Y-82320090D01*
X126524520Y-82485480D01*
X126689910Y-82595989D01*
X126885000Y-82634795D01*
X128385000Y-82634795D01*
X128580090Y-82595989D01*
X128745480Y-82485480D01*
X128855989Y-82320090D01*
X128868220Y-82258600D01*
X130579814Y-82258600D01*
X130360788Y-82477245D01*
X130238739Y-82771172D01*
X130238633Y-82892889D01*
X130207058Y-82892861D01*
X129912918Y-83014397D01*
X129687678Y-83239245D01*
X129565629Y-83533172D01*
X129565351Y-83851432D01*
X129686887Y-84145572D01*
X129911735Y-84370812D01*
X130205662Y-84492861D01*
X130523922Y-84493139D01*
X130818062Y-84371603D01*
X130896800Y-84293002D01*
X137327068Y-84293002D01*
X137404745Y-84370814D01*
X137698672Y-84492863D01*
X138016932Y-84493141D01*
X138311072Y-84371605D01*
X138536312Y-84146757D01*
X138658361Y-83852830D01*
X138658639Y-83534570D01*
X138569082Y-83317824D01*
X138658361Y-83102815D01*
X138658639Y-82784555D01*
X138537103Y-82490415D01*
X138312255Y-82265175D01*
X138018328Y-82143126D01*
X137700068Y-82142848D01*
X137405928Y-82264384D01*
X137327188Y-82342987D01*
X135171136Y-82342987D01*
X135196212Y-82317955D01*
X135318261Y-82024028D01*
X135318539Y-81705768D01*
X135197003Y-81411628D01*
X134972155Y-81186388D01*
X134850898Y-81136038D01*
X134693130Y-80978270D01*
X134449813Y-80815690D01*
X134162800Y-80758600D01*
X128894795Y-80758600D01*
X128894795Y-80625000D01*
X128855989Y-80429910D01*
X128745480Y-80264520D01*
X128606358Y-80171563D01*
X128694081Y-80083993D01*
X128884783Y-79624731D01*
X128885217Y-79127450D01*
X128695316Y-78667857D01*
X128387485Y-78359487D01*
X128390860Y-78348649D01*
X127635000Y-77592789D01*
X126879140Y-78348649D01*
X126882624Y-78359838D01*
X126575919Y-78666007D01*
X126385217Y-79125269D01*
X126384783Y-79622550D01*
X126574684Y-80082143D01*
X126663825Y-80171440D01*
X126524520Y-80264520D01*
X126414011Y-80429910D01*
X126375205Y-80625000D01*
X124703795Y-80625000D01*
X124664989Y-80429910D01*
X124554480Y-80264520D01*
X124415358Y-80171563D01*
X124503081Y-80083993D01*
X124693783Y-79624731D01*
X124694217Y-79127450D01*
X124504316Y-78667857D01*
X124196485Y-78359487D01*
X124199860Y-78348649D01*
X123444000Y-77592789D01*
X123429858Y-77606931D01*
X123212069Y-77389142D01*
X123226211Y-77375000D01*
X123661789Y-77375000D01*
X124417649Y-78130860D01*
X124647738Y-78059212D01*
X124817945Y-77546479D01*
X124793146Y-77203521D01*
X126261055Y-77203521D01*
X126300018Y-77742360D01*
X126431262Y-78059212D01*
X126661351Y-78130860D01*
X127417211Y-77375000D01*
X127852789Y-77375000D01*
X128608649Y-78130860D01*
X128838738Y-78059212D01*
X129008945Y-77546479D01*
X128969982Y-77007640D01*
X128838738Y-76690788D01*
X128608649Y-76619140D01*
X127852789Y-77375000D01*
X127417211Y-77375000D01*
X126661351Y-76619140D01*
X126431262Y-76690788D01*
X126261055Y-77203521D01*
X124793146Y-77203521D01*
X124778982Y-77007640D01*
X124647738Y-76690788D01*
X124417649Y-76619140D01*
X123661789Y-77375000D01*
X123226211Y-77375000D01*
X123212069Y-77360858D01*
X123429858Y-77143069D01*
X123444000Y-77157211D01*
X124199860Y-76401351D01*
X124150699Y-76243476D01*
X124229312Y-76165000D01*
X126965906Y-76165000D01*
X126950788Y-76171262D01*
X126879140Y-76401351D01*
X127635000Y-77157211D01*
X128390860Y-76401351D01*
X128319212Y-76171262D01*
X128300348Y-76165000D01*
X135387472Y-76165000D01*
X135925000Y-76702528D01*
X135925000Y-78272068D01*
X135847188Y-78349745D01*
X135725139Y-78643672D01*
X135724861Y-78961932D01*
X135846397Y-79256072D01*
X136071245Y-79481312D01*
X136365172Y-79603361D01*
X136683432Y-79603639D01*
X136977572Y-79482103D01*
X137202812Y-79257255D01*
X137324861Y-78963328D01*
X137325139Y-78645068D01*
X137203603Y-78350928D01*
X137125000Y-78272188D01*
X137125000Y-76454000D01*
X137079328Y-76224390D01*
X136949264Y-76029736D01*
X136704473Y-75784945D01*
X136977572Y-75672103D01*
X137202812Y-75447255D01*
X137324861Y-75153328D01*
X137325139Y-74835068D01*
X137203603Y-74540928D01*
X136978755Y-74315688D01*
X136684828Y-74193639D01*
X136366568Y-74193361D01*
X136072428Y-74314897D01*
X135985751Y-74401423D01*
X135343774Y-74401423D01*
X135343939Y-74212768D01*
X135222403Y-73918628D01*
X134997555Y-73693388D01*
X134876298Y-73643038D01*
X134616930Y-73383670D01*
X134373613Y-73221090D01*
X134086600Y-73164000D01*
X132867907Y-73164000D01*
X132747828Y-73114139D01*
X132429568Y-73113861D01*
X132135428Y-73235397D01*
X131910188Y-73460245D01*
X131788139Y-73754172D01*
X131787861Y-74072432D01*
X131909397Y-74366572D01*
X131944187Y-74401423D01*
X128839878Y-74401423D01*
X128879361Y-74306338D01*
X128879458Y-74195080D01*
X129710264Y-73364274D01*
X129840328Y-73169620D01*
X129886000Y-72940010D01*
X129886000Y-72286432D01*
X129963812Y-72208755D01*
X130085861Y-71914828D01*
X130086139Y-71596568D01*
X129964603Y-71302428D01*
X129886000Y-71223688D01*
X129886000Y-70027800D01*
X129840328Y-69798190D01*
X129840328Y-69798189D01*
X129710264Y-69603536D01*
X129628843Y-69522115D01*
X129628939Y-69412168D01*
X129507403Y-69118028D01*
X129282555Y-68892788D01*
X128988628Y-68770739D01*
X128670368Y-68770461D01*
X128376228Y-68891997D01*
X128150988Y-69116845D01*
X128028939Y-69410772D01*
X128028661Y-69729032D01*
X128150197Y-70023172D01*
X128375045Y-70248412D01*
X128668972Y-70370461D01*
X128686000Y-70370476D01*
X128686000Y-71223568D01*
X128608188Y-71301245D01*
X128486139Y-71595172D01*
X128485861Y-71913432D01*
X128607397Y-72207572D01*
X128686000Y-72286312D01*
X128686000Y-72691482D01*
X128031015Y-73346467D01*
X127921068Y-73346371D01*
X127626928Y-73467907D01*
X127401688Y-73692755D01*
X127279639Y-73986682D01*
X127279361Y-74304942D01*
X127319226Y-74401423D01*
X123015009Y-74401423D01*
X122937332Y-74323611D01*
X122643405Y-74201562D01*
X122521522Y-74201456D01*
X122521522Y-69064881D01*
X126878482Y-64707921D01*
X126922599Y-64726240D01*
X127380193Y-64726640D01*
X127803108Y-64551895D01*
X128126958Y-64228610D01*
X128302440Y-63806001D01*
X128302441Y-63803993D01*
X128541960Y-63803993D01*
X128716705Y-64226908D01*
X129039990Y-64550758D01*
X129462599Y-64726240D01*
X129920193Y-64726640D01*
X130343108Y-64551895D01*
X130666958Y-64228610D01*
X130842440Y-63806001D01*
X130842441Y-63803993D01*
X131081960Y-63803993D01*
X131256705Y-64226908D01*
X131579990Y-64550758D01*
X132002599Y-64726240D01*
X132460193Y-64726640D01*
X132883108Y-64551895D01*
X133206958Y-64228610D01*
X133382440Y-63806001D01*
X133382840Y-63348407D01*
X133208095Y-62925492D01*
X132884810Y-62601642D01*
X132462201Y-62426160D01*
X132004607Y-62425760D01*
X131581692Y-62600505D01*
X131257842Y-62923790D01*
X131082360Y-63346399D01*
X131081960Y-63803993D01*
X130842441Y-63803993D01*
X130842840Y-63348407D01*
X130668095Y-62925492D01*
X130344810Y-62601642D01*
X129922201Y-62426160D01*
X129464607Y-62425760D01*
X129041692Y-62600505D01*
X128717842Y-62923790D01*
X128542360Y-63346399D01*
X128541960Y-63803993D01*
X128302441Y-63803993D01*
X128302840Y-63348407D01*
X128128095Y-62925492D01*
X127804810Y-62601642D01*
X127382201Y-62426160D01*
X126924607Y-62425760D01*
X126584000Y-62566496D01*
X126584000Y-62462403D01*
X126878482Y-62167921D01*
X126922599Y-62186240D01*
X127380193Y-62186640D01*
X127803108Y-62011895D01*
X128126958Y-61688610D01*
X128302440Y-61266001D01*
X128302441Y-61263993D01*
X128541960Y-61263993D01*
X128716705Y-61686908D01*
X129039990Y-62010758D01*
X129462599Y-62186240D01*
X129920193Y-62186640D01*
X130343108Y-62011895D01*
X130666958Y-61688610D01*
X130842440Y-61266001D01*
X130842441Y-61263993D01*
X131081960Y-61263993D01*
X131256705Y-61686908D01*
X131579990Y-62010758D01*
X132002599Y-62186240D01*
X132460193Y-62186640D01*
X132883108Y-62011895D01*
X133206958Y-61688610D01*
X133382440Y-61266001D01*
X133382840Y-60808407D01*
X133208095Y-60385492D01*
X132884810Y-60061642D01*
X132462201Y-59886160D01*
X132004607Y-59885760D01*
X131581692Y-60060505D01*
X131257842Y-60383790D01*
X131082360Y-60806399D01*
X131081960Y-61263993D01*
X130842441Y-61263993D01*
X130842840Y-60808407D01*
X130668095Y-60385492D01*
X130344810Y-60061642D01*
X129922201Y-59886160D01*
X129464607Y-59885760D01*
X129041692Y-60060505D01*
X128717842Y-60383790D01*
X128542360Y-60806399D01*
X128541960Y-61263993D01*
X128302441Y-61263993D01*
X128302840Y-60808407D01*
X128128095Y-60385492D01*
X127804810Y-60061642D01*
X127382201Y-59886160D01*
X126924607Y-59885760D01*
X126501692Y-60060505D01*
X126177842Y-60383790D01*
X126002360Y-60806399D01*
X126001960Y-61263993D01*
X126026343Y-61323004D01*
X125559736Y-61789611D01*
X125429672Y-61984265D01*
X125384000Y-62213875D01*
X125384000Y-62721040D01*
X125264810Y-62601642D01*
X124842201Y-62426160D01*
X124384607Y-62425760D01*
X123961692Y-62600505D01*
X123637842Y-62923790D01*
X123462360Y-63346399D01*
X123461960Y-63803993D01*
X123636705Y-64226908D01*
X123959990Y-64550758D01*
X124317333Y-64699139D01*
X121821500Y-67194972D01*
X121821500Y-64782700D01*
X121807359Y-64711607D01*
X121842599Y-64726240D01*
X122300193Y-64726640D01*
X122723108Y-64551895D01*
X123046958Y-64228610D01*
X123222440Y-63806001D01*
X123222840Y-63348407D01*
X123048095Y-62925492D01*
X122724810Y-62601642D01*
X122302201Y-62426160D01*
X121844607Y-62425760D01*
X121421692Y-62600505D01*
X121343217Y-62678843D01*
X121277464Y-62580436D01*
X120566264Y-61869236D01*
X120422347Y-61773073D01*
X120506958Y-61688610D01*
X120682440Y-61266001D01*
X120682441Y-61263993D01*
X120921960Y-61263993D01*
X121096705Y-61686908D01*
X121419990Y-62010758D01*
X121842599Y-62186240D01*
X122300193Y-62186640D01*
X122723108Y-62011895D01*
X123046958Y-61688610D01*
X123222440Y-61266001D01*
X123222441Y-61263993D01*
X123461960Y-61263993D01*
X123636705Y-61686908D01*
X123959990Y-62010758D01*
X124382599Y-62186240D01*
X124840193Y-62186640D01*
X125263108Y-62011895D01*
X125586958Y-61688610D01*
X125762440Y-61266001D01*
X125762840Y-60808407D01*
X125588095Y-60385492D01*
X125264810Y-60061642D01*
X124842201Y-59886160D01*
X124384607Y-59885760D01*
X123961692Y-60060505D01*
X123637842Y-60383790D01*
X123462360Y-60806399D01*
X123461960Y-61263993D01*
X123222441Y-61263993D01*
X123222840Y-60808407D01*
X123048095Y-60385492D01*
X122724810Y-60061642D01*
X122302201Y-59886160D01*
X121844607Y-59885760D01*
X121421692Y-60060505D01*
X121097842Y-60383790D01*
X120922360Y-60806399D01*
X120921960Y-61263993D01*
X120682441Y-61263993D01*
X120682840Y-60808407D01*
X120508095Y-60385492D01*
X120184810Y-60061642D01*
X119762201Y-59886160D01*
X119304607Y-59885760D01*
X118881692Y-60060505D01*
X118557842Y-60383790D01*
X118382360Y-60806399D01*
X118381960Y-61263993D01*
X118556705Y-61686908D01*
X118563285Y-61693500D01*
X118500279Y-61693500D01*
X118122002Y-61315223D01*
X118142440Y-61266001D01*
X118142840Y-60808407D01*
X117968095Y-60385492D01*
X117644810Y-60061642D01*
X117222201Y-59886160D01*
X116764607Y-59885760D01*
X116341692Y-60060505D01*
X116017842Y-60383790D01*
X115842360Y-60806399D01*
X115841960Y-61263993D01*
X116016705Y-61686908D01*
X116339990Y-62010758D01*
X116762599Y-62186240D01*
X117220193Y-62186640D01*
X117274092Y-62164369D01*
X117827487Y-62717764D01*
X118022141Y-62847828D01*
X118251751Y-62893500D01*
X118588185Y-62893500D01*
X118557842Y-62923790D01*
X118382360Y-63346399D01*
X118381960Y-63803993D01*
X118556705Y-64226908D01*
X118879990Y-64550758D01*
X119302599Y-64726240D01*
X119760193Y-64726640D01*
X120183108Y-64551895D01*
X120264406Y-64470738D01*
X120298872Y-64644010D01*
X120428936Y-64838664D01*
X120621500Y-65031228D01*
X120621500Y-85285972D01*
X120037878Y-85869594D01*
X119864486Y-85869443D01*
X119570346Y-85990979D01*
X119492172Y-86069017D01*
X117440000Y-84016845D01*
X117440000Y-80625000D01*
X117739205Y-80625000D01*
X117739205Y-82125000D01*
X117778011Y-82320090D01*
X117888520Y-82485480D01*
X118053910Y-82595989D01*
X118249000Y-82634795D01*
X119749000Y-82634795D01*
X119944090Y-82595989D01*
X120109480Y-82485480D01*
X120219989Y-82320090D01*
X120258795Y-82125000D01*
X120258795Y-80625000D01*
X120219989Y-80429910D01*
X120109480Y-80264520D01*
X119970358Y-80171563D01*
X120058081Y-80083993D01*
X120248783Y-79624731D01*
X120249217Y-79127450D01*
X120059316Y-78667857D01*
X119751485Y-78359487D01*
X119754860Y-78348649D01*
X118999000Y-77592789D01*
X118243140Y-78348649D01*
X118246624Y-78359838D01*
X117939919Y-78666007D01*
X117749217Y-79125269D01*
X117748783Y-79622550D01*
X117938684Y-80082143D01*
X118027825Y-80171440D01*
X117888520Y-80264520D01*
X117778011Y-80429910D01*
X117739205Y-80625000D01*
X117440000Y-80625000D01*
X117440000Y-77203521D01*
X117625055Y-77203521D01*
X117664018Y-77742360D01*
X117795262Y-78059212D01*
X118025351Y-78130860D01*
X118781211Y-77375000D01*
X119216789Y-77375000D01*
X119972649Y-78130860D01*
X120202738Y-78059212D01*
X120372945Y-77546479D01*
X120333982Y-77007640D01*
X120202738Y-76690788D01*
X119972649Y-76619140D01*
X119216789Y-77375000D01*
X118781211Y-77375000D01*
X118025351Y-76619140D01*
X117795262Y-76690788D01*
X117625055Y-77203521D01*
X117440000Y-77203521D01*
X117440000Y-76191035D01*
X117875021Y-76335445D01*
X118272615Y-76306695D01*
X118243140Y-76401351D01*
X118999000Y-77157211D01*
X119754860Y-76401351D01*
X119683212Y-76171262D01*
X119170479Y-76001055D01*
X118772885Y-76029805D01*
X118802360Y-75935149D01*
X118046500Y-75179289D01*
X118032358Y-75193431D01*
X117814569Y-74975642D01*
X117828711Y-74961500D01*
X117814569Y-74947358D01*
X118032358Y-74729569D01*
X118046500Y-74743711D01*
X118060642Y-74729569D01*
X118278431Y-74947358D01*
X118264289Y-74961500D01*
X119020149Y-75717360D01*
X119250238Y-75645712D01*
X119420445Y-75132979D01*
X119381482Y-74594140D01*
X119250238Y-74277288D01*
X119020151Y-74205640D01*
X119133074Y-74092717D01*
X119130218Y-74089861D01*
X119156980Y-74071980D01*
X119267489Y-73906590D01*
X119306295Y-73711500D01*
X119306295Y-72211500D01*
X119267489Y-72016410D01*
X119156980Y-71851020D01*
X118991590Y-71740511D01*
X118796500Y-71701705D01*
X117440000Y-71701705D01*
X117440000Y-64635818D01*
X117643108Y-64551895D01*
X117966958Y-64228610D01*
X118142440Y-63806001D01*
X118142840Y-63348407D01*
X117968095Y-62925492D01*
X117644810Y-62601642D01*
X117222201Y-62426160D01*
X116764607Y-62425760D01*
X116341692Y-62600505D01*
X116017842Y-62923790D01*
X115842360Y-63346399D01*
X115841960Y-63803993D01*
X116016705Y-64226908D01*
X116240000Y-64450593D01*
X116240000Y-64513221D01*
X115582002Y-63855223D01*
X115602440Y-63806001D01*
X115602840Y-63348407D01*
X115428095Y-62925492D01*
X115104810Y-62601642D01*
X114682201Y-62426160D01*
X114224607Y-62425760D01*
X114011000Y-62514021D01*
X114011000Y-62351528D01*
X114189876Y-62172652D01*
X114222599Y-62186240D01*
X114680193Y-62186640D01*
X115103108Y-62011895D01*
X115426958Y-61688610D01*
X115602440Y-61266001D01*
X115602840Y-60808407D01*
X115428095Y-60385492D01*
X115104810Y-60061642D01*
X114682201Y-59886160D01*
X114224607Y-59885760D01*
X113801692Y-60060505D01*
X113477842Y-60383790D01*
X113302360Y-60806399D01*
X113301960Y-61263993D01*
X113331058Y-61334414D01*
X113196126Y-61469347D01*
X113042002Y-61315223D01*
X113062440Y-61266001D01*
X113062840Y-60808407D01*
X112888095Y-60385492D01*
X112564810Y-60061642D01*
X112142201Y-59886160D01*
X111684607Y-59885760D01*
X111261692Y-60060505D01*
X110937842Y-60383790D01*
X110762360Y-60806399D01*
X110761960Y-61263993D01*
X110877450Y-61543500D01*
X110407213Y-61543500D01*
X110522440Y-61266001D01*
X110522840Y-60808407D01*
X110348095Y-60385492D01*
X110024810Y-60061642D01*
X109602201Y-59886160D01*
X109144607Y-59885760D01*
X108721692Y-60060505D01*
X108397842Y-60383790D01*
X108222360Y-60806399D01*
X108221960Y-61263993D01*
X108337450Y-61543500D01*
X107867213Y-61543500D01*
X107982440Y-61266001D01*
X107982840Y-60808407D01*
X107808095Y-60385492D01*
X107484810Y-60061642D01*
X107062201Y-59886160D01*
X106604607Y-59885760D01*
X106181692Y-60060505D01*
X105857842Y-60383790D01*
X105682360Y-60806399D01*
X105681960Y-61263993D01*
X105797450Y-61543500D01*
X105327213Y-61543500D01*
X105442440Y-61266001D01*
X105442840Y-60808407D01*
X105268095Y-60385492D01*
X104944810Y-60061642D01*
X104522201Y-59886160D01*
X104064607Y-59885760D01*
X103641692Y-60060505D01*
X103317842Y-60383790D01*
X103142360Y-60806399D01*
X103141960Y-61263993D01*
X103257450Y-61543500D01*
X102787213Y-61543500D01*
X102902440Y-61266001D01*
X102902840Y-60808407D01*
X102728095Y-60385492D01*
X102404810Y-60061642D01*
X101982201Y-59886160D01*
X101524607Y-59885760D01*
X101101692Y-60060505D01*
X100777842Y-60383790D01*
X100602360Y-60806399D01*
X100601960Y-61263993D01*
X100717450Y-61543500D01*
X100247213Y-61543500D01*
X100362440Y-61266001D01*
X100362840Y-60808407D01*
X100188095Y-60385492D01*
X99864810Y-60061642D01*
X99442201Y-59886160D01*
X98984607Y-59885760D01*
X98561692Y-60060505D01*
X98237842Y-60383790D01*
X98062360Y-60806399D01*
X98061960Y-61263993D01*
X98236705Y-61686908D01*
X98242066Y-61692278D01*
X98135970Y-61763170D01*
X97386670Y-62512470D01*
X97333365Y-62592246D01*
X97296422Y-62455306D01*
X96819974Y-62301826D01*
X96321058Y-62342358D01*
X96048378Y-62455306D01*
X95989084Y-62675095D01*
X94815716Y-62675095D01*
X94756422Y-62455306D01*
X94279974Y-62301826D01*
X93781058Y-62342358D01*
X93508378Y-62455306D01*
X93449084Y-62675095D01*
X88374386Y-62675095D01*
X89478566Y-61937305D01*
X93449084Y-61937305D01*
X93508378Y-62157094D01*
X93984826Y-62310574D01*
X94483742Y-62270042D01*
X94756422Y-62157094D01*
X94815716Y-61937305D01*
X95989084Y-61937305D01*
X96048378Y-62157094D01*
X96524826Y-62310574D01*
X97023742Y-62270042D01*
X97296422Y-62157094D01*
X97355716Y-61937305D01*
X96672400Y-61253989D01*
X95989084Y-61937305D01*
X94815716Y-61937305D01*
X94132400Y-61253989D01*
X93449084Y-61937305D01*
X89478566Y-61937305D01*
X91439773Y-60626869D01*
X93162588Y-60284180D01*
X93231293Y-60352885D01*
X93011506Y-60412178D01*
X92858026Y-60888626D01*
X92898558Y-61387542D01*
X93011506Y-61660222D01*
X93231295Y-61719516D01*
X93914611Y-61036200D01*
X94350189Y-61036200D01*
X95033505Y-61719516D01*
X95253294Y-61660222D01*
X95406774Y-61183774D01*
X95382797Y-60888626D01*
X95398026Y-60888626D01*
X95438558Y-61387542D01*
X95551506Y-61660222D01*
X95771295Y-61719516D01*
X96454611Y-61036200D01*
X96890189Y-61036200D01*
X97573505Y-61719516D01*
X97793294Y-61660222D01*
X97946774Y-61183774D01*
X97906242Y-60684858D01*
X97793294Y-60412178D01*
X97573505Y-60352884D01*
X96890189Y-61036200D01*
X96454611Y-61036200D01*
X95771295Y-60352884D01*
X95551506Y-60412178D01*
X95398026Y-60888626D01*
X95382797Y-60888626D01*
X95366242Y-60684858D01*
X95253294Y-60412178D01*
X95033505Y-60352884D01*
X94350189Y-61036200D01*
X93914611Y-61036200D01*
X93900469Y-61022058D01*
X94118258Y-60804269D01*
X94132400Y-60818411D01*
X94815716Y-60135095D01*
X95989084Y-60135095D01*
X96672400Y-60818411D01*
X97355716Y-60135095D01*
X97296422Y-59915306D01*
X96819974Y-59761826D01*
X96321058Y-59802358D01*
X96048378Y-59915306D01*
X95989084Y-60135095D01*
X94815716Y-60135095D01*
X94769695Y-59964505D01*
X96132130Y-59693500D01*
X148846751Y-59693500D01*
X148842495Y-59695263D01*
X148842495Y-59695263D01*
G37*
X148842495Y-59695263D02*
X148671462Y-59866296D01*
X148578900Y-60089762D01*
X148578900Y-60702064D01*
X148448095Y-60385492D01*
X148124810Y-60061642D01*
X147702201Y-59886160D01*
X147244607Y-59885760D01*
X146821692Y-60060505D01*
X146497842Y-60383790D01*
X146322360Y-60806399D01*
X146321960Y-61263993D01*
X146496705Y-61686908D01*
X146819990Y-62010758D01*
X147242599Y-62186240D01*
X147700193Y-62186640D01*
X148123108Y-62011895D01*
X148446958Y-61688610D01*
X148578900Y-61370857D01*
X148578900Y-61982638D01*
X148671462Y-62206104D01*
X148842495Y-62377137D01*
X149065961Y-62469700D01*
X149384495Y-62469700D01*
X149329084Y-62675095D01*
X150012400Y-63358411D01*
X150695716Y-62675095D01*
X150640305Y-62469700D01*
X150958839Y-62469700D01*
X151182305Y-62377137D01*
X151353338Y-62206104D01*
X151445900Y-61982638D01*
X151445900Y-61342200D01*
X151293900Y-61190200D01*
X150166400Y-61190200D01*
X150166400Y-61210200D01*
X149858400Y-61210200D01*
X149858400Y-61190200D01*
X149838400Y-61190200D01*
X149838400Y-60882200D01*
X149858400Y-60882200D01*
X149858400Y-60862200D01*
X150166400Y-60862200D01*
X150166400Y-60882200D01*
X151293900Y-60882200D01*
X151445900Y-60730200D01*
X151445900Y-60089762D01*
X151353338Y-59866296D01*
X151182305Y-59695263D01*
X151178049Y-59693500D01*
X154120075Y-59693500D01*
X153516319Y-59942967D01*
X152731921Y-60725997D01*
X152306885Y-61749599D01*
X152305917Y-62857938D01*
X152729167Y-63882281D01*
X153215335Y-64369298D01*
X151023290Y-64369298D01*
X150913507Y-64259515D01*
X151133294Y-64200222D01*
X151286774Y-63723774D01*
X151246242Y-63224858D01*
X151133294Y-62952178D01*
X150913505Y-62892884D01*
X150230189Y-63576200D01*
X150244331Y-63590342D01*
X150026542Y-63808131D01*
X150012400Y-63793989D01*
X149998258Y-63808131D01*
X149780469Y-63590342D01*
X149794611Y-63576200D01*
X149111295Y-62892884D01*
X148891506Y-62952178D01*
X148738026Y-63428626D01*
X148778558Y-63927542D01*
X148891506Y-64200222D01*
X149111293Y-64259515D01*
X149001510Y-64369298D01*
X148306024Y-64369298D01*
X148446958Y-64228610D01*
X148622440Y-63806001D01*
X148622840Y-63348407D01*
X148448095Y-62925492D01*
X148124810Y-62601642D01*
X147702201Y-62426160D01*
X147244607Y-62425760D01*
X146821692Y-62600505D01*
X146497842Y-62923790D01*
X146322360Y-63346399D01*
X146321960Y-63803993D01*
X146496705Y-64226908D01*
X146819990Y-64550758D01*
X147230325Y-64721143D01*
X146446326Y-65505142D01*
X146316262Y-65699796D01*
X146307812Y-65742278D01*
X145253585Y-64688051D01*
X145583108Y-64551895D01*
X145906958Y-64228610D01*
X146082440Y-63806001D01*
X146082840Y-63348407D01*
X145908095Y-62925492D01*
X145584810Y-62601642D01*
X145162201Y-62426160D01*
X144704607Y-62425760D01*
X144281692Y-62600505D01*
X143957842Y-62923790D01*
X143782360Y-63346399D01*
X143781960Y-63803993D01*
X143854478Y-63979500D01*
X143470397Y-63979500D01*
X143542440Y-63806001D01*
X143542840Y-63348407D01*
X143368095Y-62925492D01*
X143044810Y-62601642D01*
X142622201Y-62426160D01*
X142164607Y-62425760D01*
X141741692Y-62600505D01*
X141417842Y-62923790D01*
X141242360Y-63346399D01*
X141241960Y-63803993D01*
X141314478Y-63979500D01*
X140930397Y-63979500D01*
X141002440Y-63806001D01*
X141002840Y-63348407D01*
X140828095Y-62925492D01*
X140504810Y-62601642D01*
X140082201Y-62426160D01*
X139624607Y-62425760D01*
X139201692Y-62600505D01*
X139157000Y-62645119D01*
X139157000Y-62278749D01*
X139111328Y-62049139D01*
X138981264Y-61854485D01*
X138442002Y-61315223D01*
X138462440Y-61266001D01*
X138462441Y-61263993D01*
X138701960Y-61263993D01*
X138876705Y-61686908D01*
X139199990Y-62010758D01*
X139622599Y-62186240D01*
X140080193Y-62186640D01*
X140503108Y-62011895D01*
X140826958Y-61688610D01*
X141002440Y-61266001D01*
X141002441Y-61263993D01*
X141241960Y-61263993D01*
X141416705Y-61686908D01*
X141739990Y-62010758D01*
X142162599Y-62186240D01*
X142620193Y-62186640D01*
X143043108Y-62011895D01*
X143366958Y-61688610D01*
X143542440Y-61266001D01*
X143542441Y-61263993D01*
X143781960Y-61263993D01*
X143956705Y-61686908D01*
X144279990Y-62010758D01*
X144702599Y-62186240D01*
X145160193Y-62186640D01*
X145583108Y-62011895D01*
X145906958Y-61688610D01*
X146082440Y-61266001D01*
X146082840Y-60808407D01*
X145908095Y-60385492D01*
X145584810Y-60061642D01*
X145162201Y-59886160D01*
X144704607Y-59885760D01*
X144281692Y-60060505D01*
X143957842Y-60383790D01*
X143782360Y-60806399D01*
X143781960Y-61263993D01*
X143542441Y-61263993D01*
X143542840Y-60808407D01*
X143368095Y-60385492D01*
X143044810Y-60061642D01*
X142622201Y-59886160D01*
X142164607Y-59885760D01*
X141741692Y-60060505D01*
X141417842Y-60383790D01*
X141242360Y-60806399D01*
X141241960Y-61263993D01*
X141002441Y-61263993D01*
X141002840Y-60808407D01*
X140828095Y-60385492D01*
X140504810Y-60061642D01*
X140082201Y-59886160D01*
X139624607Y-59885760D01*
X139201692Y-60060505D01*
X138877842Y-60383790D01*
X138702360Y-60806399D01*
X138701960Y-61263993D01*
X138462441Y-61263993D01*
X138462840Y-60808407D01*
X138288095Y-60385492D01*
X137964810Y-60061642D01*
X137542201Y-59886160D01*
X137084607Y-59885760D01*
X136661692Y-60060505D01*
X136337842Y-60383790D01*
X136162360Y-60806399D01*
X136161960Y-61263993D01*
X136336705Y-61686908D01*
X136659990Y-62010758D01*
X137082599Y-62186240D01*
X137540193Y-62186640D01*
X137594092Y-62164369D01*
X137957000Y-62527277D01*
X137957000Y-62598399D01*
X137542201Y-62426160D01*
X137084607Y-62425760D01*
X136661692Y-62600505D01*
X136617000Y-62645119D01*
X136617000Y-62278749D01*
X136571328Y-62049139D01*
X136441264Y-61854485D01*
X135902002Y-61315223D01*
X135922440Y-61266001D01*
X135922840Y-60808407D01*
X135748095Y-60385492D01*
X135424810Y-60061642D01*
X135002201Y-59886160D01*
X134544607Y-59885760D01*
X134121692Y-60060505D01*
X133797842Y-60383790D01*
X133622360Y-60806399D01*
X133621960Y-61263993D01*
X133796705Y-61686908D01*
X134119990Y-62010758D01*
X134542599Y-62186240D01*
X135000193Y-62186640D01*
X135054092Y-62164369D01*
X135417000Y-62527277D01*
X135417000Y-62598399D01*
X135002201Y-62426160D01*
X134544607Y-62425760D01*
X134121692Y-62600505D01*
X133797842Y-62923790D01*
X133622360Y-63346399D01*
X133621960Y-63803993D01*
X133796705Y-64226908D01*
X134119990Y-64550758D01*
X134542599Y-64726240D01*
X135000193Y-64726640D01*
X135423108Y-64551895D01*
X135471005Y-64504081D01*
X135592736Y-64686264D01*
X136354736Y-65448264D01*
X136549390Y-65578328D01*
X136779000Y-65624000D01*
X143896472Y-65624000D01*
X144815000Y-66542528D01*
X144815000Y-74739500D01*
X144860672Y-74969110D01*
X144990736Y-75163764D01*
X145608235Y-75781263D01*
X145802888Y-75911327D01*
X146032499Y-75956999D01*
X147303931Y-75956999D01*
X147533541Y-75911327D01*
X147728195Y-75781263D01*
X148028784Y-75480674D01*
X148138731Y-75480770D01*
X148432871Y-75359234D01*
X148658111Y-75134386D01*
X148780160Y-74840459D01*
X148780438Y-74522199D01*
X148658902Y-74228059D01*
X148434054Y-74002819D01*
X148140127Y-73880770D01*
X147821867Y-73880492D01*
X147527727Y-74002028D01*
X147302487Y-74226876D01*
X147180438Y-74520803D01*
X147180341Y-74632061D01*
X147055403Y-74756999D01*
X146802921Y-74756999D01*
X146897716Y-74528706D01*
X146897994Y-74210446D01*
X146776458Y-73916306D01*
X146697855Y-73837566D01*
X146697855Y-68756062D01*
X162558000Y-68756062D01*
X162558000Y-68921000D01*
X162710000Y-69073000D01*
X164412000Y-69073000D01*
X164412000Y-68421000D01*
X164720000Y-68421000D01*
X164720000Y-69073000D01*
X166422000Y-69073000D01*
X166574000Y-68921000D01*
X166574000Y-68756062D01*
X166481438Y-68532596D01*
X166310405Y-68361563D01*
X166086939Y-68269000D01*
X164872000Y-68269000D01*
X164720000Y-68421000D01*
X164412000Y-68421000D01*
X164260000Y-68269000D01*
X163045061Y-68269000D01*
X162821595Y-68361563D01*
X162650562Y-68532596D01*
X162558000Y-68756062D01*
X146697855Y-68756062D01*
X146697855Y-67454388D01*
X146710762Y-67459747D01*
X147029022Y-67460025D01*
X147323162Y-67338489D01*
X147548402Y-67113641D01*
X147670451Y-66819714D01*
X147670729Y-66501454D01*
X147549193Y-66207314D01*
X147495249Y-66153275D01*
X147689987Y-65958537D01*
X147695497Y-65971872D01*
X147920345Y-66197112D01*
X148214272Y-66319161D01*
X148532532Y-66319439D01*
X148826672Y-66197903D01*
X148905412Y-66119300D01*
X159583377Y-66119300D01*
X159658897Y-66302072D01*
X159883745Y-66527312D01*
X160177672Y-66649361D01*
X160495932Y-66649639D01*
X160790072Y-66528103D01*
X161015312Y-66303255D01*
X161137361Y-66009328D01*
X161137422Y-65939461D01*
X161153745Y-65955812D01*
X161447672Y-66077861D01*
X161765932Y-66078139D01*
X162060072Y-65956603D01*
X162285312Y-65731755D01*
X162407361Y-65437828D01*
X162407639Y-65119568D01*
X162286103Y-64825428D01*
X162061255Y-64600188D01*
X161767328Y-64478139D01*
X161622758Y-64478013D01*
X161528408Y-64414970D01*
X161298798Y-64369298D01*
X156969140Y-64369298D01*
X157452879Y-63886403D01*
X157877915Y-62862801D01*
X157878883Y-61754462D01*
X157455633Y-60730119D01*
X156672603Y-59945721D01*
X156065186Y-59693500D01*
X163328865Y-59693500D01*
X165591185Y-60143502D01*
X167461076Y-61392924D01*
X168710496Y-63262813D01*
X169160500Y-65525135D01*
X169160500Y-79117500D01*
X149288500Y-79117500D01*
X149068457Y-79161269D01*
X148881914Y-79285914D01*
X148757269Y-79472457D01*
X148713500Y-79692500D01*
X148713500Y-98234500D01*
X148757269Y-98454543D01*
X148881914Y-98641086D01*
X149068457Y-98765731D01*
X149288500Y-98809500D01*
X162175500Y-98809500D01*
X162175500Y-113153500D01*
X156126198Y-113153500D01*
X156668481Y-112929433D01*
X157452879Y-112146403D01*
X157877915Y-111122801D01*
X157878883Y-110014462D01*
X157455633Y-108990119D01*
X156672603Y-108205721D01*
X155649001Y-107780685D01*
X154540662Y-107779717D01*
X153516319Y-108202967D01*
X152731921Y-108985997D01*
X152306885Y-110009599D01*
X152305917Y-111117938D01*
X152729167Y-112142281D01*
X153512197Y-112926679D01*
X154058444Y-113153500D01*
X96132130Y-113153500D01*
X94663410Y-112861353D01*
X94783108Y-112811895D01*
X95106958Y-112488610D01*
X95282440Y-112066001D01*
X95282441Y-112063993D01*
X95521960Y-112063993D01*
X95696705Y-112486908D01*
X96019990Y-112810758D01*
X96442599Y-112986240D01*
X96900193Y-112986640D01*
X97323108Y-112811895D01*
X97646958Y-112488610D01*
X97822440Y-112066001D01*
X97822441Y-112063993D01*
X98061960Y-112063993D01*
X98236705Y-112486908D01*
X98559990Y-112810758D01*
X98982599Y-112986240D01*
X99440193Y-112986640D01*
X99863108Y-112811895D01*
X100186958Y-112488610D01*
X100362440Y-112066001D01*
X100362441Y-112063993D01*
X100601960Y-112063993D01*
X100776705Y-112486908D01*
X101099990Y-112810758D01*
X101522599Y-112986240D01*
X101980193Y-112986640D01*
X102403108Y-112811895D01*
X102726958Y-112488610D01*
X102902440Y-112066001D01*
X102902441Y-112063993D01*
X103141960Y-112063993D01*
X103316705Y-112486908D01*
X103639990Y-112810758D01*
X104062599Y-112986240D01*
X104520193Y-112986640D01*
X104943108Y-112811895D01*
X105266958Y-112488610D01*
X105442440Y-112066001D01*
X105442441Y-112063993D01*
X105681960Y-112063993D01*
X105856705Y-112486908D01*
X106179990Y-112810758D01*
X106602599Y-112986240D01*
X107060193Y-112986640D01*
X107483108Y-112811895D01*
X107806958Y-112488610D01*
X107982440Y-112066001D01*
X107982441Y-112063993D01*
X108221960Y-112063993D01*
X108396705Y-112486908D01*
X108719990Y-112810758D01*
X109142599Y-112986240D01*
X109600193Y-112986640D01*
X110023108Y-112811895D01*
X110346958Y-112488610D01*
X110522440Y-112066001D01*
X110522441Y-112063993D01*
X110761960Y-112063993D01*
X110936705Y-112486908D01*
X111259990Y-112810758D01*
X111682599Y-112986240D01*
X112140193Y-112986640D01*
X112563108Y-112811895D01*
X112886958Y-112488610D01*
X113062440Y-112066001D01*
X113062441Y-112063993D01*
X113301960Y-112063993D01*
X113476705Y-112486908D01*
X113799990Y-112810758D01*
X114222599Y-112986240D01*
X114680193Y-112986640D01*
X115103108Y-112811895D01*
X115426958Y-112488610D01*
X115602440Y-112066001D01*
X115602441Y-112063993D01*
X115841960Y-112063993D01*
X116016705Y-112486908D01*
X116339990Y-112810758D01*
X116762599Y-112986240D01*
X117220193Y-112986640D01*
X117643108Y-112811895D01*
X117966958Y-112488610D01*
X118142440Y-112066001D01*
X118142441Y-112063993D01*
X118381960Y-112063993D01*
X118556705Y-112486908D01*
X118879990Y-112810758D01*
X119302599Y-112986240D01*
X119760193Y-112986640D01*
X120183108Y-112811895D01*
X120506958Y-112488610D01*
X120682440Y-112066001D01*
X120682840Y-111608407D01*
X120508095Y-111185492D01*
X120184810Y-110861642D01*
X119762201Y-110686160D01*
X119304607Y-110685760D01*
X118881692Y-110860505D01*
X118557842Y-111183790D01*
X118382360Y-111606399D01*
X118381960Y-112063993D01*
X118142441Y-112063993D01*
X118142840Y-111608407D01*
X117968095Y-111185492D01*
X117644810Y-110861642D01*
X117222201Y-110686160D01*
X116764607Y-110685760D01*
X116341692Y-110860505D01*
X116017842Y-111183790D01*
X115842360Y-111606399D01*
X115841960Y-112063993D01*
X115602441Y-112063993D01*
X115602840Y-111608407D01*
X115428095Y-111185492D01*
X115104810Y-110861642D01*
X114682201Y-110686160D01*
X114224607Y-110685760D01*
X113801692Y-110860505D01*
X113477842Y-111183790D01*
X113302360Y-111606399D01*
X113301960Y-112063993D01*
X113062441Y-112063993D01*
X113062840Y-111608407D01*
X112888095Y-111185492D01*
X112564810Y-110861642D01*
X112142201Y-110686160D01*
X111684607Y-110685760D01*
X111261692Y-110860505D01*
X110937842Y-111183790D01*
X110762360Y-111606399D01*
X110761960Y-112063993D01*
X110522441Y-112063993D01*
X110522840Y-111608407D01*
X110348095Y-111185492D01*
X110024810Y-110861642D01*
X109602201Y-110686160D01*
X109144607Y-110685760D01*
X108721692Y-110860505D01*
X108397842Y-111183790D01*
X108222360Y-111606399D01*
X108221960Y-112063993D01*
X107982441Y-112063993D01*
X107982840Y-111608407D01*
X107808095Y-111185492D01*
X107484810Y-110861642D01*
X107062201Y-110686160D01*
X106604607Y-110685760D01*
X106181692Y-110860505D01*
X105857842Y-111183790D01*
X105682360Y-111606399D01*
X105681960Y-112063993D01*
X105442441Y-112063993D01*
X105442840Y-111608407D01*
X105268095Y-111185492D01*
X104944810Y-110861642D01*
X104522201Y-110686160D01*
X104064607Y-110685760D01*
X103641692Y-110860505D01*
X103317842Y-111183790D01*
X103142360Y-111606399D01*
X103141960Y-112063993D01*
X102902441Y-112063993D01*
X102902840Y-111608407D01*
X102728095Y-111185492D01*
X102404810Y-110861642D01*
X101982201Y-110686160D01*
X101524607Y-110685760D01*
X101101692Y-110860505D01*
X100777842Y-111183790D01*
X100602360Y-111606399D01*
X100601960Y-112063993D01*
X100362441Y-112063993D01*
X100362840Y-111608407D01*
X100188095Y-111185492D01*
X99864810Y-110861642D01*
X99442201Y-110686160D01*
X98984607Y-110685760D01*
X98561692Y-110860505D01*
X98237842Y-111183790D01*
X98062360Y-111606399D01*
X98061960Y-112063993D01*
X97822441Y-112063993D01*
X97822840Y-111608407D01*
X97648095Y-111185492D01*
X97324810Y-110861642D01*
X96902201Y-110686160D01*
X96444607Y-110685760D01*
X96021692Y-110860505D01*
X95697842Y-111183790D01*
X95522360Y-111606399D01*
X95521960Y-112063993D01*
X95282441Y-112063993D01*
X95282840Y-111608407D01*
X95108095Y-111185492D01*
X94784810Y-110861642D01*
X94362201Y-110686160D01*
X93904607Y-110685760D01*
X93481692Y-110860505D01*
X93157842Y-111183790D01*
X92982360Y-111606399D01*
X92981960Y-112063993D01*
X93156705Y-112486908D01*
X93249803Y-112580169D01*
X91439773Y-112220131D01*
X88194089Y-110051434D01*
X88495799Y-110176715D01*
X89604138Y-110177683D01*
X90628481Y-109754433D01*
X90859323Y-109523993D01*
X92981960Y-109523993D01*
X93156705Y-109946908D01*
X93479990Y-110270758D01*
X93902599Y-110446240D01*
X94360193Y-110446640D01*
X94783108Y-110271895D01*
X95106958Y-109948610D01*
X95282440Y-109526001D01*
X95282441Y-109523993D01*
X95521960Y-109523993D01*
X95696705Y-109946908D01*
X96019990Y-110270758D01*
X96442599Y-110446240D01*
X96900193Y-110446640D01*
X97323108Y-110271895D01*
X97646958Y-109948610D01*
X97822440Y-109526001D01*
X97822441Y-109523993D01*
X98061960Y-109523993D01*
X98236705Y-109946908D01*
X98559990Y-110270758D01*
X98982599Y-110446240D01*
X99440193Y-110446640D01*
X99863108Y-110271895D01*
X100186958Y-109948610D01*
X100362440Y-109526001D01*
X100362441Y-109523993D01*
X100601960Y-109523993D01*
X100776705Y-109946908D01*
X101099990Y-110270758D01*
X101522599Y-110446240D01*
X101980193Y-110446640D01*
X102403108Y-110271895D01*
X102726958Y-109948610D01*
X102902440Y-109526001D01*
X102902441Y-109523993D01*
X103141960Y-109523993D01*
X103316705Y-109946908D01*
X103639990Y-110270758D01*
X104062599Y-110446240D01*
X104520193Y-110446640D01*
X104943108Y-110271895D01*
X105266958Y-109948610D01*
X105442440Y-109526001D01*
X105442441Y-109523993D01*
X105681960Y-109523993D01*
X105856705Y-109946908D01*
X106179990Y-110270758D01*
X106602599Y-110446240D01*
X107060193Y-110446640D01*
X107483108Y-110271895D01*
X107806958Y-109948610D01*
X107982440Y-109526001D01*
X107982441Y-109523993D01*
X108221960Y-109523993D01*
X108396705Y-109946908D01*
X108719990Y-110270758D01*
X109142599Y-110446240D01*
X109600193Y-110446640D01*
X110023108Y-110271895D01*
X110346958Y-109948610D01*
X110522440Y-109526001D01*
X110522441Y-109523993D01*
X110761960Y-109523993D01*
X110936705Y-109946908D01*
X111259990Y-110270758D01*
X111682599Y-110446240D01*
X112140193Y-110446640D01*
X112563108Y-110271895D01*
X112886958Y-109948610D01*
X113062440Y-109526001D01*
X113062441Y-109523993D01*
X113301960Y-109523993D01*
X113476705Y-109946908D01*
X113799990Y-110270758D01*
X114222599Y-110446240D01*
X114680193Y-110446640D01*
X115103108Y-110271895D01*
X115426958Y-109948610D01*
X115602440Y-109526001D01*
X115602441Y-109523993D01*
X115841960Y-109523993D01*
X116016705Y-109946908D01*
X116339990Y-110270758D01*
X116762599Y-110446240D01*
X117220193Y-110446640D01*
X117643108Y-110271895D01*
X117966958Y-109948610D01*
X118142440Y-109526001D01*
X118142441Y-109523993D01*
X118381960Y-109523993D01*
X118556705Y-109946908D01*
X118879990Y-110270758D01*
X119302599Y-110446240D01*
X119760193Y-110446640D01*
X120183108Y-110271895D01*
X120431000Y-110024435D01*
X120431000Y-110792749D01*
X120476672Y-111022359D01*
X120606736Y-111217013D01*
X120944002Y-111554279D01*
X120922360Y-111606399D01*
X120921960Y-112063993D01*
X121096705Y-112486908D01*
X121419990Y-112810758D01*
X121842599Y-112986240D01*
X122300193Y-112986640D01*
X122723108Y-112811895D01*
X123046958Y-112488610D01*
X123222440Y-112066001D01*
X123222840Y-111608407D01*
X123048095Y-111185492D01*
X122724810Y-110861642D01*
X122302201Y-110686160D01*
X121844607Y-110685760D01*
X121793610Y-110706831D01*
X121631000Y-110544221D01*
X121631000Y-110358377D01*
X121842599Y-110446240D01*
X122300193Y-110446640D01*
X122723108Y-110271895D01*
X123034500Y-109961046D01*
X123034500Y-110856249D01*
X123080172Y-111085859D01*
X123210236Y-111280513D01*
X123484002Y-111554279D01*
X123462360Y-111606399D01*
X123461960Y-112063993D01*
X123636705Y-112486908D01*
X123959990Y-112810758D01*
X124382599Y-112986240D01*
X124840193Y-112986640D01*
X125263108Y-112811895D01*
X125586958Y-112488610D01*
X125762440Y-112066001D01*
X125762441Y-112063993D01*
X126001960Y-112063993D01*
X126176705Y-112486908D01*
X126499990Y-112810758D01*
X126922599Y-112986240D01*
X127380193Y-112986640D01*
X127803108Y-112811895D01*
X128126958Y-112488610D01*
X128302440Y-112066001D01*
X128302441Y-112063993D01*
X128541960Y-112063993D01*
X128716705Y-112486908D01*
X129039990Y-112810758D01*
X129462599Y-112986240D01*
X129920193Y-112986640D01*
X130343108Y-112811895D01*
X130666958Y-112488610D01*
X130842440Y-112066001D01*
X130842441Y-112063993D01*
X131081960Y-112063993D01*
X131256705Y-112486908D01*
X131579990Y-112810758D01*
X132002599Y-112986240D01*
X132460193Y-112986640D01*
X132883108Y-112811895D01*
X133206958Y-112488610D01*
X133382440Y-112066001D01*
X133382441Y-112063993D01*
X133621960Y-112063993D01*
X133796705Y-112486908D01*
X134119990Y-112810758D01*
X134542599Y-112986240D01*
X135000193Y-112986640D01*
X135423108Y-112811895D01*
X135746958Y-112488610D01*
X135922440Y-112066001D01*
X135922441Y-112063993D01*
X136161960Y-112063993D01*
X136336705Y-112486908D01*
X136659990Y-112810758D01*
X137082599Y-112986240D01*
X137540193Y-112986640D01*
X137963108Y-112811895D01*
X138286958Y-112488610D01*
X138462440Y-112066001D01*
X138462441Y-112063993D01*
X138701960Y-112063993D01*
X138876705Y-112486908D01*
X139199990Y-112810758D01*
X139622599Y-112986240D01*
X140080193Y-112986640D01*
X140503108Y-112811895D01*
X140826958Y-112488610D01*
X141002440Y-112066001D01*
X141002441Y-112063993D01*
X141241960Y-112063993D01*
X141416705Y-112486908D01*
X141739990Y-112810758D01*
X142162599Y-112986240D01*
X142620193Y-112986640D01*
X143043108Y-112811895D01*
X143366958Y-112488610D01*
X143542440Y-112066001D01*
X143542441Y-112063993D01*
X143781960Y-112063993D01*
X143956705Y-112486908D01*
X144279990Y-112810758D01*
X144702599Y-112986240D01*
X145160193Y-112986640D01*
X145583108Y-112811895D01*
X145906958Y-112488610D01*
X146082440Y-112066001D01*
X146082840Y-111608407D01*
X145908095Y-111185492D01*
X145584810Y-110861642D01*
X145162201Y-110686160D01*
X144704607Y-110685760D01*
X144281692Y-110860505D01*
X143957842Y-111183790D01*
X143782360Y-111606399D01*
X143781960Y-112063993D01*
X143542441Y-112063993D01*
X143542840Y-111608407D01*
X143368095Y-111185492D01*
X143044810Y-110861642D01*
X142622201Y-110686160D01*
X142164607Y-110685760D01*
X141741692Y-110860505D01*
X141417842Y-111183790D01*
X141242360Y-111606399D01*
X141241960Y-112063993D01*
X141002441Y-112063993D01*
X141002840Y-111608407D01*
X140828095Y-111185492D01*
X140504810Y-110861642D01*
X140082201Y-110686160D01*
X139624607Y-110685760D01*
X139201692Y-110860505D01*
X138877842Y-111183790D01*
X138702360Y-111606399D01*
X138701960Y-112063993D01*
X138462441Y-112063993D01*
X138462840Y-111608407D01*
X138288095Y-111185492D01*
X137964810Y-110861642D01*
X137542201Y-110686160D01*
X137084607Y-110685760D01*
X136661692Y-110860505D01*
X136337842Y-111183790D01*
X136162360Y-111606399D01*
X136161960Y-112063993D01*
X135922441Y-112063993D01*
X135922840Y-111608407D01*
X135748095Y-111185492D01*
X135424810Y-110861642D01*
X135002201Y-110686160D01*
X134544607Y-110685760D01*
X134121692Y-110860505D01*
X133797842Y-111183790D01*
X133622360Y-111606399D01*
X133621960Y-112063993D01*
X133382441Y-112063993D01*
X133382840Y-111608407D01*
X133208095Y-111185492D01*
X132884810Y-110861642D01*
X132462201Y-110686160D01*
X132004607Y-110685760D01*
X131581692Y-110860505D01*
X131257842Y-111183790D01*
X131082360Y-111606399D01*
X131081960Y-112063993D01*
X130842441Y-112063993D01*
X130842840Y-111608407D01*
X130668095Y-111185492D01*
X130344810Y-110861642D01*
X129922201Y-110686160D01*
X129464607Y-110685760D01*
X129041692Y-110860505D01*
X128717842Y-111183790D01*
X128542360Y-111606399D01*
X128541960Y-112063993D01*
X128302441Y-112063993D01*
X128302840Y-111608407D01*
X128128095Y-111185492D01*
X127804810Y-110861642D01*
X127382201Y-110686160D01*
X126924607Y-110685760D01*
X126501692Y-110860505D01*
X126177842Y-111183790D01*
X126002360Y-111606399D01*
X126001960Y-112063993D01*
X125762441Y-112063993D01*
X125762840Y-111608407D01*
X125588095Y-111185492D01*
X125264810Y-110861642D01*
X124842201Y-110686160D01*
X124384607Y-110685760D01*
X124333610Y-110706831D01*
X124234500Y-110607721D01*
X124234500Y-110384744D01*
X124382599Y-110446240D01*
X124840193Y-110446640D01*
X125263108Y-110271895D01*
X125586958Y-109948610D01*
X125762440Y-109526001D01*
X125762441Y-109523993D01*
X126001960Y-109523993D01*
X126176705Y-109946908D01*
X126499990Y-110270758D01*
X126922599Y-110446240D01*
X127380193Y-110446640D01*
X127803108Y-110271895D01*
X128126958Y-109948610D01*
X128302440Y-109526001D01*
X128302441Y-109523993D01*
X128541960Y-109523993D01*
X128716705Y-109946908D01*
X129039990Y-110270758D01*
X129462599Y-110446240D01*
X129920193Y-110446640D01*
X130343108Y-110271895D01*
X130666958Y-109948610D01*
X130842440Y-109526001D01*
X130842441Y-109523993D01*
X131081960Y-109523993D01*
X131256705Y-109946908D01*
X131579990Y-110270758D01*
X132002599Y-110446240D01*
X132460193Y-110446640D01*
X132883108Y-110271895D01*
X133206958Y-109948610D01*
X133382440Y-109526001D01*
X133382441Y-109523993D01*
X133621960Y-109523993D01*
X133796705Y-109946908D01*
X134119990Y-110270758D01*
X134542599Y-110446240D01*
X135000193Y-110446640D01*
X135423108Y-110271895D01*
X135746958Y-109948610D01*
X135922440Y-109526001D01*
X135922441Y-109523993D01*
X136161960Y-109523993D01*
X136336705Y-109946908D01*
X136659990Y-110270758D01*
X137082599Y-110446240D01*
X137540193Y-110446640D01*
X137963108Y-110271895D01*
X138286958Y-109948610D01*
X138462440Y-109526001D01*
X138462441Y-109523993D01*
X138701960Y-109523993D01*
X138876705Y-109946908D01*
X139199990Y-110270758D01*
X139622599Y-110446240D01*
X140080193Y-110446640D01*
X140503108Y-110271895D01*
X140826958Y-109948610D01*
X141002440Y-109526001D01*
X141002441Y-109523993D01*
X141241960Y-109523993D01*
X141416705Y-109946908D01*
X141739990Y-110270758D01*
X142162599Y-110446240D01*
X142620193Y-110446640D01*
X143043108Y-110271895D01*
X143366958Y-109948610D01*
X143542440Y-109526001D01*
X143542840Y-109068407D01*
X143368095Y-108645492D01*
X143044810Y-108321642D01*
X142622201Y-108146160D01*
X142164607Y-108145760D01*
X141741692Y-108320505D01*
X141417842Y-108643790D01*
X141242360Y-109066399D01*
X141241960Y-109523993D01*
X141002441Y-109523993D01*
X141002840Y-109068407D01*
X140828095Y-108645492D01*
X140504810Y-108321642D01*
X140082201Y-108146160D01*
X139624607Y-108145760D01*
X139201692Y-108320505D01*
X138877842Y-108643790D01*
X138702360Y-109066399D01*
X138701960Y-109523993D01*
X138462441Y-109523993D01*
X138462840Y-109068407D01*
X138288095Y-108645492D01*
X137964810Y-108321642D01*
X137542201Y-108146160D01*
X137084607Y-108145760D01*
X136661692Y-108320505D01*
X136337842Y-108643790D01*
X136162360Y-109066399D01*
X136161960Y-109523993D01*
X135922441Y-109523993D01*
X135922840Y-109068407D01*
X135748095Y-108645492D01*
X135424810Y-108321642D01*
X135002201Y-108146160D01*
X134544607Y-108145760D01*
X134121692Y-108320505D01*
X133797842Y-108643790D01*
X133622360Y-109066399D01*
X133621960Y-109523993D01*
X133382441Y-109523993D01*
X133382840Y-109068407D01*
X133208095Y-108645492D01*
X132884810Y-108321642D01*
X132462201Y-108146160D01*
X132004607Y-108145760D01*
X131581692Y-108320505D01*
X131257842Y-108643790D01*
X131082360Y-109066399D01*
X131081960Y-109523993D01*
X130842441Y-109523993D01*
X130842840Y-109068407D01*
X130668095Y-108645492D01*
X130344810Y-108321642D01*
X129922201Y-108146160D01*
X129464607Y-108145760D01*
X129041692Y-108320505D01*
X128717842Y-108643790D01*
X128542360Y-109066399D01*
X128541960Y-109523993D01*
X128302441Y-109523993D01*
X128302840Y-109068407D01*
X128128095Y-108645492D01*
X127804810Y-108321642D01*
X127382201Y-108146160D01*
X126924607Y-108145760D01*
X126501692Y-108320505D01*
X126177842Y-108643790D01*
X126002360Y-109066399D01*
X126001960Y-109523993D01*
X125762441Y-109523993D01*
X125762840Y-109068407D01*
X125743881Y-109022522D01*
X127614764Y-107151639D01*
X127744828Y-106956986D01*
X127790500Y-106727375D01*
X127790500Y-105531528D01*
X128757764Y-104564264D01*
X128876397Y-104386717D01*
X129021507Y-104532081D01*
X129480769Y-104722783D01*
X129978050Y-104723217D01*
X130437643Y-104533316D01*
X130789581Y-104181993D01*
X130980283Y-103722731D01*
X130980717Y-103225450D01*
X130790816Y-102765857D01*
X130701675Y-102676560D01*
X130840980Y-102583480D01*
X130951489Y-102418090D01*
X130990295Y-102223000D01*
X130990295Y-100785881D01*
X131264705Y-100786121D01*
X131264705Y-102223000D01*
X131303511Y-102418090D01*
X131414020Y-102583480D01*
X131553142Y-102676437D01*
X131465419Y-102764007D01*
X131274717Y-103223269D01*
X131274283Y-103720550D01*
X131464184Y-104180143D01*
X131815507Y-104532081D01*
X132274769Y-104722783D01*
X132772050Y-104723217D01*
X133231643Y-104533316D01*
X133583581Y-104181993D01*
X133774283Y-103722731D01*
X133774717Y-103225450D01*
X133584816Y-102765857D01*
X133495675Y-102676560D01*
X133634980Y-102583480D01*
X133745489Y-102418090D01*
X133784295Y-102223000D01*
X133784295Y-100785881D01*
X134058705Y-100786121D01*
X134058705Y-102255000D01*
X134097511Y-102450090D01*
X134208020Y-102615480D01*
X134347142Y-102708437D01*
X134259419Y-102796007D01*
X134068717Y-103255269D01*
X134068283Y-103752550D01*
X134258184Y-104212143D01*
X134609507Y-104564081D01*
X135068769Y-104754783D01*
X135566050Y-104755217D01*
X136025643Y-104565316D01*
X136377581Y-104213993D01*
X136568283Y-103754731D01*
X136568717Y-103257450D01*
X136378816Y-102797857D01*
X136289675Y-102708560D01*
X136428980Y-102615480D01*
X136539489Y-102450090D01*
X136578295Y-102255000D01*
X136578295Y-100785826D01*
X136852791Y-100786065D01*
X136852705Y-100786500D01*
X136852705Y-102286500D01*
X136891511Y-102481590D01*
X137002020Y-102646980D01*
X137141142Y-102739937D01*
X137053419Y-102827507D01*
X136862717Y-103286769D01*
X136862283Y-103784050D01*
X137052184Y-104243643D01*
X137403507Y-104595581D01*
X137862769Y-104786283D01*
X138360050Y-104786717D01*
X138819643Y-104596816D01*
X139171581Y-104245493D01*
X139362283Y-103786231D01*
X139362717Y-103288950D01*
X139172816Y-102829357D01*
X139083675Y-102740060D01*
X139222980Y-102646980D01*
X139333489Y-102481590D01*
X139372295Y-102286500D01*
X139372295Y-100786500D01*
X139372172Y-100785881D01*
X139649962Y-100786124D01*
X139646705Y-100802500D01*
X139646705Y-102302500D01*
X139685511Y-102497590D01*
X139796020Y-102662980D01*
X139935142Y-102755937D01*
X139847419Y-102843507D01*
X139656717Y-103302769D01*
X139656283Y-103800050D01*
X139846184Y-104259643D01*
X140197507Y-104611581D01*
X140656769Y-104802283D01*
X141154050Y-104802717D01*
X141613643Y-104612816D01*
X141965581Y-104261493D01*
X142156283Y-103802231D01*
X142156717Y-103304950D01*
X141966816Y-102845357D01*
X141877675Y-102756060D01*
X142016980Y-102662980D01*
X142127489Y-102497590D01*
X142166295Y-102302500D01*
X142166295Y-100802500D01*
X142162978Y-100785823D01*
X142443974Y-100786068D01*
X142440705Y-100802500D01*
X142440705Y-102302500D01*
X142479511Y-102497590D01*
X142590020Y-102662980D01*
X142729142Y-102755937D01*
X142641419Y-102843507D01*
X142450717Y-103302769D01*
X142450283Y-103800050D01*
X142640184Y-104259643D01*
X142991507Y-104611581D01*
X143450769Y-104802283D01*
X143948050Y-104802717D01*
X144407643Y-104612816D01*
X144759581Y-104261493D01*
X144950283Y-103802231D01*
X144950717Y-103304950D01*
X144760816Y-102845357D01*
X144671675Y-102756060D01*
X144810980Y-102662980D01*
X144921489Y-102497590D01*
X144960295Y-102302500D01*
X144960295Y-100802500D01*
X144956978Y-100785823D01*
X145408550Y-100786217D01*
X145767500Y-100637901D01*
X145767500Y-108504651D01*
X145584810Y-108321642D01*
X145162201Y-108146160D01*
X144704607Y-108145760D01*
X144281692Y-108320505D01*
X143957842Y-108643790D01*
X143782360Y-109066399D01*
X143781960Y-109523993D01*
X143956705Y-109946908D01*
X144279990Y-110270758D01*
X144702599Y-110446240D01*
X145160193Y-110446640D01*
X145583108Y-110271895D01*
X145767500Y-110087825D01*
X145767500Y-110729249D01*
X145813172Y-110958859D01*
X145943236Y-111153513D01*
X146344002Y-111554279D01*
X146322360Y-111606399D01*
X146321960Y-112063993D01*
X146496705Y-112486908D01*
X146819990Y-112810758D01*
X147242599Y-112986240D01*
X147700193Y-112986640D01*
X148123108Y-112811895D01*
X148197828Y-112737305D01*
X149329084Y-112737305D01*
X149388378Y-112957094D01*
X149864826Y-113110574D01*
X150363742Y-113070042D01*
X150636422Y-112957094D01*
X150695716Y-112737305D01*
X150012400Y-112053989D01*
X149329084Y-112737305D01*
X148197828Y-112737305D01*
X148446958Y-112488610D01*
X148622440Y-112066001D01*
X148622769Y-111688626D01*
X148738026Y-111688626D01*
X148778558Y-112187542D01*
X148891506Y-112460222D01*
X149111295Y-112519516D01*
X149794611Y-111836200D01*
X150230189Y-111836200D01*
X150913505Y-112519516D01*
X151133294Y-112460222D01*
X151286774Y-111983774D01*
X151246242Y-111484858D01*
X151133294Y-111212178D01*
X150913505Y-111152884D01*
X150230189Y-111836200D01*
X149794611Y-111836200D01*
X149111295Y-111152884D01*
X148891506Y-111212178D01*
X148738026Y-111688626D01*
X148622769Y-111688626D01*
X148622840Y-111608407D01*
X148448095Y-111185492D01*
X148124810Y-110861642D01*
X147702201Y-110686160D01*
X147244607Y-110685760D01*
X147193610Y-110706831D01*
X146967500Y-110480721D01*
X146967500Y-110332009D01*
X147242599Y-110446240D01*
X147700193Y-110446640D01*
X148123108Y-110271895D01*
X148446958Y-109948610D01*
X148578900Y-109630857D01*
X148578900Y-110242638D01*
X148671462Y-110466104D01*
X148842495Y-110637137D01*
X149065961Y-110729700D01*
X149384495Y-110729700D01*
X149329084Y-110935095D01*
X150012400Y-111618411D01*
X150695716Y-110935095D01*
X150640305Y-110729700D01*
X150958839Y-110729700D01*
X151182305Y-110637137D01*
X151353338Y-110466104D01*
X151445900Y-110242638D01*
X151445900Y-109602200D01*
X151293900Y-109450200D01*
X150166400Y-109450200D01*
X150166400Y-109470200D01*
X149858400Y-109470200D01*
X149858400Y-109450200D01*
X149838400Y-109450200D01*
X149838400Y-109142200D01*
X149858400Y-109142200D01*
X149858400Y-108014700D01*
X150166400Y-108014700D01*
X150166400Y-109142200D01*
X151293900Y-109142200D01*
X151445900Y-108990200D01*
X151445900Y-108349762D01*
X151353338Y-108126296D01*
X151182305Y-107955263D01*
X150958839Y-107862700D01*
X150318400Y-107862700D01*
X150166400Y-108014700D01*
X149858400Y-108014700D01*
X149706400Y-107862700D01*
X149065961Y-107862700D01*
X148842495Y-107955263D01*
X148671462Y-108126296D01*
X148578900Y-108349762D01*
X148578900Y-108962064D01*
X148448095Y-108645492D01*
X148124810Y-108321642D01*
X147702201Y-108146160D01*
X147539000Y-108146017D01*
X147539000Y-96329500D01*
X147493328Y-96099890D01*
X147363264Y-95905236D01*
X140821208Y-89363180D01*
X140914572Y-89324603D01*
X141139812Y-89099755D01*
X141261861Y-88805828D01*
X141261991Y-88656930D01*
X141316327Y-88575611D01*
X141361999Y-88346001D01*
X141361999Y-78033659D01*
X143712500Y-80384160D01*
X143712500Y-80428593D01*
X143662639Y-80548672D01*
X143662361Y-80866932D01*
X143712500Y-80988278D01*
X143712500Y-83853933D01*
X143661119Y-83977672D01*
X143660841Y-84295932D01*
X143782377Y-84590072D01*
X144007225Y-84815312D01*
X144301152Y-84937361D01*
X144619412Y-84937639D01*
X144913552Y-84816103D01*
X145138792Y-84591255D01*
X145260841Y-84297328D01*
X145261119Y-83979068D01*
X145212500Y-83861401D01*
X145212500Y-80988407D01*
X145262361Y-80868328D01*
X145262639Y-80550068D01*
X145212500Y-80428722D01*
X145212500Y-80073500D01*
X145155410Y-79786487D01*
X144992830Y-79543170D01*
X142265292Y-76815632D01*
X161023261Y-76815632D01*
X161144797Y-77109772D01*
X161369645Y-77335012D01*
X161663572Y-77457061D01*
X161981832Y-77457339D01*
X162275972Y-77335803D01*
X162501212Y-77110955D01*
X162623261Y-76817028D01*
X162623539Y-76498768D01*
X162502003Y-76204628D01*
X162423400Y-76125888D01*
X162423400Y-71927328D01*
X162870098Y-71480630D01*
X162970910Y-71547989D01*
X163166000Y-71586795D01*
X165966000Y-71586795D01*
X166161090Y-71547989D01*
X166326480Y-71437480D01*
X166436989Y-71272090D01*
X166475795Y-71077000D01*
X166475795Y-70377000D01*
X166436989Y-70181910D01*
X166350449Y-70052393D01*
X166481438Y-69921404D01*
X166574000Y-69697938D01*
X166574000Y-69533000D01*
X166422000Y-69381000D01*
X164720000Y-69381000D01*
X164720000Y-69401000D01*
X164412000Y-69401000D01*
X164412000Y-69381000D01*
X162710000Y-69381000D01*
X162558000Y-69533000D01*
X162558000Y-69697938D01*
X162650562Y-69921404D01*
X162781551Y-70052393D01*
X162725033Y-70136979D01*
X162545589Y-70172672D01*
X162350936Y-70302736D01*
X161399136Y-71254536D01*
X161269072Y-71449190D01*
X161223400Y-71678800D01*
X161223400Y-76125768D01*
X161145588Y-76203445D01*
X161023539Y-76497372D01*
X161023261Y-76815632D01*
X142265292Y-76815632D01*
X142079255Y-76629595D01*
X142029603Y-76509428D01*
X141804755Y-76284188D01*
X141510828Y-76162139D01*
X141361999Y-76162009D01*
X141361999Y-72458631D01*
X141422572Y-72433603D01*
X141647812Y-72208755D01*
X141769861Y-71914828D01*
X141770139Y-71596568D01*
X141648603Y-71302428D01*
X141423755Y-71077188D01*
X141129828Y-70955139D01*
X140811568Y-70954861D01*
X140517428Y-71076397D01*
X140332301Y-71261202D01*
X140228236Y-71330736D01*
X140098172Y-71525390D01*
X140052500Y-71755000D01*
X140098172Y-71984610D01*
X140161999Y-72080134D01*
X140161999Y-87904356D01*
X140009428Y-87967397D01*
X139784188Y-88192245D01*
X139744897Y-88286869D01*
X138981264Y-87523236D01*
X138786610Y-87393172D01*
X138557000Y-87347500D01*
X134452932Y-87347500D01*
X134375255Y-87269688D01*
X134081328Y-87147639D01*
X133763068Y-87147361D01*
X133468928Y-87268897D01*
X133260924Y-87476539D01*
X133041755Y-87256988D01*
X132747828Y-87134939D01*
X132429568Y-87134661D01*
X132135428Y-87256197D01*
X131910188Y-87481045D01*
X131788139Y-87774972D01*
X131787861Y-88093232D01*
X131909397Y-88387372D01*
X132134245Y-88612612D01*
X132428172Y-88734661D01*
X132539430Y-88734758D01*
X133946172Y-90141500D01*
X128293432Y-90141500D01*
X128215755Y-90063688D01*
X127921828Y-89941639D01*
X127603568Y-89941361D01*
X127536500Y-89969073D01*
X127536500Y-86164028D01*
X128508985Y-85191543D01*
X128618932Y-85191639D01*
X128913072Y-85070103D01*
X129138312Y-84845255D01*
X129260361Y-84551328D01*
X129260639Y-84233068D01*
X129139103Y-83938928D01*
X128914255Y-83713688D01*
X128620328Y-83591639D01*
X128302068Y-83591361D01*
X128007928Y-83712897D01*
X127984406Y-83736378D01*
X127961755Y-83713688D01*
X127667828Y-83591639D01*
X127349568Y-83591361D01*
X127055428Y-83712897D01*
X127000100Y-83768128D01*
X126945755Y-83713688D01*
X126651828Y-83591639D01*
X126333568Y-83591361D01*
X126039428Y-83712897D01*
X125920490Y-83831628D01*
X125802755Y-83713688D01*
X125508828Y-83591639D01*
X125190568Y-83591361D01*
X124896428Y-83712897D01*
X124671188Y-83937745D01*
X124549139Y-84231672D01*
X124549042Y-84342930D01*
X122956236Y-85935736D01*
X122826172Y-86130390D01*
X122780500Y-86360000D01*
X122780500Y-99255972D01*
X122257736Y-99778736D01*
X122127672Y-99973390D01*
X122082000Y-100203000D01*
X122082000Y-106812472D01*
X120606736Y-108287736D01*
X120476672Y-108482390D01*
X120454841Y-108592145D01*
X120184810Y-108321642D01*
X119762201Y-108146160D01*
X119304607Y-108145760D01*
X118881692Y-108320505D01*
X118557842Y-108643790D01*
X118382360Y-109066399D01*
X118381960Y-109523993D01*
X118142441Y-109523993D01*
X118142840Y-109068407D01*
X117968095Y-108645492D01*
X117644810Y-108321642D01*
X117222201Y-108146160D01*
X116764607Y-108145760D01*
X116341692Y-108320505D01*
X116017842Y-108643790D01*
X115842360Y-109066399D01*
X115841960Y-109523993D01*
X115602441Y-109523993D01*
X115602840Y-109068407D01*
X115428095Y-108645492D01*
X115104810Y-108321642D01*
X114682201Y-108146160D01*
X114224607Y-108145760D01*
X113801692Y-108320505D01*
X113477842Y-108643790D01*
X113302360Y-109066399D01*
X113301960Y-109523993D01*
X113062441Y-109523993D01*
X113062840Y-109068407D01*
X112888095Y-108645492D01*
X112564810Y-108321642D01*
X112142201Y-108146160D01*
X111684607Y-108145760D01*
X111261692Y-108320505D01*
X110937842Y-108643790D01*
X110762360Y-109066399D01*
X110761960Y-109523993D01*
X110522441Y-109523993D01*
X110522840Y-109068407D01*
X110348095Y-108645492D01*
X110024810Y-108321642D01*
X109602201Y-108146160D01*
X109144607Y-108145760D01*
X108721692Y-108320505D01*
X108397842Y-108643790D01*
X108222360Y-109066399D01*
X108221960Y-109523993D01*
X107982441Y-109523993D01*
X107982840Y-109068407D01*
X107808095Y-108645492D01*
X107484810Y-108321642D01*
X107062201Y-108146160D01*
X106604607Y-108145760D01*
X106181692Y-108320505D01*
X105857842Y-108643790D01*
X105682360Y-109066399D01*
X105681960Y-109523993D01*
X105442441Y-109523993D01*
X105442840Y-109068407D01*
X105268095Y-108645492D01*
X104944810Y-108321642D01*
X104522201Y-108146160D01*
X104064607Y-108145760D01*
X103641692Y-108320505D01*
X103317842Y-108643790D01*
X103142360Y-109066399D01*
X103141960Y-109523993D01*
X102902441Y-109523993D01*
X102902840Y-109068407D01*
X102728095Y-108645492D01*
X102404810Y-108321642D01*
X101982201Y-108146160D01*
X101524607Y-108145760D01*
X101101692Y-108320505D01*
X100777842Y-108643790D01*
X100602360Y-109066399D01*
X100601960Y-109523993D01*
X100362441Y-109523993D01*
X100362840Y-109068407D01*
X100188095Y-108645492D01*
X99864810Y-108321642D01*
X99442201Y-108146160D01*
X98984607Y-108145760D01*
X98561692Y-108320505D01*
X98237842Y-108643790D01*
X98062360Y-109066399D01*
X98061960Y-109523993D01*
X97822441Y-109523993D01*
X97822840Y-109068407D01*
X97648095Y-108645492D01*
X97324810Y-108321642D01*
X96902201Y-108146160D01*
X96444607Y-108145760D01*
X96021692Y-108320505D01*
X95697842Y-108643790D01*
X95522360Y-109066399D01*
X95521960Y-109523993D01*
X95282441Y-109523993D01*
X95282840Y-109068407D01*
X95108095Y-108645492D01*
X94784810Y-108321642D01*
X94362201Y-108146160D01*
X93904607Y-108145760D01*
X93481692Y-108320505D01*
X93157842Y-108643790D01*
X92982360Y-109066399D01*
X92981960Y-109523993D01*
X90859323Y-109523993D01*
X91412879Y-108971403D01*
X91837915Y-107947801D01*
X91838883Y-106839462D01*
X91415633Y-105815119D01*
X90632603Y-105030721D01*
X89609001Y-104605685D01*
X88500662Y-104604717D01*
X87476319Y-105027967D01*
X86691921Y-105810997D01*
X86266885Y-106834599D01*
X86266100Y-107732883D01*
X84883869Y-105664227D01*
X84401954Y-103241476D01*
X86138751Y-103241476D01*
X86338062Y-103779929D01*
X86728259Y-104201122D01*
X87210851Y-104431111D01*
X87437900Y-104320283D01*
X87437900Y-103011300D01*
X86272384Y-103011300D01*
X86138751Y-103241476D01*
X84401954Y-103241476D01*
X83950500Y-100971865D01*
X83950500Y-100701476D01*
X86138751Y-100701476D01*
X86338062Y-101239929D01*
X86659870Y-101587300D01*
X86338062Y-101934671D01*
X86138751Y-102473124D01*
X86272384Y-102703300D01*
X87437900Y-102703300D01*
X87437900Y-100471300D01*
X86272384Y-100471300D01*
X86138751Y-100701476D01*
X83950500Y-100701476D01*
X83950500Y-98161476D01*
X86138751Y-98161476D01*
X86338062Y-98699929D01*
X86659870Y-99047300D01*
X86338062Y-99394671D01*
X86138751Y-99933124D01*
X86272384Y-100163300D01*
X87437900Y-100163300D01*
X87437900Y-97931300D01*
X86272384Y-97931300D01*
X86138751Y-98161476D01*
X83950500Y-98161476D01*
X83950500Y-95621476D01*
X86138751Y-95621476D01*
X86338062Y-96159929D01*
X86659870Y-96507300D01*
X86338062Y-96854671D01*
X86138751Y-97393124D01*
X86272384Y-97623300D01*
X87437900Y-97623300D01*
X87437900Y-95391300D01*
X86272384Y-95391300D01*
X86138751Y-95621476D01*
X83950500Y-95621476D01*
X83950500Y-93081476D01*
X86138751Y-93081476D01*
X86338062Y-93619929D01*
X86659870Y-93967300D01*
X86338062Y-94314671D01*
X86138751Y-94853124D01*
X86272384Y-95083300D01*
X87437900Y-95083300D01*
X87437900Y-92851300D01*
X86272384Y-92851300D01*
X86138751Y-93081476D01*
X83950500Y-93081476D01*
X83950500Y-90541476D01*
X86138751Y-90541476D01*
X86338062Y-91079929D01*
X86659870Y-91427300D01*
X86338062Y-91774671D01*
X86138751Y-92313124D01*
X86272384Y-92543300D01*
X87437900Y-92543300D01*
X87437900Y-90311300D01*
X86272384Y-90311300D01*
X86138751Y-90541476D01*
X83950500Y-90541476D01*
X83950500Y-88001476D01*
X86138751Y-88001476D01*
X86338062Y-88539929D01*
X86659870Y-88887300D01*
X86338062Y-89234671D01*
X86138751Y-89773124D01*
X86272384Y-90003300D01*
X87437900Y-90003300D01*
X87437900Y-87771300D01*
X86272384Y-87771300D01*
X86138751Y-88001476D01*
X83950500Y-88001476D01*
X83950500Y-85461476D01*
X86138751Y-85461476D01*
X86338062Y-85999929D01*
X86659870Y-86347300D01*
X86338062Y-86694671D01*
X86138751Y-87233124D01*
X86272384Y-87463300D01*
X87437900Y-87463300D01*
X87437900Y-85231300D01*
X86272384Y-85231300D01*
X86138751Y-85461476D01*
X83950500Y-85461476D01*
X83950500Y-82921476D01*
X86138751Y-82921476D01*
X86338062Y-83459929D01*
X86659870Y-83807300D01*
X86338062Y-84154671D01*
X86138751Y-84693124D01*
X86272384Y-84923300D01*
X87437900Y-84923300D01*
X87437900Y-82691300D01*
X86272384Y-82691300D01*
X86138751Y-82921476D01*
X83950500Y-82921476D01*
X83950500Y-80381476D01*
X86138751Y-80381476D01*
X86338062Y-80919929D01*
X86659870Y-81267300D01*
X86338062Y-81614671D01*
X86138751Y-82153124D01*
X86272384Y-82383300D01*
X87437900Y-82383300D01*
X87437900Y-80151300D01*
X86272384Y-80151300D01*
X86138751Y-80381476D01*
X83950500Y-80381476D01*
X83950500Y-77841476D01*
X86138751Y-77841476D01*
X86338062Y-78379929D01*
X86659870Y-78727300D01*
X86338062Y-79074671D01*
X86138751Y-79613124D01*
X86272384Y-79843300D01*
X87437900Y-79843300D01*
X87437900Y-77611300D01*
X86272384Y-77611300D01*
X86138751Y-77841476D01*
X83950500Y-77841476D01*
X83950500Y-75301476D01*
X86138751Y-75301476D01*
X86338062Y-75839929D01*
X86659870Y-76187300D01*
X86338062Y-76534671D01*
X86138751Y-77073124D01*
X86272384Y-77303300D01*
X87437900Y-77303300D01*
X87437900Y-75071300D01*
X86272384Y-75071300D01*
X86138751Y-75301476D01*
X83950500Y-75301476D01*
X83950500Y-72761476D01*
X86138751Y-72761476D01*
X86338062Y-73299929D01*
X86659870Y-73647300D01*
X86338062Y-73994671D01*
X86138751Y-74533124D01*
X86272384Y-74763300D01*
X87437900Y-74763300D01*
X87437900Y-72531300D01*
X86272384Y-72531300D01*
X86138751Y-72761476D01*
X83950500Y-72761476D01*
X83950500Y-71875135D01*
X84275288Y-70242311D01*
X86006502Y-70242311D01*
X86281208Y-70813327D01*
X86637227Y-71131741D01*
X86338062Y-71454671D01*
X86138751Y-71993124D01*
X86272384Y-72223300D01*
X87437900Y-72223300D01*
X87437900Y-70914317D01*
X87425200Y-70908118D01*
X87425200Y-69991300D01*
X86114507Y-69991300D01*
X86006502Y-70242311D01*
X84275288Y-70242311D01*
X84436411Y-69432289D01*
X86006502Y-69432289D01*
X86114507Y-69683300D01*
X87425200Y-69683300D01*
X87425200Y-68373378D01*
X87733200Y-68373378D01*
X87733200Y-69683300D01*
X87753200Y-69683300D01*
X87753200Y-69991300D01*
X87733200Y-69991300D01*
X87733200Y-71301222D01*
X87745900Y-71306725D01*
X87745900Y-72223300D01*
X87765900Y-72223300D01*
X87765900Y-72531300D01*
X87745900Y-72531300D01*
X87745900Y-74763300D01*
X87765900Y-74763300D01*
X87765900Y-75071300D01*
X87745900Y-75071300D01*
X87745900Y-77303300D01*
X87765900Y-77303300D01*
X87765900Y-77611300D01*
X87745900Y-77611300D01*
X87745900Y-79843300D01*
X87765900Y-79843300D01*
X87765900Y-80151300D01*
X87745900Y-80151300D01*
X87745900Y-82383300D01*
X87765900Y-82383300D01*
X87765900Y-82691300D01*
X87745900Y-82691300D01*
X87745900Y-84923300D01*
X87765900Y-84923300D01*
X87765900Y-85231300D01*
X87745900Y-85231300D01*
X87745900Y-87463300D01*
X87765900Y-87463300D01*
X87765900Y-87771300D01*
X87745900Y-87771300D01*
X87745900Y-90003300D01*
X87765900Y-90003300D01*
X87765900Y-90311300D01*
X87745900Y-90311300D01*
X87745900Y-92543300D01*
X87765900Y-92543300D01*
X87765900Y-92851300D01*
X87745900Y-92851300D01*
X87745900Y-95083300D01*
X87765900Y-95083300D01*
X87765900Y-95391300D01*
X87745900Y-95391300D01*
X87745900Y-97623300D01*
X87765900Y-97623300D01*
X87765900Y-97931300D01*
X87745900Y-97931300D01*
X87745900Y-100163300D01*
X87765900Y-100163300D01*
X87765900Y-100471300D01*
X87745900Y-100471300D01*
X87745900Y-102703300D01*
X87765900Y-102703300D01*
X87765900Y-103011300D01*
X87745900Y-103011300D01*
X87745900Y-104320283D01*
X87972949Y-104431111D01*
X88455541Y-104201122D01*
X88845738Y-103779929D01*
X88907230Y-103613805D01*
X89167689Y-104003611D01*
X89610073Y-104299202D01*
X90131900Y-104403000D01*
X90653727Y-104299202D01*
X91096111Y-104003611D01*
X91298505Y-103700706D01*
X91298505Y-103873300D01*
X91337311Y-104068390D01*
X91447820Y-104233780D01*
X91613210Y-104344289D01*
X91808300Y-104383095D01*
X93535500Y-104383095D01*
X93730590Y-104344289D01*
X93895980Y-104233780D01*
X94006489Y-104068390D01*
X94045295Y-103873300D01*
X94045295Y-101841300D01*
X94006489Y-101646210D01*
X93967127Y-101587300D01*
X94006489Y-101528390D01*
X94045295Y-101333300D01*
X94045295Y-99301300D01*
X94006489Y-99106210D01*
X93967127Y-99047300D01*
X94006489Y-98988390D01*
X94045295Y-98793300D01*
X94045295Y-97154300D01*
X100784705Y-97154300D01*
X100784705Y-98654300D01*
X100823511Y-98849390D01*
X100934020Y-99014780D01*
X101073142Y-99107737D01*
X100985419Y-99195307D01*
X100794717Y-99654569D01*
X100794283Y-100151850D01*
X100984184Y-100611443D01*
X101335507Y-100963381D01*
X101794769Y-101154083D01*
X102292050Y-101154517D01*
X102751643Y-100964616D01*
X103086175Y-100630668D01*
X103418307Y-100963381D01*
X103877569Y-101154083D01*
X104374850Y-101154517D01*
X104834443Y-100964616D01*
X105175337Y-100624318D01*
X105513807Y-100963381D01*
X105973069Y-101154083D01*
X106470350Y-101154517D01*
X106929943Y-100964616D01*
X107239031Y-100656068D01*
X107545807Y-100963381D01*
X108005069Y-101154083D01*
X108502350Y-101154517D01*
X108961943Y-100964616D01*
X109288476Y-100638654D01*
X109628607Y-100979381D01*
X110087869Y-101170083D01*
X110585150Y-101170517D01*
X111044743Y-100980616D01*
X111345831Y-100680054D01*
X111660607Y-100995381D01*
X112119869Y-101186083D01*
X112617150Y-101186517D01*
X113076743Y-100996616D01*
X113412914Y-100661032D01*
X113730707Y-100979381D01*
X114189969Y-101170083D01*
X114687250Y-101170517D01*
X115146843Y-100980616D01*
X115451231Y-100676760D01*
X115762707Y-100988781D01*
X116221969Y-101179483D01*
X116719250Y-101179917D01*
X117178843Y-100990016D01*
X117494270Y-100675140D01*
X117782007Y-100963381D01*
X118241269Y-101154083D01*
X118738550Y-101154517D01*
X119198143Y-100964616D01*
X119499231Y-100664054D01*
X119814007Y-100979381D01*
X120273269Y-101170083D01*
X120770550Y-101170517D01*
X121230143Y-100980616D01*
X121582081Y-100629293D01*
X121772783Y-100170031D01*
X121773217Y-99672750D01*
X121583316Y-99213157D01*
X121494175Y-99123860D01*
X121633480Y-99030780D01*
X121743989Y-98865390D01*
X121782795Y-98670300D01*
X121782795Y-97170300D01*
X121743989Y-96975210D01*
X121633480Y-96809820D01*
X121468090Y-96699311D01*
X121273000Y-96660505D01*
X119773000Y-96660505D01*
X119577910Y-96699311D01*
X119518973Y-96738691D01*
X119436090Y-96683311D01*
X119241000Y-96644505D01*
X117741000Y-96644505D01*
X117545910Y-96683311D01*
X117462343Y-96739148D01*
X117416790Y-96708711D01*
X117221700Y-96669905D01*
X115721700Y-96669905D01*
X115526610Y-96708711D01*
X115462734Y-96751391D01*
X115384790Y-96699311D01*
X115189700Y-96660505D01*
X113689700Y-96660505D01*
X113494610Y-96699311D01*
X113392677Y-96767420D01*
X113314690Y-96715311D01*
X113119600Y-96676505D01*
X111619600Y-96676505D01*
X111424510Y-96715311D01*
X111365573Y-96754691D01*
X111282690Y-96699311D01*
X111087600Y-96660505D01*
X109587600Y-96660505D01*
X109392510Y-96699311D01*
X109308173Y-96755663D01*
X109199890Y-96683311D01*
X109004800Y-96644505D01*
X107504800Y-96644505D01*
X107309710Y-96683311D01*
X107238800Y-96730691D01*
X107167890Y-96683311D01*
X106972800Y-96644505D01*
X105472800Y-96644505D01*
X105277710Y-96683311D01*
X105175050Y-96751906D01*
X105072390Y-96683311D01*
X104877300Y-96644505D01*
X103377300Y-96644505D01*
X103182210Y-96683311D01*
X103085900Y-96747663D01*
X102989590Y-96683311D01*
X102794500Y-96644505D01*
X101294500Y-96644505D01*
X101099410Y-96683311D01*
X100934020Y-96793820D01*
X100823511Y-96959210D01*
X100784705Y-97154300D01*
X94045295Y-97154300D01*
X94045295Y-96761300D01*
X94006489Y-96566210D01*
X93967127Y-96507300D01*
X94006489Y-96448390D01*
X94045295Y-96253300D01*
X94045295Y-94221300D01*
X94006489Y-94026210D01*
X93967127Y-93967300D01*
X94006489Y-93908390D01*
X94045295Y-93713300D01*
X94045295Y-91681300D01*
X94006489Y-91486210D01*
X93967127Y-91427300D01*
X94006489Y-91368390D01*
X94045295Y-91173300D01*
X94045295Y-89141300D01*
X94006489Y-88946210D01*
X93967127Y-88887300D01*
X94006489Y-88828390D01*
X94045295Y-88633300D01*
X94045295Y-86601300D01*
X94006489Y-86406210D01*
X93967127Y-86347300D01*
X94006489Y-86288390D01*
X94045295Y-86093300D01*
X94045295Y-84061300D01*
X94006489Y-83866210D01*
X93967127Y-83807300D01*
X94006489Y-83748390D01*
X94045295Y-83553300D01*
X94045295Y-81521300D01*
X94006489Y-81326210D01*
X93967127Y-81267300D01*
X94006489Y-81208390D01*
X94045295Y-81013300D01*
X94045295Y-78981300D01*
X94006489Y-78786210D01*
X93967127Y-78727300D01*
X94006489Y-78668390D01*
X94045295Y-78473300D01*
X94045295Y-76441300D01*
X94006489Y-76246210D01*
X93967127Y-76187300D01*
X94006489Y-76128390D01*
X94045295Y-75933300D01*
X94045295Y-73901300D01*
X94006489Y-73706210D01*
X93967127Y-73647300D01*
X94006489Y-73588390D01*
X94045295Y-73393300D01*
X94045295Y-71361300D01*
X94006489Y-71166210D01*
X93895980Y-71000820D01*
X93730590Y-70890311D01*
X93535500Y-70851505D01*
X91808300Y-70851505D01*
X91638639Y-70885253D01*
X91644995Y-70853300D01*
X91644995Y-68821300D01*
X91606189Y-68626210D01*
X91495680Y-68460820D01*
X91330290Y-68350311D01*
X91135200Y-68311505D01*
X89103200Y-68311505D01*
X88908110Y-68350311D01*
X88742720Y-68460820D01*
X88632211Y-68626210D01*
X88629516Y-68639758D01*
X88404879Y-68438849D01*
X87984209Y-68264613D01*
X87733200Y-68373378D01*
X87425200Y-68373378D01*
X87174191Y-68264613D01*
X86753521Y-68438849D01*
X86281208Y-68861273D01*
X86006502Y-69432289D01*
X84436411Y-69432289D01*
X84883869Y-67182773D01*
X86266720Y-65113190D01*
X86265917Y-66032938D01*
X86689167Y-67057281D01*
X87472197Y-67841679D01*
X88495799Y-68266715D01*
X89604138Y-68267683D01*
X90628481Y-67844433D01*
X91412879Y-67061403D01*
X91837915Y-66037801D01*
X91838883Y-64929462D01*
X91652056Y-64477305D01*
X93449084Y-64477305D01*
X93508378Y-64697094D01*
X93984826Y-64850574D01*
X94483742Y-64810042D01*
X94756422Y-64697094D01*
X94815716Y-64477305D01*
X94132400Y-63793989D01*
X93449084Y-64477305D01*
X91652056Y-64477305D01*
X91415633Y-63905119D01*
X90939972Y-63428626D01*
X92858026Y-63428626D01*
X92898558Y-63927542D01*
X93011506Y-64200222D01*
X93231295Y-64259516D01*
X93914611Y-63576200D01*
X94350189Y-63576200D01*
X95033505Y-64259516D01*
X95253294Y-64200222D01*
X95406774Y-63723774D01*
X95382797Y-63428626D01*
X95398026Y-63428626D01*
X95438558Y-63927542D01*
X95551506Y-64200222D01*
X95771295Y-64259516D01*
X96454611Y-63576200D01*
X95771295Y-62892884D01*
X95551506Y-62952178D01*
X95398026Y-63428626D01*
X95382797Y-63428626D01*
X95366242Y-63224858D01*
X95253294Y-62952178D01*
X95033505Y-62892884D01*
X94350189Y-63576200D01*
X93914611Y-63576200D01*
X93231295Y-62892884D01*
X93011506Y-62952178D01*
X92858026Y-63428626D01*
X90939972Y-63428626D01*
X90632603Y-63120721D01*
X89609001Y-62695685D01*
X88500662Y-62694717D01*
X88092811Y-62863238D01*
X88374386Y-62675095D01*
X93449084Y-62675095D01*
X94132400Y-63358411D01*
X94815716Y-62675095D01*
X95989084Y-62675095D01*
X96672400Y-63358411D01*
X96686542Y-63344269D01*
X96904331Y-63562058D01*
X96890189Y-63576200D01*
X96904331Y-63590342D01*
X96686542Y-63808131D01*
X96672400Y-63793989D01*
X95989084Y-64477305D01*
X96048378Y-64697094D01*
X96524826Y-64850574D01*
X97023742Y-64810042D01*
X97167000Y-64750702D01*
X97167000Y-66458593D01*
X97117139Y-66578672D01*
X97116861Y-66896932D01*
X97238397Y-67191072D01*
X97463245Y-67416312D01*
X97757172Y-67538361D01*
X98075432Y-67538639D01*
X98369572Y-67417103D01*
X98594812Y-67192255D01*
X98716861Y-66898328D01*
X98717139Y-66580068D01*
X98667000Y-66458722D01*
X98667000Y-64595192D01*
X98982599Y-64726240D01*
X99440193Y-64726640D01*
X99863108Y-64551895D01*
X100186958Y-64228610D01*
X100362440Y-63806001D01*
X100362840Y-63348407D01*
X100236855Y-63043500D01*
X100728134Y-63043500D01*
X100602360Y-63346399D01*
X100601960Y-63803993D01*
X100776705Y-64226908D01*
X101099990Y-64550758D01*
X101522599Y-64726240D01*
X101980193Y-64726640D01*
X102403108Y-64551895D01*
X102616359Y-64339016D01*
X102636236Y-64368764D01*
X103857500Y-65590028D01*
X103857500Y-71723685D01*
X103747000Y-71701705D01*
X102247000Y-71701705D01*
X102051910Y-71740511D01*
X101886520Y-71851020D01*
X101776011Y-72016410D01*
X101737205Y-72211500D01*
X101737205Y-73711500D01*
X101776011Y-73906590D01*
X101886520Y-74071980D01*
X101913282Y-74089861D01*
X101910426Y-74092717D01*
X102023349Y-74205640D01*
X101793262Y-74277288D01*
X101623055Y-74790021D01*
X101662018Y-75328860D01*
X101793262Y-75645712D01*
X102023351Y-75717360D01*
X102779211Y-74961500D01*
X102765069Y-74947358D01*
X102982858Y-74729569D01*
X102997000Y-74743711D01*
X103011142Y-74729569D01*
X103228931Y-74947358D01*
X103214789Y-74961500D01*
X103228931Y-74975642D01*
X103011142Y-75193431D01*
X102997000Y-75179289D01*
X102241140Y-75935149D01*
X102312788Y-76165238D01*
X102825521Y-76335445D01*
X103364360Y-76296482D01*
X103681212Y-76165238D01*
X103752860Y-75935151D01*
X103857500Y-76039791D01*
X103857500Y-86423500D01*
X103903172Y-86653110D01*
X104033236Y-86847764D01*
X104990957Y-87805485D01*
X104990861Y-87915432D01*
X105112397Y-88209572D01*
X105337245Y-88434812D01*
X105631172Y-88556861D01*
X105949432Y-88557139D01*
X106243572Y-88435603D01*
X106468812Y-88210755D01*
X106590861Y-87916828D01*
X106591139Y-87598568D01*
X106469603Y-87304428D01*
X106244755Y-87079188D01*
X105950828Y-86957139D01*
X105839570Y-86957042D01*
X105057500Y-86174972D01*
X105057500Y-75976291D01*
X105098640Y-75935151D01*
X105170288Y-76165238D01*
X105683021Y-76335445D01*
X106221860Y-76296482D01*
X106538712Y-76165238D01*
X106610360Y-75935149D01*
X108146640Y-75935149D01*
X108218288Y-76165238D01*
X108731021Y-76335445D01*
X109269860Y-76296482D01*
X109586712Y-76165238D01*
X109658360Y-75935149D01*
X108902500Y-75179289D01*
X108146640Y-75935149D01*
X106610360Y-75935149D01*
X105854500Y-75179289D01*
X105840358Y-75193431D01*
X105622569Y-74975642D01*
X105636711Y-74961500D01*
X105622569Y-74947358D01*
X105840358Y-74729569D01*
X105854500Y-74743711D01*
X105868642Y-74729569D01*
X106086431Y-74947358D01*
X106072289Y-74961500D01*
X106828149Y-75717360D01*
X107058238Y-75645712D01*
X107228445Y-75132979D01*
X107203646Y-74790021D01*
X107528555Y-74790021D01*
X107567518Y-75328860D01*
X107698762Y-75645712D01*
X107928851Y-75717360D01*
X108684711Y-74961500D01*
X108670569Y-74947358D01*
X108888358Y-74729569D01*
X108902500Y-74743711D01*
X108916642Y-74729569D01*
X109134431Y-74947358D01*
X109120289Y-74961500D01*
X109876149Y-75717360D01*
X110106238Y-75645712D01*
X110276445Y-75132979D01*
X110237482Y-74594140D01*
X110106238Y-74277288D01*
X109876151Y-74205640D01*
X109989074Y-74092717D01*
X109986218Y-74089861D01*
X110012980Y-74071980D01*
X110123489Y-73906590D01*
X110162295Y-73711500D01*
X110162295Y-72211500D01*
X110123489Y-72016410D01*
X110012980Y-71851020D01*
X109847590Y-71740511D01*
X109652500Y-71701705D01*
X108152500Y-71701705D01*
X107957410Y-71740511D01*
X107792020Y-71851020D01*
X107681511Y-72016410D01*
X107642705Y-72211500D01*
X107642705Y-73711500D01*
X107681511Y-73906590D01*
X107792020Y-74071980D01*
X107818782Y-74089861D01*
X107815926Y-74092717D01*
X107928849Y-74205640D01*
X107698762Y-74277288D01*
X107528555Y-74790021D01*
X107203646Y-74790021D01*
X107189482Y-74594140D01*
X107058238Y-74277288D01*
X106828151Y-74205640D01*
X106941074Y-74092717D01*
X106938218Y-74089861D01*
X106964980Y-74071980D01*
X107075489Y-73906590D01*
X107114295Y-73711500D01*
X107114295Y-72211500D01*
X107075489Y-72016410D01*
X106964980Y-71851020D01*
X106799590Y-71740511D01*
X106604500Y-71701705D01*
X105104500Y-71701705D01*
X105057500Y-71711054D01*
X105057500Y-65341500D01*
X105029137Y-65198908D01*
X105011828Y-65111889D01*
X104881764Y-64917236D01*
X104641178Y-64676650D01*
X104943108Y-64551895D01*
X105266958Y-64228610D01*
X105442440Y-63806001D01*
X105442840Y-63348407D01*
X105316855Y-63043500D01*
X105808134Y-63043500D01*
X105682360Y-63346399D01*
X105681960Y-63803993D01*
X105856705Y-64226908D01*
X106179990Y-64550758D01*
X106602599Y-64726240D01*
X107060193Y-64726640D01*
X107483108Y-64551895D01*
X107557828Y-64477305D01*
X108689084Y-64477305D01*
X108748378Y-64697094D01*
X109224826Y-64850574D01*
X109723742Y-64810042D01*
X109996422Y-64697094D01*
X110055716Y-64477305D01*
X109372400Y-63793989D01*
X108689084Y-64477305D01*
X107557828Y-64477305D01*
X107806958Y-64228610D01*
X107982440Y-63806001D01*
X107982840Y-63348407D01*
X107856855Y-63043500D01*
X108222088Y-63043500D01*
X108098026Y-63428626D01*
X108138558Y-63927542D01*
X108251506Y-64200222D01*
X108471295Y-64259516D01*
X109154611Y-63576200D01*
X109140469Y-63562058D01*
X109358258Y-63344269D01*
X109372400Y-63358411D01*
X109386542Y-63344269D01*
X109604331Y-63562058D01*
X109590189Y-63576200D01*
X110273505Y-64259516D01*
X110493294Y-64200222D01*
X110646774Y-63723774D01*
X110606242Y-63224858D01*
X110531121Y-63043500D01*
X110888134Y-63043500D01*
X110762360Y-63346399D01*
X110761960Y-63803993D01*
X110936705Y-64226908D01*
X111259990Y-64550758D01*
X111682599Y-64726240D01*
X112140193Y-64726640D01*
X112366500Y-64633132D01*
X112366500Y-64833500D01*
X112412172Y-65063110D01*
X112542236Y-65257764D01*
X112620500Y-65336028D01*
X112620500Y-71701705D01*
X111200500Y-71701705D01*
X111005410Y-71740511D01*
X110840020Y-71851020D01*
X110729511Y-72016410D01*
X110690705Y-72211500D01*
X110690705Y-73711500D01*
X110729511Y-73906590D01*
X110840020Y-74071980D01*
X110866782Y-74089861D01*
X110863926Y-74092717D01*
X110976849Y-74205640D01*
X110746762Y-74277288D01*
X110576555Y-74790021D01*
X110615518Y-75328860D01*
X110746762Y-75645712D01*
X110976851Y-75717360D01*
X111732711Y-74961500D01*
X111718569Y-74947358D01*
X111936358Y-74729569D01*
X111950500Y-74743711D01*
X111964642Y-74729569D01*
X112182431Y-74947358D01*
X112168289Y-74961500D01*
X112182431Y-74975642D01*
X111964642Y-75193431D01*
X111950500Y-75179289D01*
X111194640Y-75935149D01*
X111266288Y-76165238D01*
X111779021Y-76335445D01*
X112239500Y-76302148D01*
X112239500Y-82784042D01*
X112285172Y-83013652D01*
X112415236Y-83208306D01*
X119107915Y-89900985D01*
X119107898Y-89920799D01*
X111875382Y-89920799D01*
X112057283Y-89482731D01*
X112057717Y-88985450D01*
X111867816Y-88525857D01*
X111575268Y-88232797D01*
X111866581Y-87941993D01*
X112057283Y-87482731D01*
X112057717Y-86985450D01*
X111867816Y-86525857D01*
X111575268Y-86232797D01*
X111866581Y-85941993D01*
X112057283Y-85482731D01*
X112057717Y-84985450D01*
X111867816Y-84525857D01*
X111778675Y-84436560D01*
X111917980Y-84343480D01*
X112028489Y-84178090D01*
X112067295Y-83983000D01*
X112067295Y-82483000D01*
X112028489Y-82287910D01*
X111917980Y-82122520D01*
X111752590Y-82012011D01*
X111557500Y-81973205D01*
X110057500Y-81973205D01*
X109862410Y-82012011D01*
X109697020Y-82122520D01*
X109586511Y-82287910D01*
X109547705Y-82483000D01*
X109547705Y-83983000D01*
X109586511Y-84178090D01*
X109697020Y-84343480D01*
X109836142Y-84436437D01*
X109748419Y-84524007D01*
X109557717Y-84983269D01*
X109557283Y-85480550D01*
X109747184Y-85940143D01*
X110039732Y-86233203D01*
X109748419Y-86524007D01*
X109557717Y-86983269D01*
X109557283Y-87480550D01*
X109747184Y-87940143D01*
X110039732Y-88233203D01*
X109748419Y-88524007D01*
X109702214Y-88635282D01*
X108267447Y-87200515D01*
X108267543Y-87090568D01*
X108146007Y-86796428D01*
X107921159Y-86571188D01*
X107627232Y-86449139D01*
X107308972Y-86448861D01*
X107014832Y-86570397D01*
X106789592Y-86795245D01*
X106667543Y-87089172D01*
X106667265Y-87407432D01*
X106775084Y-87668374D01*
X106667539Y-87927372D01*
X106667261Y-88245632D01*
X106788797Y-88539772D01*
X106893992Y-88645150D01*
X106913072Y-88741074D01*
X107043136Y-88935728D01*
X109514472Y-91407064D01*
X109709126Y-91537128D01*
X109938736Y-91582800D01*
X120726200Y-91582800D01*
X120955810Y-91537128D01*
X121150464Y-91407064D01*
X122345786Y-90211742D01*
X122475850Y-90017088D01*
X122521522Y-89787478D01*
X122521522Y-84188216D01*
X122662632Y-84188339D01*
X122879755Y-84098626D01*
X122967813Y-84081110D01*
X123211130Y-83918530D01*
X123974330Y-83155330D01*
X123985461Y-83138672D01*
X124136910Y-82912013D01*
X124192052Y-82634795D01*
X124194000Y-82634795D01*
X124389090Y-82595989D01*
X124554480Y-82485480D01*
X124664989Y-82320090D01*
X124703795Y-82125000D01*
X126375205Y-82125000D01*
X126414011Y-82320090D01*
X126524520Y-82485480D01*
X126689910Y-82595989D01*
X126885000Y-82634795D01*
X128385000Y-82634795D01*
X128580090Y-82595989D01*
X128745480Y-82485480D01*
X128855989Y-82320090D01*
X128868220Y-82258600D01*
X130579814Y-82258600D01*
X130360788Y-82477245D01*
X130238739Y-82771172D01*
X130238633Y-82892889D01*
X130207058Y-82892861D01*
X129912918Y-83014397D01*
X129687678Y-83239245D01*
X129565629Y-83533172D01*
X129565351Y-83851432D01*
X129686887Y-84145572D01*
X129911735Y-84370812D01*
X130205662Y-84492861D01*
X130523922Y-84493139D01*
X130818062Y-84371603D01*
X130896800Y-84293002D01*
X137327068Y-84293002D01*
X137404745Y-84370814D01*
X137698672Y-84492863D01*
X138016932Y-84493141D01*
X138311072Y-84371605D01*
X138536312Y-84146757D01*
X138658361Y-83852830D01*
X138658639Y-83534570D01*
X138569082Y-83317824D01*
X138658361Y-83102815D01*
X138658639Y-82784555D01*
X138537103Y-82490415D01*
X138312255Y-82265175D01*
X138018328Y-82143126D01*
X137700068Y-82142848D01*
X137405928Y-82264384D01*
X137327188Y-82342987D01*
X135171136Y-82342987D01*
X135196212Y-82317955D01*
X135318261Y-82024028D01*
X135318539Y-81705768D01*
X135197003Y-81411628D01*
X134972155Y-81186388D01*
X134850898Y-81136038D01*
X134693130Y-80978270D01*
X134449813Y-80815690D01*
X134162800Y-80758600D01*
X128894795Y-80758600D01*
X128894795Y-80625000D01*
X128855989Y-80429910D01*
X128745480Y-80264520D01*
X128606358Y-80171563D01*
X128694081Y-80083993D01*
X128884783Y-79624731D01*
X128885217Y-79127450D01*
X128695316Y-78667857D01*
X128387485Y-78359487D01*
X128390860Y-78348649D01*
X127635000Y-77592789D01*
X126879140Y-78348649D01*
X126882624Y-78359838D01*
X126575919Y-78666007D01*
X126385217Y-79125269D01*
X126384783Y-79622550D01*
X126574684Y-80082143D01*
X126663825Y-80171440D01*
X126524520Y-80264520D01*
X126414011Y-80429910D01*
X126375205Y-80625000D01*
X124703795Y-80625000D01*
X124664989Y-80429910D01*
X124554480Y-80264520D01*
X124415358Y-80171563D01*
X124503081Y-80083993D01*
X124693783Y-79624731D01*
X124694217Y-79127450D01*
X124504316Y-78667857D01*
X124196485Y-78359487D01*
X124199860Y-78348649D01*
X123444000Y-77592789D01*
X123429858Y-77606931D01*
X123212069Y-77389142D01*
X123226211Y-77375000D01*
X123661789Y-77375000D01*
X124417649Y-78130860D01*
X124647738Y-78059212D01*
X124817945Y-77546479D01*
X124793146Y-77203521D01*
X126261055Y-77203521D01*
X126300018Y-77742360D01*
X126431262Y-78059212D01*
X126661351Y-78130860D01*
X127417211Y-77375000D01*
X127852789Y-77375000D01*
X128608649Y-78130860D01*
X128838738Y-78059212D01*
X129008945Y-77546479D01*
X128969982Y-77007640D01*
X128838738Y-76690788D01*
X128608649Y-76619140D01*
X127852789Y-77375000D01*
X127417211Y-77375000D01*
X126661351Y-76619140D01*
X126431262Y-76690788D01*
X126261055Y-77203521D01*
X124793146Y-77203521D01*
X124778982Y-77007640D01*
X124647738Y-76690788D01*
X124417649Y-76619140D01*
X123661789Y-77375000D01*
X123226211Y-77375000D01*
X123212069Y-77360858D01*
X123429858Y-77143069D01*
X123444000Y-77157211D01*
X124199860Y-76401351D01*
X124150699Y-76243476D01*
X124229312Y-76165000D01*
X126965906Y-76165000D01*
X126950788Y-76171262D01*
X126879140Y-76401351D01*
X127635000Y-77157211D01*
X128390860Y-76401351D01*
X128319212Y-76171262D01*
X128300348Y-76165000D01*
X135387472Y-76165000D01*
X135925000Y-76702528D01*
X135925000Y-78272068D01*
X135847188Y-78349745D01*
X135725139Y-78643672D01*
X135724861Y-78961932D01*
X135846397Y-79256072D01*
X136071245Y-79481312D01*
X136365172Y-79603361D01*
X136683432Y-79603639D01*
X136977572Y-79482103D01*
X137202812Y-79257255D01*
X137324861Y-78963328D01*
X137325139Y-78645068D01*
X137203603Y-78350928D01*
X137125000Y-78272188D01*
X137125000Y-76454000D01*
X137079328Y-76224390D01*
X136949264Y-76029736D01*
X136704473Y-75784945D01*
X136977572Y-75672103D01*
X137202812Y-75447255D01*
X137324861Y-75153328D01*
X137325139Y-74835068D01*
X137203603Y-74540928D01*
X136978755Y-74315688D01*
X136684828Y-74193639D01*
X136366568Y-74193361D01*
X136072428Y-74314897D01*
X135985751Y-74401423D01*
X135343774Y-74401423D01*
X135343939Y-74212768D01*
X135222403Y-73918628D01*
X134997555Y-73693388D01*
X134876298Y-73643038D01*
X134616930Y-73383670D01*
X134373613Y-73221090D01*
X134086600Y-73164000D01*
X132867907Y-73164000D01*
X132747828Y-73114139D01*
X132429568Y-73113861D01*
X132135428Y-73235397D01*
X131910188Y-73460245D01*
X131788139Y-73754172D01*
X131787861Y-74072432D01*
X131909397Y-74366572D01*
X131944187Y-74401423D01*
X128839878Y-74401423D01*
X128879361Y-74306338D01*
X128879458Y-74195080D01*
X129710264Y-73364274D01*
X129840328Y-73169620D01*
X129886000Y-72940010D01*
X129886000Y-72286432D01*
X129963812Y-72208755D01*
X130085861Y-71914828D01*
X130086139Y-71596568D01*
X129964603Y-71302428D01*
X129886000Y-71223688D01*
X129886000Y-70027800D01*
X129840328Y-69798190D01*
X129840328Y-69798189D01*
X129710264Y-69603536D01*
X129628843Y-69522115D01*
X129628939Y-69412168D01*
X129507403Y-69118028D01*
X129282555Y-68892788D01*
X128988628Y-68770739D01*
X128670368Y-68770461D01*
X128376228Y-68891997D01*
X128150988Y-69116845D01*
X128028939Y-69410772D01*
X128028661Y-69729032D01*
X128150197Y-70023172D01*
X128375045Y-70248412D01*
X128668972Y-70370461D01*
X128686000Y-70370476D01*
X128686000Y-71223568D01*
X128608188Y-71301245D01*
X128486139Y-71595172D01*
X128485861Y-71913432D01*
X128607397Y-72207572D01*
X128686000Y-72286312D01*
X128686000Y-72691482D01*
X128031015Y-73346467D01*
X127921068Y-73346371D01*
X127626928Y-73467907D01*
X127401688Y-73692755D01*
X127279639Y-73986682D01*
X127279361Y-74304942D01*
X127319226Y-74401423D01*
X123015009Y-74401423D01*
X122937332Y-74323611D01*
X122643405Y-74201562D01*
X122521522Y-74201456D01*
X122521522Y-69064881D01*
X126878482Y-64707921D01*
X126922599Y-64726240D01*
X127380193Y-64726640D01*
X127803108Y-64551895D01*
X128126958Y-64228610D01*
X128302440Y-63806001D01*
X128302441Y-63803993D01*
X128541960Y-63803993D01*
X128716705Y-64226908D01*
X129039990Y-64550758D01*
X129462599Y-64726240D01*
X129920193Y-64726640D01*
X130343108Y-64551895D01*
X130666958Y-64228610D01*
X130842440Y-63806001D01*
X130842441Y-63803993D01*
X131081960Y-63803993D01*
X131256705Y-64226908D01*
X131579990Y-64550758D01*
X132002599Y-64726240D01*
X132460193Y-64726640D01*
X132883108Y-64551895D01*
X133206958Y-64228610D01*
X133382440Y-63806001D01*
X133382840Y-63348407D01*
X133208095Y-62925492D01*
X132884810Y-62601642D01*
X132462201Y-62426160D01*
X132004607Y-62425760D01*
X131581692Y-62600505D01*
X131257842Y-62923790D01*
X131082360Y-63346399D01*
X131081960Y-63803993D01*
X130842441Y-63803993D01*
X130842840Y-63348407D01*
X130668095Y-62925492D01*
X130344810Y-62601642D01*
X129922201Y-62426160D01*
X129464607Y-62425760D01*
X129041692Y-62600505D01*
X128717842Y-62923790D01*
X128542360Y-63346399D01*
X128541960Y-63803993D01*
X128302441Y-63803993D01*
X128302840Y-63348407D01*
X128128095Y-62925492D01*
X127804810Y-62601642D01*
X127382201Y-62426160D01*
X126924607Y-62425760D01*
X126584000Y-62566496D01*
X126584000Y-62462403D01*
X126878482Y-62167921D01*
X126922599Y-62186240D01*
X127380193Y-62186640D01*
X127803108Y-62011895D01*
X128126958Y-61688610D01*
X128302440Y-61266001D01*
X128302441Y-61263993D01*
X128541960Y-61263993D01*
X128716705Y-61686908D01*
X129039990Y-62010758D01*
X129462599Y-62186240D01*
X129920193Y-62186640D01*
X130343108Y-62011895D01*
X130666958Y-61688610D01*
X130842440Y-61266001D01*
X130842441Y-61263993D01*
X131081960Y-61263993D01*
X131256705Y-61686908D01*
X131579990Y-62010758D01*
X132002599Y-62186240D01*
X132460193Y-62186640D01*
X132883108Y-62011895D01*
X133206958Y-61688610D01*
X133382440Y-61266001D01*
X133382840Y-60808407D01*
X133208095Y-60385492D01*
X132884810Y-60061642D01*
X132462201Y-59886160D01*
X132004607Y-59885760D01*
X131581692Y-60060505D01*
X131257842Y-60383790D01*
X131082360Y-60806399D01*
X131081960Y-61263993D01*
X130842441Y-61263993D01*
X130842840Y-60808407D01*
X130668095Y-60385492D01*
X130344810Y-60061642D01*
X129922201Y-59886160D01*
X129464607Y-59885760D01*
X129041692Y-60060505D01*
X128717842Y-60383790D01*
X128542360Y-60806399D01*
X128541960Y-61263993D01*
X128302441Y-61263993D01*
X128302840Y-60808407D01*
X128128095Y-60385492D01*
X127804810Y-60061642D01*
X127382201Y-59886160D01*
X126924607Y-59885760D01*
X126501692Y-60060505D01*
X126177842Y-60383790D01*
X126002360Y-60806399D01*
X126001960Y-61263993D01*
X126026343Y-61323004D01*
X125559736Y-61789611D01*
X125429672Y-61984265D01*
X125384000Y-62213875D01*
X125384000Y-62721040D01*
X125264810Y-62601642D01*
X124842201Y-62426160D01*
X124384607Y-62425760D01*
X123961692Y-62600505D01*
X123637842Y-62923790D01*
X123462360Y-63346399D01*
X123461960Y-63803993D01*
X123636705Y-64226908D01*
X123959990Y-64550758D01*
X124317333Y-64699139D01*
X121821500Y-67194972D01*
X121821500Y-64782700D01*
X121807359Y-64711607D01*
X121842599Y-64726240D01*
X122300193Y-64726640D01*
X122723108Y-64551895D01*
X123046958Y-64228610D01*
X123222440Y-63806001D01*
X123222840Y-63348407D01*
X123048095Y-62925492D01*
X122724810Y-62601642D01*
X122302201Y-62426160D01*
X121844607Y-62425760D01*
X121421692Y-62600505D01*
X121343217Y-62678843D01*
X121277464Y-62580436D01*
X120566264Y-61869236D01*
X120422347Y-61773073D01*
X120506958Y-61688610D01*
X120682440Y-61266001D01*
X120682441Y-61263993D01*
X120921960Y-61263993D01*
X121096705Y-61686908D01*
X121419990Y-62010758D01*
X121842599Y-62186240D01*
X122300193Y-62186640D01*
X122723108Y-62011895D01*
X123046958Y-61688610D01*
X123222440Y-61266001D01*
X123222441Y-61263993D01*
X123461960Y-61263993D01*
X123636705Y-61686908D01*
X123959990Y-62010758D01*
X124382599Y-62186240D01*
X124840193Y-62186640D01*
X125263108Y-62011895D01*
X125586958Y-61688610D01*
X125762440Y-61266001D01*
X125762840Y-60808407D01*
X125588095Y-60385492D01*
X125264810Y-60061642D01*
X124842201Y-59886160D01*
X124384607Y-59885760D01*
X123961692Y-60060505D01*
X123637842Y-60383790D01*
X123462360Y-60806399D01*
X123461960Y-61263993D01*
X123222441Y-61263993D01*
X123222840Y-60808407D01*
X123048095Y-60385492D01*
X122724810Y-60061642D01*
X122302201Y-59886160D01*
X121844607Y-59885760D01*
X121421692Y-60060505D01*
X121097842Y-60383790D01*
X120922360Y-60806399D01*
X120921960Y-61263993D01*
X120682441Y-61263993D01*
X120682840Y-60808407D01*
X120508095Y-60385492D01*
X120184810Y-60061642D01*
X119762201Y-59886160D01*
X119304607Y-59885760D01*
X118881692Y-60060505D01*
X118557842Y-60383790D01*
X118382360Y-60806399D01*
X118381960Y-61263993D01*
X118556705Y-61686908D01*
X118563285Y-61693500D01*
X118500279Y-61693500D01*
X118122002Y-61315223D01*
X118142440Y-61266001D01*
X118142840Y-60808407D01*
X117968095Y-60385492D01*
X117644810Y-60061642D01*
X117222201Y-59886160D01*
X116764607Y-59885760D01*
X116341692Y-60060505D01*
X116017842Y-60383790D01*
X115842360Y-60806399D01*
X115841960Y-61263993D01*
X116016705Y-61686908D01*
X116339990Y-62010758D01*
X116762599Y-62186240D01*
X117220193Y-62186640D01*
X117274092Y-62164369D01*
X117827487Y-62717764D01*
X118022141Y-62847828D01*
X118251751Y-62893500D01*
X118588185Y-62893500D01*
X118557842Y-62923790D01*
X118382360Y-63346399D01*
X118381960Y-63803993D01*
X118556705Y-64226908D01*
X118879990Y-64550758D01*
X119302599Y-64726240D01*
X119760193Y-64726640D01*
X120183108Y-64551895D01*
X120264406Y-64470738D01*
X120298872Y-64644010D01*
X120428936Y-64838664D01*
X120621500Y-65031228D01*
X120621500Y-85285972D01*
X120037878Y-85869594D01*
X119864486Y-85869443D01*
X119570346Y-85990979D01*
X119492172Y-86069017D01*
X117440000Y-84016845D01*
X117440000Y-80625000D01*
X117739205Y-80625000D01*
X117739205Y-82125000D01*
X117778011Y-82320090D01*
X117888520Y-82485480D01*
X118053910Y-82595989D01*
X118249000Y-82634795D01*
X119749000Y-82634795D01*
X119944090Y-82595989D01*
X120109480Y-82485480D01*
X120219989Y-82320090D01*
X120258795Y-82125000D01*
X120258795Y-80625000D01*
X120219989Y-80429910D01*
X120109480Y-80264520D01*
X119970358Y-80171563D01*
X120058081Y-80083993D01*
X120248783Y-79624731D01*
X120249217Y-79127450D01*
X120059316Y-78667857D01*
X119751485Y-78359487D01*
X119754860Y-78348649D01*
X118999000Y-77592789D01*
X118243140Y-78348649D01*
X118246624Y-78359838D01*
X117939919Y-78666007D01*
X117749217Y-79125269D01*
X117748783Y-79622550D01*
X117938684Y-80082143D01*
X118027825Y-80171440D01*
X117888520Y-80264520D01*
X117778011Y-80429910D01*
X117739205Y-80625000D01*
X117440000Y-80625000D01*
X117440000Y-77203521D01*
X117625055Y-77203521D01*
X117664018Y-77742360D01*
X117795262Y-78059212D01*
X118025351Y-78130860D01*
X118781211Y-77375000D01*
X119216789Y-77375000D01*
X119972649Y-78130860D01*
X120202738Y-78059212D01*
X120372945Y-77546479D01*
X120333982Y-77007640D01*
X120202738Y-76690788D01*
X119972649Y-76619140D01*
X119216789Y-77375000D01*
X118781211Y-77375000D01*
X118025351Y-76619140D01*
X117795262Y-76690788D01*
X117625055Y-77203521D01*
X117440000Y-77203521D01*
X117440000Y-76191035D01*
X117875021Y-76335445D01*
X118272615Y-76306695D01*
X118243140Y-76401351D01*
X118999000Y-77157211D01*
X119754860Y-76401351D01*
X119683212Y-76171262D01*
X119170479Y-76001055D01*
X118772885Y-76029805D01*
X118802360Y-75935149D01*
X118046500Y-75179289D01*
X118032358Y-75193431D01*
X117814569Y-74975642D01*
X117828711Y-74961500D01*
X117814569Y-74947358D01*
X118032358Y-74729569D01*
X118046500Y-74743711D01*
X118060642Y-74729569D01*
X118278431Y-74947358D01*
X118264289Y-74961500D01*
X119020149Y-75717360D01*
X119250238Y-75645712D01*
X119420445Y-75132979D01*
X119381482Y-74594140D01*
X119250238Y-74277288D01*
X119020151Y-74205640D01*
X119133074Y-74092717D01*
X119130218Y-74089861D01*
X119156980Y-74071980D01*
X119267489Y-73906590D01*
X119306295Y-73711500D01*
X119306295Y-72211500D01*
X119267489Y-72016410D01*
X119156980Y-71851020D01*
X118991590Y-71740511D01*
X118796500Y-71701705D01*
X117440000Y-71701705D01*
X117440000Y-64635818D01*
X117643108Y-64551895D01*
X117966958Y-64228610D01*
X118142440Y-63806001D01*
X118142840Y-63348407D01*
X117968095Y-62925492D01*
X117644810Y-62601642D01*
X117222201Y-62426160D01*
X116764607Y-62425760D01*
X116341692Y-62600505D01*
X116017842Y-62923790D01*
X115842360Y-63346399D01*
X115841960Y-63803993D01*
X116016705Y-64226908D01*
X116240000Y-64450593D01*
X116240000Y-64513221D01*
X115582002Y-63855223D01*
X115602440Y-63806001D01*
X115602840Y-63348407D01*
X115428095Y-62925492D01*
X115104810Y-62601642D01*
X114682201Y-62426160D01*
X114224607Y-62425760D01*
X114011000Y-62514021D01*
X114011000Y-62351528D01*
X114189876Y-62172652D01*
X114222599Y-62186240D01*
X114680193Y-62186640D01*
X115103108Y-62011895D01*
X115426958Y-61688610D01*
X115602440Y-61266001D01*
X115602840Y-60808407D01*
X115428095Y-60385492D01*
X115104810Y-60061642D01*
X114682201Y-59886160D01*
X114224607Y-59885760D01*
X113801692Y-60060505D01*
X113477842Y-60383790D01*
X113302360Y-60806399D01*
X113301960Y-61263993D01*
X113331058Y-61334414D01*
X113196126Y-61469347D01*
X113042002Y-61315223D01*
X113062440Y-61266001D01*
X113062840Y-60808407D01*
X112888095Y-60385492D01*
X112564810Y-60061642D01*
X112142201Y-59886160D01*
X111684607Y-59885760D01*
X111261692Y-60060505D01*
X110937842Y-60383790D01*
X110762360Y-60806399D01*
X110761960Y-61263993D01*
X110877450Y-61543500D01*
X110407213Y-61543500D01*
X110522440Y-61266001D01*
X110522840Y-60808407D01*
X110348095Y-60385492D01*
X110024810Y-60061642D01*
X109602201Y-59886160D01*
X109144607Y-59885760D01*
X108721692Y-60060505D01*
X108397842Y-60383790D01*
X108222360Y-60806399D01*
X108221960Y-61263993D01*
X108337450Y-61543500D01*
X107867213Y-61543500D01*
X107982440Y-61266001D01*
X107982840Y-60808407D01*
X107808095Y-60385492D01*
X107484810Y-60061642D01*
X107062201Y-59886160D01*
X106604607Y-59885760D01*
X106181692Y-60060505D01*
X105857842Y-60383790D01*
X105682360Y-60806399D01*
X105681960Y-61263993D01*
X105797450Y-61543500D01*
X105327213Y-61543500D01*
X105442440Y-61266001D01*
X105442840Y-60808407D01*
X105268095Y-60385492D01*
X104944810Y-60061642D01*
X104522201Y-59886160D01*
X104064607Y-59885760D01*
X103641692Y-60060505D01*
X103317842Y-60383790D01*
X103142360Y-60806399D01*
X103141960Y-61263993D01*
X103257450Y-61543500D01*
X102787213Y-61543500D01*
X102902440Y-61266001D01*
X102902840Y-60808407D01*
X102728095Y-60385492D01*
X102404810Y-60061642D01*
X101982201Y-59886160D01*
X101524607Y-59885760D01*
X101101692Y-60060505D01*
X100777842Y-60383790D01*
X100602360Y-60806399D01*
X100601960Y-61263993D01*
X100717450Y-61543500D01*
X100247213Y-61543500D01*
X100362440Y-61266001D01*
X100362840Y-60808407D01*
X100188095Y-60385492D01*
X99864810Y-60061642D01*
X99442201Y-59886160D01*
X98984607Y-59885760D01*
X98561692Y-60060505D01*
X98237842Y-60383790D01*
X98062360Y-60806399D01*
X98061960Y-61263993D01*
X98236705Y-61686908D01*
X98242066Y-61692278D01*
X98135970Y-61763170D01*
X97386670Y-62512470D01*
X97333365Y-62592246D01*
X97296422Y-62455306D01*
X96819974Y-62301826D01*
X96321058Y-62342358D01*
X96048378Y-62455306D01*
X95989084Y-62675095D01*
X94815716Y-62675095D01*
X94756422Y-62455306D01*
X94279974Y-62301826D01*
X93781058Y-62342358D01*
X93508378Y-62455306D01*
X93449084Y-62675095D01*
X88374386Y-62675095D01*
X89478566Y-61937305D01*
X93449084Y-61937305D01*
X93508378Y-62157094D01*
X93984826Y-62310574D01*
X94483742Y-62270042D01*
X94756422Y-62157094D01*
X94815716Y-61937305D01*
X95989084Y-61937305D01*
X96048378Y-62157094D01*
X96524826Y-62310574D01*
X97023742Y-62270042D01*
X97296422Y-62157094D01*
X97355716Y-61937305D01*
X96672400Y-61253989D01*
X95989084Y-61937305D01*
X94815716Y-61937305D01*
X94132400Y-61253989D01*
X93449084Y-61937305D01*
X89478566Y-61937305D01*
X91439773Y-60626869D01*
X93162588Y-60284180D01*
X93231293Y-60352885D01*
X93011506Y-60412178D01*
X92858026Y-60888626D01*
X92898558Y-61387542D01*
X93011506Y-61660222D01*
X93231295Y-61719516D01*
X93914611Y-61036200D01*
X94350189Y-61036200D01*
X95033505Y-61719516D01*
X95253294Y-61660222D01*
X95406774Y-61183774D01*
X95382797Y-60888626D01*
X95398026Y-60888626D01*
X95438558Y-61387542D01*
X95551506Y-61660222D01*
X95771295Y-61719516D01*
X96454611Y-61036200D01*
X96890189Y-61036200D01*
X97573505Y-61719516D01*
X97793294Y-61660222D01*
X97946774Y-61183774D01*
X97906242Y-60684858D01*
X97793294Y-60412178D01*
X97573505Y-60352884D01*
X96890189Y-61036200D01*
X96454611Y-61036200D01*
X95771295Y-60352884D01*
X95551506Y-60412178D01*
X95398026Y-60888626D01*
X95382797Y-60888626D01*
X95366242Y-60684858D01*
X95253294Y-60412178D01*
X95033505Y-60352884D01*
X94350189Y-61036200D01*
X93914611Y-61036200D01*
X93900469Y-61022058D01*
X94118258Y-60804269D01*
X94132400Y-60818411D01*
X94815716Y-60135095D01*
X95989084Y-60135095D01*
X96672400Y-60818411D01*
X97355716Y-60135095D01*
X97296422Y-59915306D01*
X96819974Y-59761826D01*
X96321058Y-59802358D01*
X96048378Y-59915306D01*
X95989084Y-60135095D01*
X94815716Y-60135095D01*
X94769695Y-59964505D01*
X96132130Y-59693500D01*
X148846751Y-59693500D01*
X148842495Y-59695263D01*
G36*
X124939500Y-106300754D02*
X123210236Y-108030018D01*
X123080172Y-108224672D01*
X123034500Y-108454282D01*
X123034500Y-108631873D01*
X122783047Y-108379981D01*
X123487264Y-107675764D01*
X123617328Y-107481110D01*
X123663000Y-107251500D01*
X123663000Y-104643375D01*
X123892769Y-104738783D01*
X124390050Y-104739217D01*
X124849643Y-104549316D01*
X124939500Y-104459616D01*
X124939500Y-106300754D01*
X124939500Y-106300754D01*
G37*
X124939500Y-106300754D02*
X123210236Y-108030018D01*
X123080172Y-108224672D01*
X123034500Y-108454282D01*
X123034500Y-108631873D01*
X122783047Y-108379981D01*
X123487264Y-107675764D01*
X123617328Y-107481110D01*
X123663000Y-107251500D01*
X123663000Y-104643375D01*
X123892769Y-104738783D01*
X124390050Y-104739217D01*
X124849643Y-104549316D01*
X124939500Y-104459616D01*
X124939500Y-106300754D01*
G36*
X145338677Y-96276205D02*
X144411000Y-96276205D01*
X144215910Y-96315011D01*
X144050520Y-96425520D01*
X143940011Y-96590910D01*
X143901205Y-96786000D01*
X143901205Y-98286000D01*
X143940011Y-98481090D01*
X144050520Y-98646480D01*
X144189642Y-98739437D01*
X144101919Y-98827007D01*
X143911217Y-99286269D01*
X143910783Y-99783550D01*
X144100684Y-100243143D01*
X144150159Y-100292705D01*
X143378285Y-100292705D01*
X143426081Y-100244993D01*
X143616783Y-99785731D01*
X143617217Y-99288450D01*
X143427316Y-98828857D01*
X143338175Y-98739560D01*
X143477480Y-98646480D01*
X143587989Y-98481090D01*
X143626795Y-98286000D01*
X143626795Y-96786000D01*
X143587989Y-96590910D01*
X143477480Y-96425520D01*
X143312090Y-96315011D01*
X143117000Y-96276205D01*
X141617000Y-96276205D01*
X141421910Y-96315011D01*
X141256520Y-96425520D01*
X141146011Y-96590910D01*
X141107205Y-96786000D01*
X141107205Y-98286000D01*
X141146011Y-98481090D01*
X141256520Y-98646480D01*
X141395642Y-98739437D01*
X141307919Y-98827007D01*
X141117217Y-99286269D01*
X141116783Y-99783550D01*
X141306684Y-100243143D01*
X141356159Y-100292705D01*
X140520785Y-100292705D01*
X140568581Y-100244993D01*
X140759283Y-99785731D01*
X140759717Y-99288450D01*
X140569816Y-98828857D01*
X140480675Y-98739560D01*
X140619980Y-98646480D01*
X140730489Y-98481090D01*
X140769295Y-98286000D01*
X140769295Y-96786000D01*
X140730489Y-96590910D01*
X140619980Y-96425520D01*
X140454590Y-96315011D01*
X140259500Y-96276205D01*
X138759500Y-96276205D01*
X138564410Y-96315011D01*
X138399020Y-96425520D01*
X138288511Y-96590910D01*
X138249705Y-96786000D01*
X138249705Y-98286000D01*
X138288511Y-98481090D01*
X138399020Y-98646480D01*
X138538142Y-98739437D01*
X138450419Y-98827007D01*
X138259717Y-99286269D01*
X138259283Y-99783550D01*
X138449184Y-100243143D01*
X138482687Y-100276705D01*
X137806313Y-100276705D01*
X137838081Y-100244993D01*
X138028783Y-99785731D01*
X138029217Y-99288450D01*
X137839316Y-98828857D01*
X137750175Y-98739560D01*
X137889480Y-98646480D01*
X137999989Y-98481090D01*
X138038795Y-98286000D01*
X138038795Y-96786000D01*
X137999989Y-96590910D01*
X137889480Y-96425520D01*
X137724090Y-96315011D01*
X137529000Y-96276205D01*
X136029000Y-96276205D01*
X135833910Y-96315011D01*
X135668520Y-96425520D01*
X135558011Y-96590910D01*
X135519205Y-96786000D01*
X135519205Y-98286000D01*
X135558011Y-98481090D01*
X135668520Y-98646480D01*
X135807642Y-98739437D01*
X135719919Y-98827007D01*
X135529217Y-99286269D01*
X135528783Y-99783550D01*
X135718684Y-100243143D01*
X135720742Y-100245205D01*
X134980369Y-100245205D01*
X134980581Y-100244993D01*
X135171283Y-99785731D01*
X135171717Y-99288450D01*
X134981816Y-98828857D01*
X134892675Y-98739560D01*
X135031980Y-98646480D01*
X135142489Y-98481090D01*
X135181295Y-98286000D01*
X135181295Y-96786000D01*
X135142489Y-96590910D01*
X135031980Y-96425520D01*
X134866590Y-96315011D01*
X134671500Y-96276205D01*
X133171500Y-96276205D01*
X132976410Y-96315011D01*
X132811020Y-96425520D01*
X132700511Y-96590910D01*
X132661705Y-96786000D01*
X132661705Y-98286000D01*
X132700511Y-98481090D01*
X132811020Y-98646480D01*
X132950142Y-98739437D01*
X132862419Y-98827007D01*
X132671717Y-99286269D01*
X132671283Y-99783550D01*
X132848814Y-100213205D01*
X132199781Y-100213205D01*
X132377283Y-99785731D01*
X132377717Y-99288450D01*
X132187816Y-98828857D01*
X132098675Y-98739560D01*
X132237980Y-98646480D01*
X132348489Y-98481090D01*
X132387295Y-98286000D01*
X132387295Y-96786000D01*
X132348489Y-96590910D01*
X132237980Y-96425520D01*
X132072590Y-96315011D01*
X131877500Y-96276205D01*
X130377500Y-96276205D01*
X130182410Y-96315011D01*
X130017020Y-96425520D01*
X129906511Y-96590910D01*
X129867705Y-96786000D01*
X129867705Y-98286000D01*
X129906511Y-98481090D01*
X130017020Y-98646480D01*
X130156142Y-98739437D01*
X130068419Y-98827007D01*
X129877717Y-99286269D01*
X129877283Y-99783550D01*
X130054814Y-100213205D01*
X129405781Y-100213205D01*
X129583283Y-99785731D01*
X129583717Y-99288450D01*
X129393816Y-98828857D01*
X129304675Y-98739560D01*
X129443980Y-98646480D01*
X129554489Y-98481090D01*
X129593295Y-98286000D01*
X129593295Y-96786000D01*
X129554489Y-96590910D01*
X129443980Y-96425520D01*
X129278590Y-96315011D01*
X129083500Y-96276205D01*
X127583500Y-96276205D01*
X127536500Y-96285554D01*
X127536500Y-91514092D01*
X127602172Y-91541361D01*
X127920432Y-91541639D01*
X128214572Y-91420103D01*
X128293312Y-91341500D01*
X138724068Y-91341500D01*
X138801745Y-91419312D01*
X139095672Y-91541361D01*
X139413932Y-91541639D01*
X139708072Y-91420103D01*
X139933312Y-91195255D01*
X140028497Y-90966025D01*
X145338677Y-96276205D01*
X145338677Y-96276205D01*
G37*
X145338677Y-96276205D02*
X144411000Y-96276205D01*
X144215910Y-96315011D01*
X144050520Y-96425520D01*
X143940011Y-96590910D01*
X143901205Y-96786000D01*
X143901205Y-98286000D01*
X143940011Y-98481090D01*
X144050520Y-98646480D01*
X144189642Y-98739437D01*
X144101919Y-98827007D01*
X143911217Y-99286269D01*
X143910783Y-99783550D01*
X144100684Y-100243143D01*
X144150159Y-100292705D01*
X143378285Y-100292705D01*
X143426081Y-100244993D01*
X143616783Y-99785731D01*
X143617217Y-99288450D01*
X143427316Y-98828857D01*
X143338175Y-98739560D01*
X143477480Y-98646480D01*
X143587989Y-98481090D01*
X143626795Y-98286000D01*
X143626795Y-96786000D01*
X143587989Y-96590910D01*
X143477480Y-96425520D01*
X143312090Y-96315011D01*
X143117000Y-96276205D01*
X141617000Y-96276205D01*
X141421910Y-96315011D01*
X141256520Y-96425520D01*
X141146011Y-96590910D01*
X141107205Y-96786000D01*
X141107205Y-98286000D01*
X141146011Y-98481090D01*
X141256520Y-98646480D01*
X141395642Y-98739437D01*
X141307919Y-98827007D01*
X141117217Y-99286269D01*
X141116783Y-99783550D01*
X141306684Y-100243143D01*
X141356159Y-100292705D01*
X140520785Y-100292705D01*
X140568581Y-100244993D01*
X140759283Y-99785731D01*
X140759717Y-99288450D01*
X140569816Y-98828857D01*
X140480675Y-98739560D01*
X140619980Y-98646480D01*
X140730489Y-98481090D01*
X140769295Y-98286000D01*
X140769295Y-96786000D01*
X140730489Y-96590910D01*
X140619980Y-96425520D01*
X140454590Y-96315011D01*
X140259500Y-96276205D01*
X138759500Y-96276205D01*
X138564410Y-96315011D01*
X138399020Y-96425520D01*
X138288511Y-96590910D01*
X138249705Y-96786000D01*
X138249705Y-98286000D01*
X138288511Y-98481090D01*
X138399020Y-98646480D01*
X138538142Y-98739437D01*
X138450419Y-98827007D01*
X138259717Y-99286269D01*
X138259283Y-99783550D01*
X138449184Y-100243143D01*
X138482687Y-100276705D01*
X137806313Y-100276705D01*
X137838081Y-100244993D01*
X138028783Y-99785731D01*
X138029217Y-99288450D01*
X137839316Y-98828857D01*
X137750175Y-98739560D01*
X137889480Y-98646480D01*
X137999989Y-98481090D01*
X138038795Y-98286000D01*
X138038795Y-96786000D01*
X137999989Y-96590910D01*
X137889480Y-96425520D01*
X137724090Y-96315011D01*
X137529000Y-96276205D01*
X136029000Y-96276205D01*
X135833910Y-96315011D01*
X135668520Y-96425520D01*
X135558011Y-96590910D01*
X135519205Y-96786000D01*
X135519205Y-98286000D01*
X135558011Y-98481090D01*
X135668520Y-98646480D01*
X135807642Y-98739437D01*
X135719919Y-98827007D01*
X135529217Y-99286269D01*
X135528783Y-99783550D01*
X135718684Y-100243143D01*
X135720742Y-100245205D01*
X134980369Y-100245205D01*
X134980581Y-100244993D01*
X135171283Y-99785731D01*
X135171717Y-99288450D01*
X134981816Y-98828857D01*
X134892675Y-98739560D01*
X135031980Y-98646480D01*
X135142489Y-98481090D01*
X135181295Y-98286000D01*
X135181295Y-96786000D01*
X135142489Y-96590910D01*
X135031980Y-96425520D01*
X134866590Y-96315011D01*
X134671500Y-96276205D01*
X133171500Y-96276205D01*
X132976410Y-96315011D01*
X132811020Y-96425520D01*
X132700511Y-96590910D01*
X132661705Y-96786000D01*
X132661705Y-98286000D01*
X132700511Y-98481090D01*
X132811020Y-98646480D01*
X132950142Y-98739437D01*
X132862419Y-98827007D01*
X132671717Y-99286269D01*
X132671283Y-99783550D01*
X132848814Y-100213205D01*
X132199781Y-100213205D01*
X132377283Y-99785731D01*
X132377717Y-99288450D01*
X132187816Y-98828857D01*
X132098675Y-98739560D01*
X132237980Y-98646480D01*
X132348489Y-98481090D01*
X132387295Y-98286000D01*
X132387295Y-96786000D01*
X132348489Y-96590910D01*
X132237980Y-96425520D01*
X132072590Y-96315011D01*
X131877500Y-96276205D01*
X130377500Y-96276205D01*
X130182410Y-96315011D01*
X130017020Y-96425520D01*
X129906511Y-96590910D01*
X129867705Y-96786000D01*
X129867705Y-98286000D01*
X129906511Y-98481090D01*
X130017020Y-98646480D01*
X130156142Y-98739437D01*
X130068419Y-98827007D01*
X129877717Y-99286269D01*
X129877283Y-99783550D01*
X130054814Y-100213205D01*
X129405781Y-100213205D01*
X129583283Y-99785731D01*
X129583717Y-99288450D01*
X129393816Y-98828857D01*
X129304675Y-98739560D01*
X129443980Y-98646480D01*
X129554489Y-98481090D01*
X129593295Y-98286000D01*
X129593295Y-96786000D01*
X129554489Y-96590910D01*
X129443980Y-96425520D01*
X129278590Y-96315011D01*
X129083500Y-96276205D01*
X127583500Y-96276205D01*
X127536500Y-96285554D01*
X127536500Y-91514092D01*
X127602172Y-91541361D01*
X127920432Y-91541639D01*
X128214572Y-91420103D01*
X128293312Y-91341500D01*
X138724068Y-91341500D01*
X138801745Y-91419312D01*
X139095672Y-91541361D01*
X139413932Y-91541639D01*
X139708072Y-91420103D01*
X139933312Y-91195255D01*
X140028497Y-90966025D01*
X145338677Y-96276205D01*
G36*
X115605000Y-76611227D02*
X115527649Y-76587140D01*
X114771789Y-77343000D01*
X115527649Y-78098860D01*
X115605000Y-78074773D01*
X115605000Y-78626525D01*
X115306485Y-78327487D01*
X115309860Y-78316649D01*
X114554000Y-77560789D01*
X114539858Y-77574931D01*
X114322069Y-77357142D01*
X114336211Y-77343000D01*
X114322069Y-77328858D01*
X114539858Y-77111069D01*
X114554000Y-77125211D01*
X115309860Y-76369351D01*
X115288902Y-76302047D01*
X115365860Y-76296482D01*
X115605000Y-76197427D01*
X115605000Y-76611227D01*
X115605000Y-76611227D01*
G37*
X115605000Y-76611227D02*
X115527649Y-76587140D01*
X114771789Y-77343000D01*
X115527649Y-78098860D01*
X115605000Y-78074773D01*
X115605000Y-78626525D01*
X115306485Y-78327487D01*
X115309860Y-78316649D01*
X114554000Y-77560789D01*
X114539858Y-77574931D01*
X114322069Y-77357142D01*
X114336211Y-77343000D01*
X114322069Y-77328858D01*
X114539858Y-77111069D01*
X114554000Y-77125211D01*
X115309860Y-76369351D01*
X115288902Y-76302047D01*
X115365860Y-76296482D01*
X115605000Y-76197427D01*
X115605000Y-76611227D01*
G36*
X115230431Y-74947358D02*
X115216289Y-74961500D01*
X115230431Y-74975642D01*
X115012642Y-75193431D01*
X114998500Y-75179289D01*
X114984358Y-75193431D01*
X114766569Y-74975642D01*
X114780711Y-74961500D01*
X114766569Y-74947358D01*
X114984358Y-74729569D01*
X114998500Y-74743711D01*
X115012642Y-74729569D01*
X115230431Y-74947358D01*
X115230431Y-74947358D01*
G37*
X115230431Y-74947358D02*
X115216289Y-74961500D01*
X115230431Y-74975642D01*
X115012642Y-75193431D01*
X114998500Y-75179289D01*
X114984358Y-75193431D01*
X114766569Y-74975642D01*
X114780711Y-74961500D01*
X114766569Y-74947358D01*
X114984358Y-74729569D01*
X114998500Y-74743711D01*
X115012642Y-74729569D01*
X115230431Y-74947358D01*
M02*
