M48
;DRILL file {KiCad 4.0.1-stable} date 2016 March 14, Monday 18:21:39
;FORMAT={-:-/ absolute / metric / decimal}
FMAT,2
METRIC,TZ
T1C0.400
T2C0.800
T3C0.800
T4C1.100
T5C3.200
%
G90
G05
M71
T1
X97.917Y-66.739
X98.412Y-83.49
X99.314Y-66.993
X102.298Y-66.992
X103.06Y-62.994
X103.124Y-101.79
X104.965Y-103.06
X105.156Y-66.992
X105.6Y-82.296
X105.791Y-87.757
X106.477Y-92.253
X107.251Y-101.727
X107.467Y-88.087
X107.467Y-87.249
X108.204Y-66.992
X109.093Y-103.06
X111.252Y-66.992
X111.316Y-62.293
X111.379Y-101.727
X112.522Y-66.019
X113.221Y-102.997
X113.284Y-92.265
X115.506Y-101.727
X116.014Y-87.232
X117.348Y-102.997
X117.602Y-66.992
X119.634Y-101.663
X119.908Y-89.852
X120.015Y-89.027
X120.022Y-87.448
X120.023Y-86.67
X120.023Y-88.257
X121.412Y-102.997
X121.539Y-93.218
X122.484Y-75.001
X122.504Y-83.388
X123.38Y-68.834
X123.698Y-75.565
X124.91Y-106.273
X125.349Y-84.391
X126.492Y-84.391
X126.809Y-73.025
X127.508Y-84.391
X127.762Y-90.742
X127.804Y-106.294
X128.079Y-74.147
X128.079Y-93.599
X128.46Y-84.391
X128.829Y-69.571
X129.286Y-71.755
X130.238Y-92.075
X130.365Y-83.693
X130.508Y-106.294
X131.039Y-82.931
X132.588Y-73.914
X132.588Y-87.935
X133.303Y-106.296
X133.667Y-93.662
X133.921Y-87.947
X134.518Y-81.864
X134.544Y-74.371
X135.077Y-68.834
X136.097Y-106.296
X136.525Y-74.993
X136.525Y-78.803
X137.858Y-82.943
X137.858Y-83.693
X138.367Y-70.231
X138.891Y-106.296
X139.255Y-90.742
X140.081Y-78.74
X140.462Y-88.646
X140.97Y-71.755
X141.351Y-76.962
X141.415Y-86.614
X141.684Y-106.297
X141.732Y-89.408
X142.875Y-71.31
X144.461Y-84.138
X144.463Y-80.709
X144.479Y-106.296
X146.098Y-74.369
X146.812Y-91.567
X146.871Y-66.66
X147.98Y-74.681
X148.374Y-65.519
X149.733Y-70.294
X156.019Y-69.342
X160.338Y-65.849
X161.607Y-65.278
X161.823Y-76.657
X165.036Y-65.722
X165.036Y-74.612
T2
X102.044Y-97.904
X102.044Y-99.904
X102.997Y-72.962
X102.997Y-74.962
X104.127Y-97.904
X104.127Y-99.904
X105.855Y-72.962
X105.855Y-74.962
X106.223Y-97.904
X106.223Y-99.904
X108.255Y-97.904
X108.255Y-99.904
X108.902Y-72.962
X108.902Y-74.962
X110.338Y-97.92
X110.338Y-99.92
X110.807Y-83.233
X110.807Y-85.233
X110.807Y-87.233
X110.807Y-89.233
X111.95Y-72.962
X111.95Y-74.962
X112.37Y-97.936
X112.37Y-99.936
X114.44Y-97.92
X114.44Y-99.92
X114.554Y-77.343
X114.554Y-79.343
X114.554Y-81.343
X114.998Y-72.962
X114.998Y-74.962
X116.472Y-97.93
X116.472Y-99.93
X118.046Y-72.962
X118.046Y-74.962
X118.491Y-97.904
X118.491Y-99.904
X118.999Y-77.375
X118.999Y-79.375
X118.999Y-81.375
X120.523Y-97.92
X120.523Y-99.92
X123.444Y-77.375
X123.444Y-79.375
X123.444Y-81.375
X124.142Y-101.489
X124.142Y-103.489
X125.539Y-97.536
X125.539Y-99.536
X126.936Y-101.473
X126.936Y-103.473
X127.635Y-77.375
X127.635Y-79.375
X127.635Y-81.375
X128.333Y-97.536
X128.333Y-99.536
X129.731Y-101.473
X129.731Y-103.473
X131.127Y-97.536
X131.127Y-99.536
X132.524Y-101.473
X132.524Y-103.473
X133.921Y-97.536
X133.921Y-99.536
X135.319Y-101.505
X135.319Y-103.505
X136.779Y-97.536
X136.779Y-99.536
X138.112Y-101.536
X138.112Y-103.536
X139.51Y-97.536
X139.51Y-99.536
X140.906Y-101.552
X140.906Y-103.552
X142.367Y-97.536
X142.367Y-99.536
X143.701Y-101.552
X143.701Y-103.552
X145.161Y-97.536
X145.161Y-99.536
T3
X94.132Y-61.036
X94.132Y-63.576
X94.132Y-109.296
X94.132Y-111.836
X96.672Y-61.036
X96.672Y-63.576
X96.672Y-109.296
X96.672Y-111.836
X99.212Y-61.036
X99.212Y-63.576
X99.212Y-109.296
X99.212Y-111.836
X101.752Y-61.036
X101.752Y-63.576
X101.752Y-109.296
X101.752Y-111.836
X104.292Y-61.036
X104.292Y-63.576
X104.292Y-109.296
X104.292Y-111.836
X106.832Y-61.036
X106.832Y-63.576
X106.832Y-109.296
X106.832Y-111.836
X109.372Y-61.036
X109.372Y-63.576
X109.372Y-109.296
X109.372Y-111.836
X111.912Y-61.036
X111.912Y-63.576
X111.912Y-109.296
X111.912Y-111.836
X114.452Y-61.036
X114.452Y-63.576
X114.452Y-109.296
X114.452Y-111.836
X116.992Y-61.036
X116.992Y-63.576
X116.992Y-109.296
X116.992Y-111.836
X119.532Y-61.036
X119.532Y-63.576
X119.532Y-109.296
X119.532Y-111.836
X122.072Y-61.036
X122.072Y-63.576
X122.072Y-109.296
X122.072Y-111.836
X124.612Y-61.036
X124.612Y-63.576
X124.612Y-109.296
X124.612Y-111.836
X127.152Y-61.036
X127.152Y-63.576
X127.152Y-109.296
X127.152Y-111.836
X129.692Y-61.036
X129.692Y-63.576
X129.692Y-109.296
X129.692Y-111.836
X132.232Y-61.036
X132.232Y-63.576
X132.232Y-109.296
X132.232Y-111.836
X134.772Y-61.036
X134.772Y-63.576
X134.772Y-109.296
X134.772Y-111.836
X137.312Y-61.036
X137.312Y-63.576
X137.312Y-109.296
X137.312Y-111.836
X139.852Y-61.036
X139.852Y-63.576
X139.852Y-109.296
X139.852Y-111.836
X142.392Y-61.036
X142.392Y-63.576
X142.392Y-109.296
X142.392Y-111.836
X144.932Y-61.036
X144.932Y-63.576
X144.932Y-109.296
X144.932Y-111.836
X147.472Y-61.036
X147.472Y-63.576
X147.472Y-109.296
X147.472Y-111.836
X150.012Y-63.576
X150.012Y-111.836
T4
X87.579Y-69.837
X87.592Y-72.377
X87.592Y-74.917
X87.592Y-77.457
X87.592Y-79.997
X87.592Y-82.537
X87.592Y-85.077
X87.592Y-87.617
X87.592Y-90.157
X87.592Y-92.697
X87.592Y-95.237
X87.592Y-97.777
X87.592Y-100.317
X87.592Y-102.857
X90.119Y-69.837
X90.132Y-72.377
X90.132Y-74.917
X90.132Y-77.457
X90.132Y-79.997
X90.132Y-82.537
X90.132Y-85.077
X90.132Y-87.617
X90.132Y-90.157
X90.132Y-92.697
X90.132Y-95.237
X90.132Y-97.777
X90.132Y-100.317
X90.132Y-102.857
X92.672Y-72.377
X92.672Y-74.917
X92.672Y-77.457
X92.672Y-79.997
X92.672Y-82.537
X92.672Y-85.077
X92.672Y-87.617
X92.672Y-90.157
X92.672Y-92.697
X92.672Y-95.237
X92.672Y-97.777
X92.672Y-100.317
X92.672Y-102.857
X150.012Y-61.036
X150.012Y-109.296
T5
X89.052Y-65.481
X89.052Y-107.391
X155.092Y-62.306
X155.092Y-110.566
T0
M30
