%TF.GenerationSoftware,KiCad,Pcbnew,0.201603031449+6606~43~ubuntu14.04.1-product*%
%TF.CreationDate,2016-03-04T01:12:02+01:00*%
%TF.ProjectId,cvra-cape,637672612D636170652E6B696361645F,A*%
%TF.FileFunction,Soldermask,Bot*%
%FSLAX46Y46*%
G04 Gerber Fmt 4.6, Leading zero omitted, Abs format (unit mm)*
G04 Created by KiCad (PCBNEW 0.201603031449+6606~43~ubuntu14.04.1-product) date Fri 04 Mar 2016 01:12:02 CET*
%MOMM*%
G01*
G04 APERTURE LIST*
%ADD10C,0.100000*%
%ADD11R,3.200000X1.100000*%
%ADD12R,1.900000X1.900000*%
%ADD13C,1.900000*%
%ADD14R,2.127200X2.432000*%
%ADD15O,2.127200X2.432000*%
%ADD16C,4.972000*%
%ADD17R,2.051000X2.051000*%
%ADD18C,1.700480*%
%ADD19R,2.432000X2.432000*%
%ADD20O,2.432000X2.432000*%
G04 APERTURE END LIST*
D10*
D11*
X164566000Y-70727000D03*
X164566000Y-69227000D03*
D12*
X102997000Y-72961500D03*
D13*
X102997000Y-74961500D03*
D12*
X108902500Y-72961500D03*
D13*
X108902500Y-74961500D03*
D12*
X105854500Y-72961500D03*
D13*
X105854500Y-74961500D03*
D12*
X118046500Y-72961500D03*
D13*
X118046500Y-74961500D03*
D12*
X111950500Y-72961500D03*
D13*
X111950500Y-74961500D03*
D12*
X114998500Y-72961500D03*
D13*
X114998500Y-74961500D03*
X127635000Y-77375000D03*
D12*
X127635000Y-81375000D03*
D13*
X127635000Y-79375000D03*
X123444000Y-77375000D03*
D12*
X123444000Y-81375000D03*
D13*
X123444000Y-79375000D03*
X118999000Y-77375000D03*
D12*
X118999000Y-81375000D03*
D13*
X118999000Y-79375000D03*
X114554000Y-77343000D03*
D12*
X114554000Y-81343000D03*
D13*
X114554000Y-79343000D03*
D12*
X120523000Y-97920300D03*
D13*
X120523000Y-99920300D03*
D12*
X118491000Y-97904300D03*
D13*
X118491000Y-99904300D03*
D12*
X116471700Y-97929700D03*
D13*
X116471700Y-99929700D03*
D12*
X114439700Y-97920300D03*
D13*
X114439700Y-99920300D03*
D14*
X92671900Y-72377300D03*
D15*
X90131900Y-72377300D03*
X87591900Y-72377300D03*
D14*
X92671900Y-74917300D03*
D15*
X90131900Y-74917300D03*
X87591900Y-74917300D03*
D14*
X92671900Y-77457300D03*
D15*
X90131900Y-77457300D03*
X87591900Y-77457300D03*
D14*
X92671900Y-79997300D03*
D15*
X90131900Y-79997300D03*
X87591900Y-79997300D03*
D12*
X112369600Y-97936300D03*
D13*
X112369600Y-99936300D03*
D12*
X110337600Y-97920300D03*
D13*
X110337600Y-99920300D03*
D14*
X92671900Y-82537300D03*
D15*
X90131900Y-82537300D03*
X87591900Y-82537300D03*
D14*
X92671900Y-85077300D03*
D15*
X90131900Y-85077300D03*
X87591900Y-85077300D03*
D14*
X92671900Y-87617300D03*
D15*
X90131900Y-87617300D03*
X87591900Y-87617300D03*
D14*
X92671900Y-90157300D03*
D15*
X90131900Y-90157300D03*
X87591900Y-90157300D03*
D12*
X108254800Y-97904300D03*
D13*
X108254800Y-99904300D03*
D12*
X106222800Y-97904300D03*
D13*
X106222800Y-99904300D03*
D14*
X92671900Y-92697300D03*
D15*
X90131900Y-92697300D03*
X87591900Y-92697300D03*
D14*
X92671900Y-95237300D03*
D15*
X90131900Y-95237300D03*
X87591900Y-95237300D03*
D14*
X92671900Y-97777300D03*
D15*
X90131900Y-97777300D03*
X87591900Y-97777300D03*
D14*
X92671900Y-100317300D03*
D15*
X90131900Y-100317300D03*
X87591900Y-100317300D03*
D12*
X104127300Y-97904300D03*
D13*
X104127300Y-99904300D03*
D12*
X102044500Y-97904300D03*
D13*
X102044500Y-99904300D03*
D14*
X92671900Y-102857300D03*
D15*
X90131900Y-102857300D03*
X87591900Y-102857300D03*
D13*
X110807500Y-89233000D03*
X110807500Y-87233000D03*
D12*
X110807500Y-83233000D03*
D13*
X110807500Y-85233000D03*
D12*
X145161000Y-97536000D03*
D13*
X145161000Y-99536000D03*
D12*
X143700500Y-101552500D03*
D13*
X143700500Y-103552500D03*
D12*
X142367000Y-97536000D03*
D13*
X142367000Y-99536000D03*
D12*
X140906500Y-101552500D03*
D13*
X140906500Y-103552500D03*
D12*
X139509500Y-97536000D03*
D13*
X139509500Y-99536000D03*
D12*
X138112500Y-101536500D03*
D13*
X138112500Y-103536500D03*
D12*
X136779000Y-97536000D03*
D13*
X136779000Y-99536000D03*
D12*
X135318500Y-101505000D03*
D13*
X135318500Y-103505000D03*
D12*
X133921500Y-97536000D03*
D13*
X133921500Y-99536000D03*
D12*
X132524500Y-101473000D03*
D13*
X132524500Y-103473000D03*
D12*
X131127500Y-97536000D03*
D13*
X131127500Y-99536000D03*
D12*
X129730500Y-101473000D03*
D13*
X129730500Y-103473000D03*
D12*
X128333500Y-97536000D03*
D13*
X128333500Y-99536000D03*
D12*
X126936500Y-101473000D03*
D13*
X126936500Y-103473000D03*
D12*
X125539500Y-97536000D03*
D13*
X125539500Y-99536000D03*
D12*
X124142500Y-101489000D03*
D13*
X124142500Y-103489000D03*
D16*
X89052400Y-65481200D03*
X155092400Y-62306200D03*
X155092400Y-110566200D03*
X89052400Y-107391200D03*
D17*
X150012400Y-61036200D03*
D18*
X150012400Y-63576200D03*
X147472400Y-61036200D03*
X147472400Y-63576200D03*
X144932400Y-61036200D03*
X144932400Y-63576200D03*
X142392400Y-61036200D03*
X142392400Y-63576200D03*
X139852400Y-61036200D03*
X139852400Y-63576200D03*
X137312400Y-61036200D03*
X137312400Y-63576200D03*
X134772400Y-61036200D03*
X134772400Y-63576200D03*
X132232400Y-61036200D03*
X132232400Y-63576200D03*
X129692400Y-61036200D03*
X129692400Y-63576200D03*
X127152400Y-61036200D03*
X127152400Y-63576200D03*
X124612400Y-61036200D03*
X124612400Y-63576200D03*
X122072400Y-61036200D03*
X122072400Y-63576200D03*
X119532400Y-61036200D03*
X119532400Y-63576200D03*
X116992400Y-61036200D03*
X116992400Y-63576200D03*
X114452400Y-61036200D03*
X114452400Y-63576200D03*
X111912400Y-61036200D03*
X111912400Y-63576200D03*
X109372400Y-61036200D03*
X109372400Y-63576200D03*
X106832400Y-61036200D03*
X106832400Y-63576200D03*
X104292400Y-61036200D03*
X104292400Y-63576200D03*
X101752400Y-61036200D03*
X101752400Y-63576200D03*
X99212400Y-61036200D03*
X99212400Y-63576200D03*
X96672400Y-61036200D03*
X96672400Y-63576200D03*
X94132400Y-61036200D03*
X94132400Y-63576200D03*
D17*
X150012400Y-109296200D03*
D18*
X150012400Y-111836200D03*
X147472400Y-109296200D03*
X147472400Y-111836200D03*
X144932400Y-109296200D03*
X144932400Y-111836200D03*
X142392400Y-109296200D03*
X142392400Y-111836200D03*
X139852400Y-109296200D03*
X139852400Y-111836200D03*
X137312400Y-109296200D03*
X137312400Y-111836200D03*
X134772400Y-109296200D03*
X134772400Y-111836200D03*
X132232400Y-109296200D03*
X132232400Y-111836200D03*
X129692400Y-109296200D03*
X129692400Y-111836200D03*
X127152400Y-109296200D03*
X127152400Y-111836200D03*
X124612400Y-109296200D03*
X124612400Y-111836200D03*
X122072400Y-109296200D03*
X122072400Y-111836200D03*
X119532400Y-109296200D03*
X119532400Y-111836200D03*
X116992400Y-109296200D03*
X116992400Y-111836200D03*
X114452400Y-109296200D03*
X114452400Y-111836200D03*
X111912400Y-109296200D03*
X111912400Y-111836200D03*
X109372400Y-109296200D03*
X109372400Y-111836200D03*
X106832400Y-109296200D03*
X106832400Y-111836200D03*
X104292400Y-109296200D03*
X104292400Y-111836200D03*
X101752400Y-109296200D03*
X101752400Y-111836200D03*
X99212400Y-109296200D03*
X99212400Y-111836200D03*
X96672400Y-109296200D03*
X96672400Y-111836200D03*
X94132400Y-109296200D03*
X94132400Y-111836200D03*
D19*
X90119200Y-69837300D03*
D20*
X87579200Y-69837300D03*
M02*
